<?xml version="1.0" encoding="utf-8" standalone="no"?>
<!DOCTYPE svg PUBLIC "-//W3C//DTD SVG 1.1//EN"
  "http://www.w3.org/Graphics/SVG/1.1/DTD/svg11.dtd">
<svg xmlns:xlink="http://www.w3.org/1999/xlink" width="814.79952pt" height="281.99952pt" viewBox="0 0 814.79952 281.99952" xmlns="http://www.w3.org/2000/svg" version="1.1">
 <metadata>
  <rdf:RDF xmlns:dc="http://purl.org/dc/elements/1.1/" xmlns:cc="http://creativecommons.org/ns#" xmlns:rdf="http://www.w3.org/1999/02/22-rdf-syntax-ns#">
   <cc:Work>
    <dc:type rdf:resource="http://purl.org/dc/dcmitype/StillImage"/>
    <dc:format>image/svg+xml</dc:format>
    <dc:creator>
     <cc:Agent>
      <dc:title>VolSurf-Pricer evidence builder</dc:title>
     </cc:Agent>
    </dc:creator>
   </cc:Work>
  </rdf:RDF>
 </metadata>
 <defs>
  <style type="text/css">*{stroke-linejoin: round; stroke-linecap: butt}</style>
 </defs>
 <g id="figure_1">
  <g id="patch_1">
   <path d="M 0 281.99952 
L 814.79952 281.99952 
L 814.79952 0 
L 0 0 
z
" style="fill: #f7f3ea"/>
  </g>
  <g id="axes_1">
   <g id="patch_2">
    <path d="M 43.425078 246.298817 
L 404.721119 246.298817 
L 404.721119 38.521277 
L 43.425078 38.521277 
z
" style="fill: #f7f3ea"/>
   </g>
   <g id="matplotlib.axis_1">
    <g id="xtick_1">
     <g id="line2d_1">
      <defs>
       <path id="m905506c83d" d="M 0 0 
L 0 3.5 
" style="stroke: #132238; stroke-width: 0.8"/>
      </defs>
      <g>
       <use xlink:href="#m905506c83d" x="78.0949" y="246.298817" style="fill: #132238; stroke: #132238; stroke-width: 0.8"/>
      </g>
     </g>
     <g id="text_1">
      <!-- −0.4 -->
      <g style="fill: #132238" transform="translate(67.774705 259.756825) scale(0.085 -0.085)">
       <defs>
        <path id="DejaVuSans-c9c" d="M 678 2272 
L 4684 2272 
L 4684 1741 
L 678 1741 
L 678 2272 
z
" transform="scale(0.015625)"/>
        <path id="DejaVuSans-13" d="M 2034 4250 
Q 1547 4250 1301 3770 
Q 1056 3291 1056 2328 
Q 1056 1369 1301 889 
Q 1547 409 2034 409 
Q 2525 409 2770 889 
Q 3016 1369 3016 2328 
Q 3016 3291 2770 3770 
Q 2525 4250 2034 4250 
z
M 2034 4750 
Q 2819 4750 3233 4129 
Q 3647 3509 3647 2328 
Q 3647 1150 3233 529 
Q 2819 -91 2034 -91 
Q 1250 -91 836 529 
Q 422 1150 422 2328 
Q 422 3509 836 4129 
Q 1250 4750 2034 4750 
z
" transform="scale(0.015625)"/>
        <path id="DejaVuSans-11" d="M 684 794 
L 1344 794 
L 1344 0 
L 684 0 
L 684 794 
z
" transform="scale(0.015625)"/>
        <path id="DejaVuSans-17" d="M 2419 4116 
L 825 1625 
L 2419 1625 
L 2419 4116 
z
M 2253 4666 
L 3047 4666 
L 3047 1625 
L 3713 1625 
L 3713 1100 
L 3047 1100 
L 3047 0 
L 2419 0 
L 2419 1100 
L 313 1100 
L 313 1709 
L 2253 4666 
z
" transform="scale(0.015625)"/>
       </defs>
       <use xlink:href="#DejaVuSans-c9c"/>
       <use xlink:href="#DejaVuSans-13" transform="translate(83.796875 0)"/>
       <use xlink:href="#DejaVuSans-11" transform="translate(147.421875 0)"/>
       <use xlink:href="#DejaVuSans-17" transform="translate(179.203125 0)"/>
      </g>
     </g>
    </g>
    <g id="xtick_2">
     <g id="line2d_2">
      <g>
       <use xlink:href="#m905506c83d" x="151.084" y="246.298817" style="fill: #132238; stroke: #132238; stroke-width: 0.8"/>
      </g>
     </g>
     <g id="text_2">
      <!-- −0.2 -->
      <g style="fill: #132238" transform="translate(140.763804 259.756825) scale(0.085 -0.085)">
       <defs>
        <path id="DejaVuSans-15" d="M 1228 531 
L 3431 531 
L 3431 0 
L 469 0 
L 469 531 
Q 828 903 1448 1529 
Q 2069 2156 2228 2338 
Q 2531 2678 2651 2914 
Q 2772 3150 2772 3378 
Q 2772 3750 2511 3984 
Q 2250 4219 1831 4219 
Q 1534 4219 1204 4116 
Q 875 4013 500 3803 
L 500 4441 
Q 881 4594 1212 4672 
Q 1544 4750 1819 4750 
Q 2544 4750 2975 4387 
Q 3406 4025 3406 3419 
Q 3406 3131 3298 2873 
Q 3191 2616 2906 2266 
Q 2828 2175 2409 1742 
Q 1991 1309 1228 531 
z
" transform="scale(0.015625)"/>
       </defs>
       <use xlink:href="#DejaVuSans-c9c"/>
       <use xlink:href="#DejaVuSans-13" transform="translate(83.796875 0)"/>
       <use xlink:href="#DejaVuSans-11" transform="translate(147.421875 0)"/>
       <use xlink:href="#DejaVuSans-15" transform="translate(179.203125 0)"/>
      </g>
     </g>
    </g>
    <g id="xtick_3">
     <g id="line2d_3">
      <g>
       <use xlink:href="#m905506c83d" x="224.073099" y="246.298817" style="fill: #132238; stroke: #132238; stroke-width: 0.8"/>
      </g>
     </g>
     <g id="text_3">
      <!-- 0.0 -->
      <g style="fill: #132238" transform="translate(217.314271 259.756825) scale(0.085 -0.085)">
       <use xlink:href="#DejaVuSans-13"/>
       <use xlink:href="#DejaVuSans-11" transform="translate(63.625 0)"/>
       <use xlink:href="#DejaVuSans-13" transform="translate(95.40625 0)"/>
      </g>
     </g>
    </g>
    <g id="xtick_4">
     <g id="line2d_4">
      <g>
       <use xlink:href="#m905506c83d" x="297.062198" y="246.298817" style="fill: #132238; stroke: #132238; stroke-width: 0.8"/>
      </g>
     </g>
     <g id="text_4">
      <!-- 0.2 -->
      <g style="fill: #132238" transform="translate(290.30337 259.756825) scale(0.085 -0.085)">
       <use xlink:href="#DejaVuSans-13"/>
       <use xlink:href="#DejaVuSans-11" transform="translate(63.625 0)"/>
       <use xlink:href="#DejaVuSans-15" transform="translate(95.40625 0)"/>
      </g>
     </g>
    </g>
    <g id="xtick_5">
     <g id="line2d_5">
      <g>
       <use xlink:href="#m905506c83d" x="370.051297" y="246.298817" style="fill: #132238; stroke: #132238; stroke-width: 0.8"/>
      </g>
     </g>
     <g id="text_5">
      <!-- 0.4 -->
      <g style="fill: #132238" transform="translate(363.292469 259.756825) scale(0.085 -0.085)">
       <use xlink:href="#DejaVuSans-13"/>
       <use xlink:href="#DejaVuSans-11" transform="translate(63.625 0)"/>
       <use xlink:href="#DejaVuSans-17" transform="translate(95.40625 0)"/>
      </g>
     </g>
    </g>
    <g id="text_6">
     <!-- log-forward moneyness -->
     <g style="fill: #132238" transform="translate(171.175599 272.637411) scale(0.09 -0.09)">
      <defs>
       <path id="DejaVuSans-4f" d="M 603 4863 
L 1178 4863 
L 1178 0 
L 603 0 
L 603 4863 
z
" transform="scale(0.015625)"/>
       <path id="DejaVuSans-52" d="M 1959 3097 
Q 1497 3097 1228 2736 
Q 959 2375 959 1747 
Q 959 1119 1226 758 
Q 1494 397 1959 397 
Q 2419 397 2687 759 
Q 2956 1122 2956 1747 
Q 2956 2369 2687 2733 
Q 2419 3097 1959 3097 
z
M 1959 3584 
Q 2709 3584 3137 3096 
Q 3566 2609 3566 1747 
Q 3566 888 3137 398 
Q 2709 -91 1959 -91 
Q 1206 -91 779 398 
Q 353 888 353 1747 
Q 353 2609 779 3096 
Q 1206 3584 1959 3584 
z
" transform="scale(0.015625)"/>
       <path id="DejaVuSans-4a" d="M 2906 1791 
Q 2906 2416 2648 2759 
Q 2391 3103 1925 3103 
Q 1463 3103 1205 2759 
Q 947 2416 947 1791 
Q 947 1169 1205 825 
Q 1463 481 1925 481 
Q 2391 481 2648 825 
Q 2906 1169 2906 1791 
z
M 3481 434 
Q 3481 -459 3084 -895 
Q 2688 -1331 1869 -1331 
Q 1566 -1331 1297 -1286 
Q 1028 -1241 775 -1147 
L 775 -588 
Q 1028 -725 1275 -790 
Q 1522 -856 1778 -856 
Q 2344 -856 2625 -561 
Q 2906 -266 2906 331 
L 2906 616 
Q 2728 306 2450 153 
Q 2172 0 1784 0 
Q 1141 0 747 490 
Q 353 981 353 1791 
Q 353 2603 747 3093 
Q 1141 3584 1784 3584 
Q 2172 3584 2450 3431 
Q 2728 3278 2906 2969 
L 2906 3500 
L 3481 3500 
L 3481 434 
z
" transform="scale(0.015625)"/>
       <path id="DejaVuSans-10" d="M 313 2009 
L 1997 2009 
L 1997 1497 
L 313 1497 
L 313 2009 
z
" transform="scale(0.015625)"/>
       <path id="DejaVuSans-49" d="M 2375 4863 
L 2375 4384 
L 1825 4384 
Q 1516 4384 1395 4259 
Q 1275 4134 1275 3809 
L 1275 3500 
L 2222 3500 
L 2222 3053 
L 1275 3053 
L 1275 0 
L 697 0 
L 697 3053 
L 147 3053 
L 147 3500 
L 697 3500 
L 697 3744 
Q 697 4328 969 4595 
Q 1241 4863 1831 4863 
L 2375 4863 
z
" transform="scale(0.015625)"/>
       <path id="DejaVuSans-55" d="M 2631 2963 
Q 2534 3019 2420 3045 
Q 2306 3072 2169 3072 
Q 1681 3072 1420 2755 
Q 1159 2438 1159 1844 
L 1159 0 
L 581 0 
L 581 3500 
L 1159 3500 
L 1159 2956 
Q 1341 3275 1631 3429 
Q 1922 3584 2338 3584 
Q 2397 3584 2469 3576 
Q 2541 3569 2628 3553 
L 2631 2963 
z
" transform="scale(0.015625)"/>
       <path id="DejaVuSans-5a" d="M 269 3500 
L 844 3500 
L 1563 769 
L 2278 3500 
L 2956 3500 
L 3675 769 
L 4391 3500 
L 4966 3500 
L 4050 0 
L 3372 0 
L 2619 2869 
L 1863 0 
L 1184 0 
L 269 3500 
z
" transform="scale(0.015625)"/>
       <path id="DejaVuSans-44" d="M 2194 1759 
Q 1497 1759 1228 1600 
Q 959 1441 959 1056 
Q 959 750 1161 570 
Q 1363 391 1709 391 
Q 2188 391 2477 730 
Q 2766 1069 2766 1631 
L 2766 1759 
L 2194 1759 
z
M 3341 1997 
L 3341 0 
L 2766 0 
L 2766 531 
Q 2569 213 2275 61 
Q 1981 -91 1556 -91 
Q 1019 -91 701 211 
Q 384 513 384 1019 
Q 384 1609 779 1909 
Q 1175 2209 1959 2209 
L 2766 2209 
L 2766 2266 
Q 2766 2663 2505 2880 
Q 2244 3097 1772 3097 
Q 1472 3097 1187 3025 
Q 903 2953 641 2809 
L 641 3341 
Q 956 3463 1253 3523 
Q 1550 3584 1831 3584 
Q 2591 3584 2966 3190 
Q 3341 2797 3341 1997 
z
" transform="scale(0.015625)"/>
       <path id="DejaVuSans-47" d="M 2906 2969 
L 2906 4863 
L 3481 4863 
L 3481 0 
L 2906 0 
L 2906 525 
Q 2725 213 2448 61 
Q 2172 -91 1784 -91 
Q 1150 -91 751 415 
Q 353 922 353 1747 
Q 353 2572 751 3078 
Q 1150 3584 1784 3584 
Q 2172 3584 2448 3432 
Q 2725 3281 2906 2969 
z
M 947 1747 
Q 947 1113 1208 752 
Q 1469 391 1925 391 
Q 2381 391 2643 752 
Q 2906 1113 2906 1747 
Q 2906 2381 2643 2742 
Q 2381 3103 1925 3103 
Q 1469 3103 1208 2742 
Q 947 2381 947 1747 
z
" transform="scale(0.015625)"/>
       <path id="DejaVuSans-3" transform="scale(0.015625)"/>
       <path id="DejaVuSans-50" d="M 3328 2828 
Q 3544 3216 3844 3400 
Q 4144 3584 4550 3584 
Q 5097 3584 5394 3201 
Q 5691 2819 5691 2113 
L 5691 0 
L 5113 0 
L 5113 2094 
Q 5113 2597 4934 2840 
Q 4756 3084 4391 3084 
Q 3944 3084 3684 2787 
Q 3425 2491 3425 1978 
L 3425 0 
L 2847 0 
L 2847 2094 
Q 2847 2600 2669 2842 
Q 2491 3084 2119 3084 
Q 1678 3084 1418 2786 
Q 1159 2488 1159 1978 
L 1159 0 
L 581 0 
L 581 3500 
L 1159 3500 
L 1159 2956 
Q 1356 3278 1631 3431 
Q 1906 3584 2284 3584 
Q 2666 3584 2933 3390 
Q 3200 3197 3328 2828 
z
" transform="scale(0.015625)"/>
       <path id="DejaVuSans-51" d="M 3513 2113 
L 3513 0 
L 2938 0 
L 2938 2094 
Q 2938 2591 2744 2837 
Q 2550 3084 2163 3084 
Q 1697 3084 1428 2787 
Q 1159 2491 1159 1978 
L 1159 0 
L 581 0 
L 581 3500 
L 1159 3500 
L 1159 2956 
Q 1366 3272 1645 3428 
Q 1925 3584 2291 3584 
Q 2894 3584 3203 3211 
Q 3513 2838 3513 2113 
z
" transform="scale(0.015625)"/>
       <path id="DejaVuSans-48" d="M 3597 1894 
L 3597 1613 
L 953 1613 
Q 991 1019 1311 708 
Q 1631 397 2203 397 
Q 2534 397 2845 478 
Q 3156 559 3463 722 
L 3463 178 
Q 3153 47 2828 -22 
Q 2503 -91 2169 -91 
Q 1331 -91 842 396 
Q 353 884 353 1716 
Q 353 2575 817 3079 
Q 1281 3584 2069 3584 
Q 2775 3584 3186 3129 
Q 3597 2675 3597 1894 
z
M 3022 2063 
Q 3016 2534 2758 2815 
Q 2500 3097 2075 3097 
Q 1594 3097 1305 2825 
Q 1016 2553 972 2059 
L 3022 2063 
z
" transform="scale(0.015625)"/>
       <path id="DejaVuSans-5c" d="M 2059 -325 
Q 1816 -950 1584 -1140 
Q 1353 -1331 966 -1331 
L 506 -1331 
L 506 -850 
L 844 -850 
Q 1081 -850 1212 -737 
Q 1344 -625 1503 -206 
L 1606 56 
L 191 3500 
L 800 3500 
L 1894 763 
L 2988 3500 
L 3597 3500 
L 2059 -325 
z
" transform="scale(0.015625)"/>
       <path id="DejaVuSans-56" d="M 2834 3397 
L 2834 2853 
Q 2591 2978 2328 3040 
Q 2066 3103 1784 3103 
Q 1356 3103 1142 2972 
Q 928 2841 928 2578 
Q 928 2378 1081 2264 
Q 1234 2150 1697 2047 
L 1894 2003 
Q 2506 1872 2764 1633 
Q 3022 1394 3022 966 
Q 3022 478 2636 193 
Q 2250 -91 1575 -91 
Q 1294 -91 989 -36 
Q 684 19 347 128 
L 347 722 
Q 666 556 975 473 
Q 1284 391 1588 391 
Q 1994 391 2212 530 
Q 2431 669 2431 922 
Q 2431 1156 2273 1281 
Q 2116 1406 1581 1522 
L 1381 1569 
Q 847 1681 609 1914 
Q 372 2147 372 2553 
Q 372 3047 722 3315 
Q 1072 3584 1716 3584 
Q 2034 3584 2315 3537 
Q 2597 3491 2834 3397 
z
" transform="scale(0.015625)"/>
      </defs>
      <use xlink:href="#DejaVuSans-4f"/>
      <use xlink:href="#DejaVuSans-52" transform="translate(27.78125 0)"/>
      <use xlink:href="#DejaVuSans-4a" transform="translate(88.96875 0)"/>
      <use xlink:href="#DejaVuSans-10" transform="translate(152.453125 0)"/>
      <use xlink:href="#DejaVuSans-49" transform="translate(188.53125 0)"/>
      <use xlink:href="#DejaVuSans-52" transform="translate(223.734375 0)"/>
      <use xlink:href="#DejaVuSans-55" transform="translate(284.921875 0)"/>
      <use xlink:href="#DejaVuSans-5a" transform="translate(326.03125 0)"/>
      <use xlink:href="#DejaVuSans-44" transform="translate(407.8125 0)"/>
      <use xlink:href="#DejaVuSans-55" transform="translate(469.09375 0)"/>
      <use xlink:href="#DejaVuSans-47" transform="translate(508.453125 0)"/>
      <use xlink:href="#DejaVuSans-3" transform="translate(571.9375 0)"/>
      <use xlink:href="#DejaVuSans-50" transform="translate(603.71875 0)"/>
      <use xlink:href="#DejaVuSans-52" transform="translate(701.125 0)"/>
      <use xlink:href="#DejaVuSans-51" transform="translate(762.3125 0)"/>
      <use xlink:href="#DejaVuSans-48" transform="translate(825.6875 0)"/>
      <use xlink:href="#DejaVuSans-5c" transform="translate(887.21875 0)"/>
      <use xlink:href="#DejaVuSans-51" transform="translate(946.40625 0)"/>
      <use xlink:href="#DejaVuSans-48" transform="translate(1009.78125 0)"/>
      <use xlink:href="#DejaVuSans-56" transform="translate(1071.3125 0)"/>
      <use xlink:href="#DejaVuSans-56" transform="translate(1123.40625 0)"/>
     </g>
    </g>
   </g>
   <g id="matplotlib.axis_2">
    <g id="ytick_1">
     <g id="line2d_6">
      <path d="M 43.425078 236.987582 
L 404.721119 236.987582 
" clip-path="url(#p3f3bcd8a27)" style="fill: none; stroke: #d5d8d4; stroke-opacity: 0.8; stroke-width: 0.7; stroke-linecap: square"/>
     </g>
     <g id="line2d_7">
      <defs>
       <path id="ma763f90058" d="M 0 0 
L -3.5 0 
" style="stroke: #132238; stroke-width: 0.8"/>
      </defs>
      <g>
       <use xlink:href="#ma763f90058" x="43.425078" y="236.987582" style="fill: #132238; stroke: #132238; stroke-width: 0.8"/>
      </g>
     </g>
     <g id="text_7">
      <!-- 0 -->
      <g style="fill: #132238" transform="translate(31.016953 240.216586) scale(0.085 -0.085)">
       <use xlink:href="#DejaVuSans-13"/>
      </g>
     </g>
    </g>
    <g id="ytick_2">
     <g id="line2d_8">
      <path d="M 43.425078 208.549975 
L 404.721119 208.549975 
" clip-path="url(#p3f3bcd8a27)" style="fill: none; stroke: #d5d8d4; stroke-opacity: 0.8; stroke-width: 0.7; stroke-linecap: square"/>
     </g>
     <g id="line2d_9">
      <g>
       <use xlink:href="#ma763f90058" x="43.425078" y="208.549975" style="fill: #132238; stroke: #132238; stroke-width: 0.8"/>
      </g>
     </g>
     <g id="text_8">
      <!-- 25 -->
      <g style="fill: #132238" transform="translate(25.608828 211.778979) scale(0.085 -0.085)">
       <defs>
        <path id="DejaVuSans-18" d="M 691 4666 
L 3169 4666 
L 3169 4134 
L 1269 4134 
L 1269 2991 
Q 1406 3038 1543 3061 
Q 1681 3084 1819 3084 
Q 2600 3084 3056 2656 
Q 3513 2228 3513 1497 
Q 3513 744 3044 326 
Q 2575 -91 1722 -91 
Q 1428 -91 1123 -41 
Q 819 9 494 109 
L 494 744 
Q 775 591 1075 516 
Q 1375 441 1709 441 
Q 2250 441 2565 725 
Q 2881 1009 2881 1497 
Q 2881 1984 2565 2268 
Q 2250 2553 1709 2553 
Q 1456 2553 1204 2497 
Q 953 2441 691 2322 
L 691 4666 
z
" transform="scale(0.015625)"/>
       </defs>
       <use xlink:href="#DejaVuSans-15"/>
       <use xlink:href="#DejaVuSans-18" transform="translate(63.625 0)"/>
      </g>
     </g>
    </g>
    <g id="ytick_3">
     <g id="line2d_10">
      <path d="M 43.425078 180.112369 
L 404.721119 180.112369 
" clip-path="url(#p3f3bcd8a27)" style="fill: none; stroke: #d5d8d4; stroke-opacity: 0.8; stroke-width: 0.7; stroke-linecap: square"/>
     </g>
     <g id="line2d_11">
      <g>
       <use xlink:href="#ma763f90058" x="43.425078" y="180.112369" style="fill: #132238; stroke: #132238; stroke-width: 0.8"/>
      </g>
     </g>
     <g id="text_9">
      <!-- 50 -->
      <g style="fill: #132238" transform="translate(25.608828 183.341373) scale(0.085 -0.085)">
       <use xlink:href="#DejaVuSans-18"/>
       <use xlink:href="#DejaVuSans-13" transform="translate(63.625 0)"/>
      </g>
     </g>
    </g>
    <g id="ytick_4">
     <g id="line2d_12">
      <path d="M 43.425078 151.674763 
L 404.721119 151.674763 
" clip-path="url(#p3f3bcd8a27)" style="fill: none; stroke: #d5d8d4; stroke-opacity: 0.8; stroke-width: 0.7; stroke-linecap: square"/>
     </g>
     <g id="line2d_13">
      <g>
       <use xlink:href="#ma763f90058" x="43.425078" y="151.674763" style="fill: #132238; stroke: #132238; stroke-width: 0.8"/>
      </g>
     </g>
     <g id="text_10">
      <!-- 75 -->
      <g style="fill: #132238" transform="translate(25.608828 154.903767) scale(0.085 -0.085)">
       <defs>
        <path id="DejaVuSans-1a" d="M 525 4666 
L 3525 4666 
L 3525 4397 
L 1831 0 
L 1172 0 
L 2766 4134 
L 525 4134 
L 525 4666 
z
" transform="scale(0.015625)"/>
       </defs>
       <use xlink:href="#DejaVuSans-1a"/>
       <use xlink:href="#DejaVuSans-18" transform="translate(63.625 0)"/>
      </g>
     </g>
    </g>
    <g id="ytick_5">
     <g id="line2d_14">
      <path d="M 43.425078 123.237156 
L 404.721119 123.237156 
" clip-path="url(#p3f3bcd8a27)" style="fill: none; stroke: #d5d8d4; stroke-opacity: 0.8; stroke-width: 0.7; stroke-linecap: square"/>
     </g>
     <g id="line2d_15">
      <g>
       <use xlink:href="#ma763f90058" x="43.425078" y="123.237156" style="fill: #132238; stroke: #132238; stroke-width: 0.8"/>
      </g>
     </g>
     <g id="text_11">
      <!-- 100 -->
      <g style="fill: #132238" transform="translate(20.200703 126.46616) scale(0.085 -0.085)">
       <defs>
        <path id="DejaVuSans-14" d="M 794 531 
L 1825 531 
L 1825 4091 
L 703 3866 
L 703 4441 
L 1819 4666 
L 2450 4666 
L 2450 531 
L 3481 531 
L 3481 0 
L 794 0 
L 794 531 
z
" transform="scale(0.015625)"/>
       </defs>
       <use xlink:href="#DejaVuSans-14"/>
       <use xlink:href="#DejaVuSans-13" transform="translate(63.625 0)"/>
       <use xlink:href="#DejaVuSans-13" transform="translate(127.25 0)"/>
      </g>
     </g>
    </g>
    <g id="ytick_6">
     <g id="line2d_16">
      <path d="M 43.425078 94.79955 
L 404.721119 94.79955 
" clip-path="url(#p3f3bcd8a27)" style="fill: none; stroke: #d5d8d4; stroke-opacity: 0.8; stroke-width: 0.7; stroke-linecap: square"/>
     </g>
     <g id="line2d_17">
      <g>
       <use xlink:href="#ma763f90058" x="43.425078" y="94.79955" style="fill: #132238; stroke: #132238; stroke-width: 0.8"/>
      </g>
     </g>
     <g id="text_12">
      <!-- 125 -->
      <g style="fill: #132238" transform="translate(20.200703 98.028554) scale(0.085 -0.085)">
       <use xlink:href="#DejaVuSans-14"/>
       <use xlink:href="#DejaVuSans-15" transform="translate(63.625 0)"/>
       <use xlink:href="#DejaVuSans-18" transform="translate(127.25 0)"/>
      </g>
     </g>
    </g>
    <g id="ytick_7">
     <g id="line2d_18">
      <path d="M 43.425078 66.361944 
L 404.721119 66.361944 
" clip-path="url(#p3f3bcd8a27)" style="fill: none; stroke: #d5d8d4; stroke-opacity: 0.8; stroke-width: 0.7; stroke-linecap: square"/>
     </g>
     <g id="line2d_19">
      <g>
       <use xlink:href="#ma763f90058" x="43.425078" y="66.361944" style="fill: #132238; stroke: #132238; stroke-width: 0.8"/>
      </g>
     </g>
     <g id="text_13">
      <!-- 150 -->
      <g style="fill: #132238" transform="translate(20.200703 69.590947) scale(0.085 -0.085)">
       <use xlink:href="#DejaVuSans-14"/>
       <use xlink:href="#DejaVuSans-18" transform="translate(63.625 0)"/>
       <use xlink:href="#DejaVuSans-13" transform="translate(127.25 0)"/>
      </g>
     </g>
    </g>
    <g id="text_14">
     <!-- price per unit total variance -->
     <g style="fill: #132238" transform="translate(14.038594 205.187859) rotate(-90) scale(0.09 -0.09)">
      <defs>
       <path id="DejaVuSans-53" d="M 1159 525 
L 1159 -1331 
L 581 -1331 
L 581 3500 
L 1159 3500 
L 1159 2969 
Q 1341 3281 1617 3432 
Q 1894 3584 2278 3584 
Q 2916 3584 3314 3078 
Q 3713 2572 3713 1747 
Q 3713 922 3314 415 
Q 2916 -91 2278 -91 
Q 1894 -91 1617 61 
Q 1341 213 1159 525 
z
M 3116 1747 
Q 3116 2381 2855 2742 
Q 2594 3103 2138 3103 
Q 1681 3103 1420 2742 
Q 1159 2381 1159 1747 
Q 1159 1113 1420 752 
Q 1681 391 2138 391 
Q 2594 391 2855 752 
Q 3116 1113 3116 1747 
z
" transform="scale(0.015625)"/>
       <path id="DejaVuSans-4c" d="M 603 3500 
L 1178 3500 
L 1178 0 
L 603 0 
L 603 3500 
z
M 603 4863 
L 1178 4863 
L 1178 4134 
L 603 4134 
L 603 4863 
z
" transform="scale(0.015625)"/>
       <path id="DejaVuSans-46" d="M 3122 3366 
L 3122 2828 
Q 2878 2963 2633 3030 
Q 2388 3097 2138 3097 
Q 1578 3097 1268 2742 
Q 959 2388 959 1747 
Q 959 1106 1268 751 
Q 1578 397 2138 397 
Q 2388 397 2633 464 
Q 2878 531 3122 666 
L 3122 134 
Q 2881 22 2623 -34 
Q 2366 -91 2075 -91 
Q 1284 -91 818 406 
Q 353 903 353 1747 
Q 353 2603 823 3093 
Q 1294 3584 2113 3584 
Q 2378 3584 2631 3529 
Q 2884 3475 3122 3366 
z
" transform="scale(0.015625)"/>
       <path id="DejaVuSans-58" d="M 544 1381 
L 544 3500 
L 1119 3500 
L 1119 1403 
Q 1119 906 1312 657 
Q 1506 409 1894 409 
Q 2359 409 2629 706 
Q 2900 1003 2900 1516 
L 2900 3500 
L 3475 3500 
L 3475 0 
L 2900 0 
L 2900 538 
Q 2691 219 2414 64 
Q 2138 -91 1772 -91 
Q 1169 -91 856 284 
Q 544 659 544 1381 
z
M 1991 3584 
L 1991 3584 
z
" transform="scale(0.015625)"/>
       <path id="DejaVuSans-57" d="M 1172 4494 
L 1172 3500 
L 2356 3500 
L 2356 3053 
L 1172 3053 
L 1172 1153 
Q 1172 725 1289 603 
Q 1406 481 1766 481 
L 2356 481 
L 2356 0 
L 1766 0 
Q 1100 0 847 248 
Q 594 497 594 1153 
L 594 3053 
L 172 3053 
L 172 3500 
L 594 3500 
L 594 4494 
L 1172 4494 
z
" transform="scale(0.015625)"/>
       <path id="DejaVuSans-59" d="M 191 3500 
L 800 3500 
L 1894 563 
L 2988 3500 
L 3597 3500 
L 2284 0 
L 1503 0 
L 191 3500 
z
" transform="scale(0.015625)"/>
      </defs>
      <use xlink:href="#DejaVuSans-53"/>
      <use xlink:href="#DejaVuSans-55" transform="translate(63.484375 0)"/>
      <use xlink:href="#DejaVuSans-4c" transform="translate(104.59375 0)"/>
      <use xlink:href="#DejaVuSans-46" transform="translate(132.375 0)"/>
      <use xlink:href="#DejaVuSans-48" transform="translate(187.359375 0)"/>
      <use xlink:href="#DejaVuSans-3" transform="translate(248.890625 0)"/>
      <use xlink:href="#DejaVuSans-53" transform="translate(280.671875 0)"/>
      <use xlink:href="#DejaVuSans-48" transform="translate(344.15625 0)"/>
      <use xlink:href="#DejaVuSans-55" transform="translate(405.6875 0)"/>
      <use xlink:href="#DejaVuSans-3" transform="translate(446.796875 0)"/>
      <use xlink:href="#DejaVuSans-58" transform="translate(478.578125 0)"/>
      <use xlink:href="#DejaVuSans-51" transform="translate(541.953125 0)"/>
      <use xlink:href="#DejaVuSans-4c" transform="translate(605.328125 0)"/>
      <use xlink:href="#DejaVuSans-57" transform="translate(633.109375 0)"/>
      <use xlink:href="#DejaVuSans-3" transform="translate(672.3125 0)"/>
      <use xlink:href="#DejaVuSans-57" transform="translate(704.09375 0)"/>
      <use xlink:href="#DejaVuSans-52" transform="translate(743.296875 0)"/>
      <use xlink:href="#DejaVuSans-57" transform="translate(804.484375 0)"/>
      <use xlink:href="#DejaVuSans-44" transform="translate(843.6875 0)"/>
      <use xlink:href="#DejaVuSans-4f" transform="translate(904.96875 0)"/>
      <use xlink:href="#DejaVuSans-3" transform="translate(932.75 0)"/>
      <use xlink:href="#DejaVuSans-59" transform="translate(964.53125 0)"/>
      <use xlink:href="#DejaVuSans-44" transform="translate(1023.71875 0)"/>
      <use xlink:href="#DejaVuSans-55" transform="translate(1085 0)"/>
      <use xlink:href="#DejaVuSans-4c" transform="translate(1126.109375 0)"/>
      <use xlink:href="#DejaVuSans-44" transform="translate(1153.890625 0)"/>
      <use xlink:href="#DejaVuSans-51" transform="translate(1215.171875 0)"/>
      <use xlink:href="#DejaVuSans-46" transform="translate(1278.546875 0)"/>
      <use xlink:href="#DejaVuSans-48" transform="translate(1333.53125 0)"/>
     </g>
    </g>
   </g>
   <g id="line2d_20">
    <path d="M 59.847625 236.854383 
L 63.49708 236.805243 
L 67.146535 236.7397 
L 70.79599 236.65293 
L 74.445445 236.538913 
L 78.0949 236.390213 
L 81.744355 236.197734 
L 85.39381 235.950463 
L 89.043265 235.635206 
L 92.69272 235.236323 
L 96.342175 234.735483 
L 99.99163 234.11145 
L 103.641085 233.339925 
L 107.29054 232.393452 
L 110.939995 231.241436 
L 114.58945 229.850279 
L 118.238905 228.183671 
L 121.88836 226.203051 
L 125.537815 223.868275 
L 129.18727 221.138482 
L 132.836725 217.973192 
L 136.48618 214.333615 
L 140.135635 210.184164 
L 143.78509 205.494138 
L 147.434545 200.239539 
L 151.084 194.404967 
L 154.733454 187.985503 
L 158.382909 180.988519 
L 162.032364 173.435311 
L 165.681819 165.362447 
L 169.331274 156.822747 
L 172.980729 147.885794 
L 176.630184 138.637891 
L 180.279639 129.181405 
L 183.929094 119.633458 
L 187.578549 110.123952 
L 191.228004 100.792954 
L 194.877459 91.787491 
L 198.526914 83.257851 
L 202.176369 75.353512 
L 205.825824 68.218838 
L 209.475279 61.988733 
L 213.124734 56.784409 
L 216.774189 52.709476 
L 220.423644 49.84651 
L 224.073099 48.254273 
L 227.722554 47.965711 
L 231.372009 48.986811 
L 235.021464 51.296405 
L 238.670919 54.846894 
L 242.320374 59.56588 
L 245.969829 65.358619 
L 249.619283 72.111188 
L 253.268738 79.694201 
L 256.918193 87.966922 
L 260.567648 96.781587 
L 264.217103 105.987747 
L 267.866558 115.436457 
L 271.516013 124.984163 
L 275.165468 134.49613 
L 278.814923 143.849331 
L 282.464378 152.934707 
L 286.113833 161.658767 
L 289.763288 169.944532 
L 293.412743 177.731837 
L 297.062198 184.977059 
L 300.711653 191.652328 
L 304.361108 197.744334 
L 308.010563 203.2528 
L 311.660018 208.188746 
L 315.309473 212.572622 
L 318.958928 216.432407 
L 322.608383 219.801756 
L 326.257838 222.718248 
L 329.907293 225.221793 
L 333.556748 227.353231 
L 337.206203 229.153142 
L 340.855658 230.660878 
L 344.505112 231.913808 
L 348.154567 232.946768 
L 351.804022 233.791701 
L 355.453477 234.477451 
L 359.102932 235.029701 
L 362.752387 235.47102 
L 366.401842 235.820992 
L 370.051297 236.096412 
L 373.700752 236.31152 
L 377.350207 236.478255 
L 380.999662 236.606524 
L 384.649117 236.704463 
L 388.298572 236.778685 
" clip-path="url(#p3f3bcd8a27)" style="fill: none; stroke: #1e7a74; stroke-width: 2; stroke-linecap: square"/>
   </g>
   <g id="patch_3">
    <path d="M 43.425078 246.298817 
L 43.425078 38.521277 
" style="fill: none; stroke: #132238; stroke-width: 0.8; stroke-linejoin: miter; stroke-linecap: square"/>
   </g>
   <g id="patch_4">
    <path d="M 43.425078 246.298817 
L 404.721119 246.298817 
" style="fill: none; stroke: #132238; stroke-width: 0.8; stroke-linejoin: miter; stroke-linecap: square"/>
   </g>
   <g id="text_15">
    <!-- Price sensitivity $\partial V/\partial w$ -->
    <g style="fill: #132238" transform="translate(150.393099 32.521277) scale(0.12 -0.12)">
     <defs>
      <path id="DejaVuSans-Bold-33" d="M 588 4666 
L 2584 4666 
Q 3475 4666 3951 4270 
Q 4428 3875 4428 3144 
Q 4428 2409 3951 2014 
Q 3475 1619 2584 1619 
L 1791 1619 
L 1791 0 
L 588 0 
L 588 4666 
z
M 1791 3794 
L 1791 2491 
L 2456 2491 
Q 2806 2491 2997 2661 
Q 3188 2831 3188 3144 
Q 3188 3456 2997 3625 
Q 2806 3794 2456 3794 
L 1791 3794 
z
" transform="scale(0.015625)"/>
      <path id="DejaVuSans-Bold-55" d="M 3138 2547 
Q 2991 2616 2845 2648 
Q 2700 2681 2553 2681 
Q 2122 2681 1889 2404 
Q 1656 2128 1656 1613 
L 1656 0 
L 538 0 
L 538 3500 
L 1656 3500 
L 1656 2925 
Q 1872 3269 2151 3426 
Q 2431 3584 2822 3584 
Q 2878 3584 2943 3579 
Q 3009 3575 3134 3559 
L 3138 2547 
z
" transform="scale(0.015625)"/>
      <path id="DejaVuSans-Bold-4c" d="M 538 3500 
L 1656 3500 
L 1656 0 
L 538 0 
L 538 3500 
z
M 538 4863 
L 1656 4863 
L 1656 3950 
L 538 3950 
L 538 4863 
z
" transform="scale(0.015625)"/>
      <path id="DejaVuSans-Bold-46" d="M 3366 3391 
L 3366 2478 
Q 3138 2634 2908 2709 
Q 2678 2784 2431 2784 
Q 1963 2784 1702 2511 
Q 1441 2238 1441 1747 
Q 1441 1256 1702 982 
Q 1963 709 2431 709 
Q 2694 709 2930 787 
Q 3166 866 3366 1019 
L 3366 103 
Q 3103 6 2833 -42 
Q 2563 -91 2291 -91 
Q 1344 -91 809 395 
Q 275 881 275 1747 
Q 275 2613 809 3098 
Q 1344 3584 2291 3584 
Q 2566 3584 2833 3536 
Q 3100 3488 3366 3391 
z
" transform="scale(0.015625)"/>
      <path id="DejaVuSans-Bold-48" d="M 4031 1759 
L 4031 1441 
L 1416 1441 
Q 1456 1047 1700 850 
Q 1944 653 2381 653 
Q 2734 653 3104 758 
Q 3475 863 3866 1075 
L 3866 213 
Q 3469 63 3072 -14 
Q 2675 -91 2278 -91 
Q 1328 -91 801 392 
Q 275 875 275 1747 
Q 275 2603 792 3093 
Q 1309 3584 2216 3584 
Q 3041 3584 3536 3087 
Q 4031 2591 4031 1759 
z
M 2881 2131 
Q 2881 2450 2695 2645 
Q 2509 2841 2209 2841 
Q 1884 2841 1681 2658 
Q 1478 2475 1428 2131 
L 2881 2131 
z
" transform="scale(0.015625)"/>
      <path id="DejaVuSans-Bold-3" transform="scale(0.015625)"/>
      <path id="DejaVuSans-Bold-56" d="M 3272 3391 
L 3272 2541 
Q 2913 2691 2578 2766 
Q 2244 2841 1947 2841 
Q 1628 2841 1473 2761 
Q 1319 2681 1319 2516 
Q 1319 2381 1436 2309 
Q 1553 2238 1856 2203 
L 2053 2175 
Q 2913 2066 3209 1816 
Q 3506 1566 3506 1031 
Q 3506 472 3093 190 
Q 2681 -91 1863 -91 
Q 1516 -91 1145 -36 
Q 775 19 384 128 
L 384 978 
Q 719 816 1070 734 
Q 1422 653 1784 653 
Q 2113 653 2278 743 
Q 2444 834 2444 1013 
Q 2444 1163 2330 1236 
Q 2216 1309 1875 1350 
L 1678 1375 
Q 931 1469 631 1722 
Q 331 1975 331 2491 
Q 331 3047 712 3315 
Q 1094 3584 1881 3584 
Q 2191 3584 2531 3537 
Q 2872 3491 3272 3391 
z
" transform="scale(0.015625)"/>
      <path id="DejaVuSans-Bold-51" d="M 4056 2131 
L 4056 0 
L 2931 0 
L 2931 347 
L 2931 1631 
Q 2931 2084 2911 2256 
Q 2891 2428 2841 2509 
Q 2775 2619 2662 2680 
Q 2550 2741 2406 2741 
Q 2056 2741 1856 2470 
Q 1656 2200 1656 1722 
L 1656 0 
L 538 0 
L 538 3500 
L 1656 3500 
L 1656 2988 
Q 1909 3294 2193 3439 
Q 2478 3584 2822 3584 
Q 3428 3584 3742 3212 
Q 4056 2841 4056 2131 
z
" transform="scale(0.015625)"/>
      <path id="DejaVuSans-Bold-57" d="M 1759 4494 
L 1759 3500 
L 2913 3500 
L 2913 2700 
L 1759 2700 
L 1759 1216 
Q 1759 972 1856 886 
Q 1953 800 2241 800 
L 2816 800 
L 2816 0 
L 1856 0 
Q 1194 0 917 276 
Q 641 553 641 1216 
L 641 2700 
L 84 2700 
L 84 3500 
L 641 3500 
L 641 4494 
L 1759 4494 
z
" transform="scale(0.015625)"/>
      <path id="DejaVuSans-Bold-59" d="M 97 3500 
L 1216 3500 
L 2088 1081 
L 2956 3500 
L 4078 3500 
L 2700 0 
L 1472 0 
L 97 3500 
z
" transform="scale(0.015625)"/>
      <path id="DejaVuSans-Bold-5c" d="M 78 3500 
L 1197 3500 
L 2138 1125 
L 2938 3500 
L 4056 3500 
L 2584 -331 
Q 2363 -916 2067 -1148 
Q 1772 -1381 1288 -1381 
L 641 -1381 
L 641 -647 
L 991 -647 
Q 1275 -647 1404 -556 
Q 1534 -466 1606 -231 
L 1638 -134 
L 78 3500 
z
" transform="scale(0.015625)"/>
      <path id="DejaVuSans-c8c" d="M 1366 -91 
Q 925 -91 638 175 
Q 297 491 297 1063 
Q 297 1656 597 2119 
Q 906 2594 1463 2594 
Q 1828 2594 2116 2366 
Q 2284 2231 2400 2006 
Q 2441 2259 2441 2547 
Q 2441 2969 2341 3213 
Q 2119 3753 1531 3753 
Q 1309 3753 966 3616 
L 966 4141 
Q 1328 4238 1653 4238 
Q 2491 4238 2847 3469 
Q 3013 3106 3013 2566 
Q 3013 2213 2934 1803 
Q 2738 778 2228 291 
Q 1828 -91 1366 -91 
z
M 831 969 
Q 831 656 969 488 
Q 1116 309 1341 309 
Q 1541 309 1700 450 
Q 1925 644 2091 959 
Q 2228 1219 2297 1497 
Q 2019 2169 1538 2169 
Q 1125 2169 944 1625 
Q 831 1288 831 969 
z
" transform="scale(0.015625)"/>
      <path id="DejaVuSans-Oblique-39" d="M 1319 0 
L 500 4666 
L 1119 4666 
L 1797 653 
L 4063 4666 
L 4750 4666 
L 2053 0 
L 1319 0 
z
" transform="scale(0.015625)"/>
      <path id="DejaVuSans-12" d="M 1625 4666 
L 2156 4666 
L 531 -594 
L 0 -594 
L 1625 4666 
z
" transform="scale(0.015625)"/>
      <path id="DejaVuSans-Oblique-5a" d="M 544 3500 
L 1113 3500 
L 1259 684 
L 2566 3500 
L 3231 3500 
L 3425 684 
L 4666 3500 
L 5241 3500 
L 3641 0 
L 2969 0 
L 2797 2900 
L 1459 0 
L 781 0 
L 544 3500 
z
" transform="scale(0.015625)"/>
     </defs>
     <use xlink:href="#DejaVuSans-Bold-33" transform="translate(0 0.015625)"/>
     <use xlink:href="#DejaVuSans-Bold-55" transform="translate(73.291016 0.015625)"/>
     <use xlink:href="#DejaVuSans-Bold-4c" transform="translate(122.607422 0.015625)"/>
     <use xlink:href="#DejaVuSans-Bold-46" transform="translate(156.884766 0.015625)"/>
     <use xlink:href="#DejaVuSans-Bold-48" transform="translate(216.162109 0.015625)"/>
     <use xlink:href="#DejaVuSans-Bold-3" transform="translate(283.984375 0.015625)"/>
     <use xlink:href="#DejaVuSans-Bold-56" transform="translate(318.798828 0.015625)"/>
     <use xlink:href="#DejaVuSans-Bold-48" transform="translate(378.320312 0.015625)"/>
     <use xlink:href="#DejaVuSans-Bold-51" transform="translate(446.142578 0.015625)"/>
     <use xlink:href="#DejaVuSans-Bold-56" transform="translate(517.333984 0.015625)"/>
     <use xlink:href="#DejaVuSans-Bold-4c" transform="translate(576.855469 0.015625)"/>
     <use xlink:href="#DejaVuSans-Bold-57" transform="translate(611.132812 0.015625)"/>
     <use xlink:href="#DejaVuSans-Bold-4c" transform="translate(658.935547 0.015625)"/>
     <use xlink:href="#DejaVuSans-Bold-59" transform="translate(693.212891 0.015625)"/>
     <use xlink:href="#DejaVuSans-Bold-4c" transform="translate(758.398438 0.015625)"/>
     <use xlink:href="#DejaVuSans-Bold-57" transform="translate(792.675781 0.015625)"/>
     <use xlink:href="#DejaVuSans-Bold-5c" transform="translate(840.478516 0.015625)"/>
     <use xlink:href="#DejaVuSans-Bold-3" transform="translate(905.664062 0.015625)"/>
     <use xlink:href="#DejaVuSans-c8c" transform="translate(940.478516 0.015625)"/>
     <use xlink:href="#DejaVuSans-Oblique-39" transform="translate(992.1875 0.015625)"/>
     <use xlink:href="#DejaVuSans-12" transform="translate(1060.595703 0.015625)"/>
     <use xlink:href="#DejaVuSans-c8c" transform="translate(1094.287109 0.015625)"/>
     <use xlink:href="#DejaVuSans-Oblique-5a" transform="translate(1145.996094 0.015625)"/>
    </g>
   </g>
  </g>
  <g id="axes_2">
   <g id="patch_5">
    <path d="M 446.303479 246.298817 
L 807.59952 246.298817 
L 807.59952 38.521277 
L 446.303479 38.521277 
z
" style="fill: #f7f3ea"/>
   </g>
   <g id="FillBetweenPolyCollection_1">
    <defs>
     <path id="m5b8b561062" d="M 462.726026 -45.145145 
L 462.726026 -45.145137 
L 466.375481 -45.145137 
L 470.024936 -45.145137 
L 473.674391 -45.145137 
L 477.323846 -45.145137 
L 480.973301 -45.145137 
L 484.622756 -45.145137 
L 488.272211 -45.145137 
L 491.921666 -45.145137 
L 495.571121 -45.145137 
L 499.220576 -45.145137 
L 502.870031 -45.145137 
L 506.519486 -45.145137 
L 510.168941 -45.145137 
L 513.818396 -45.145137 
L 517.467851 -45.145137 
L 521.117305 -45.145137 
L 524.76676 -45.145137 
L 528.416215 -45.145137 
L 532.06567 -45.145137 
L 535.715125 -45.145137 
L 539.36458 -45.145137 
L 543.014035 -45.145137 
L 546.66349 -45.145137 
L 550.312945 -45.145137 
L 553.9624 -45.145137 
L 557.611855 -45.145137 
L 561.26131 -45.145137 
L 564.910765 -45.145137 
L 568.56022 -45.145137 
L 572.209675 -45.145137 
L 575.85913 -45.145137 
L 579.508585 -45.145137 
L 583.15804 -45.145137 
L 586.807495 -45.145137 
L 590.45695 -45.145137 
L 594.106405 -45.145137 
L 597.75586 -45.145137 
L 601.405315 -45.145137 
L 605.05477 -45.145137 
L 608.704225 -45.145137 
L 612.35368 -45.145137 
L 616.003134 -45.145137 
L 619.652589 -45.145137 
L 623.302044 -45.145137 
L 626.951499 -45.145137 
L 630.600954 -45.145137 
L 634.250409 -45.145137 
L 637.899864 -45.145137 
L 641.549319 -45.145137 
L 645.198774 -45.145137 
L 648.848229 -45.145137 
L 652.497684 -45.145137 
L 656.147139 -45.145137 
L 659.796594 -45.145137 
L 663.446049 -45.145137 
L 667.095504 -45.145137 
L 670.744959 -45.145137 
L 674.394414 -45.145137 
L 678.043869 -45.145137 
L 681.693324 -45.145137 
L 685.342779 -45.145137 
L 688.992234 -45.145137 
L 692.641689 -45.145137 
L 696.291144 -45.145137 
L 699.940599 -45.145137 
L 703.590054 -45.145137 
L 707.239509 -45.145137 
L 710.888964 -45.145137 
L 714.538418 -45.145137 
L 718.187873 -45.145137 
L 721.837328 -45.145137 
L 725.486783 -45.145137 
L 729.136238 -45.145137 
L 732.785693 -45.145137 
L 736.435148 -45.145137 
L 740.084603 -45.145137 
L 743.734058 -45.145137 
L 747.383513 -45.145137 
L 751.032968 -45.145137 
L 754.682423 -45.145137 
L 758.331878 -45.145137 
L 761.981333 -45.145137 
L 765.630788 -45.145137 
L 769.280243 -45.145137 
L 772.929698 -45.145137 
L 776.579153 -45.145137 
L 780.228608 -45.145137 
L 783.878063 -45.145137 
L 787.527518 -45.145137 
L 791.176973 -45.145137 
L 791.176973 -45.145158 
L 791.176973 -45.145158 
L 787.527518 -45.145177 
L 783.878063 -45.145212 
L 780.228608 -45.145276 
L 776.579153 -45.145391 
L 772.929698 -45.145594 
L 769.280243 -45.145951 
L 765.630788 -45.146565 
L 761.981333 -45.14761 
L 758.331878 -45.149362 
L 754.682423 -45.152261 
L 751.032968 -45.156989 
L 747.383513 -45.164596 
L 743.734058 -45.176665 
L 740.084603 -45.195548 
L 736.435148 -45.224684 
L 732.785693 -45.269018 
L 729.136238 -45.335541 
L 725.486783 -45.433972 
L 721.837328 -45.577594 
L 718.187873 -45.784235 
L 714.538418 -46.077401 
L 710.888964 -46.48751 
L 707.239509 -47.053178 
L 703.590054 -47.822455 
L 699.940599 -48.853905 
L 696.291144 -50.217351 
L 692.641689 -51.994116 
L 688.992234 -54.276555 
L 685.342779 -57.166688 
L 681.693324 -60.773742 
L 678.043869 -65.210509 
L 674.394414 -70.588453 
L 670.744959 -77.011658 
L 667.095504 -84.5698 
L 663.446049 -93.33049 
L 659.796594 -103.331458 
L 656.147139 -114.573176 
L 652.497684 -127.012574 
L 648.848229 -140.558539 
L 645.198774 -155.069832 
L 641.549319 -170.355927 
L 637.899864 -186.181115 
L 634.250409 -202.271925 
L 630.600954 -218.327698 
L 626.951499 -234.033809 
L 623.302044 -214.898453 
L 619.652589 -196.110896 
L 616.003134 -177.967819 
L 612.35368 -160.729264 
L 608.704225 -144.609114 
L 605.05477 -129.769233 
L 601.405315 -116.317267 
L 597.75586 -104.307809 
L 594.106405 -93.746438 
L 590.45695 -84.595967 
L 586.807495 -76.78417 
L 583.15804 -70.21223 
L 579.508585 -64.763246 
L 575.85913 -60.310219 
L 572.209675 -56.723092 
L 568.56022 -53.874575 
L 564.910765 -51.64461 
L 561.26131 -49.923507 
L 557.611855 -48.613828 
L 553.9624 -47.631199 
L 550.312945 -46.90426 
L 546.66349 -46.373985 
L 543.014035 -45.992555 
L 539.36458 -45.722006 
L 535.715125 -45.532769 
L 532.06567 -45.402241 
L 528.416215 -45.313455 
L 524.76676 -45.253897 
L 521.117305 -45.214498 
L 517.467851 -45.188793 
L 513.818396 -45.172255 
L 510.168941 -45.161761 
L 506.519486 -45.155194 
L 502.870031 -45.151141 
L 499.220576 -45.148674 
L 495.571121 -45.147193 
L 491.921666 -45.146317 
L 488.272211 -45.145805 
L 484.622756 -45.14551 
L 480.973301 -45.145342 
L 477.323846 -45.145249 
L 473.674391 -45.145197 
L 470.024936 -45.145169 
L 466.375481 -45.145153 
L 462.726026 -45.145145 
z
" style="stroke: #d8b46a; stroke-opacity: 0.25"/>
    </defs>
    <g clip-path="url(#ped819c65f0)">
     <use xlink:href="#m5b8b561062" x="0" y="281.99952" style="fill: #d8b46a; fill-opacity: 0.25; stroke: #d8b46a; stroke-opacity: 0.25"/>
    </g>
   </g>
   <g id="matplotlib.axis_3">
    <g id="xtick_6">
     <g id="line2d_21">
      <g>
       <use xlink:href="#m905506c83d" x="480.973301" y="246.298817" style="fill: #132238; stroke: #132238; stroke-width: 0.8"/>
      </g>
     </g>
     <g id="text_16">
      <!-- −0.4 -->
      <g style="fill: #132238" transform="translate(470.653106 259.756825) scale(0.085 -0.085)">
       <use xlink:href="#DejaVuSans-c9c"/>
       <use xlink:href="#DejaVuSans-13" transform="translate(83.796875 0)"/>
       <use xlink:href="#DejaVuSans-11" transform="translate(147.421875 0)"/>
       <use xlink:href="#DejaVuSans-17" transform="translate(179.203125 0)"/>
      </g>
     </g>
    </g>
    <g id="xtick_7">
     <g id="line2d_22">
      <g>
       <use xlink:href="#m905506c83d" x="553.9624" y="246.298817" style="fill: #132238; stroke: #132238; stroke-width: 0.8"/>
      </g>
     </g>
     <g id="text_17">
      <!-- −0.2 -->
      <g style="fill: #132238" transform="translate(543.642205 259.756825) scale(0.085 -0.085)">
       <use xlink:href="#DejaVuSans-c9c"/>
       <use xlink:href="#DejaVuSans-13" transform="translate(83.796875 0)"/>
       <use xlink:href="#DejaVuSans-11" transform="translate(147.421875 0)"/>
       <use xlink:href="#DejaVuSans-15" transform="translate(179.203125 0)"/>
      </g>
     </g>
    </g>
    <g id="xtick_8">
     <g id="line2d_23">
      <g>
       <use xlink:href="#m905506c83d" x="626.951499" y="246.298817" style="fill: #132238; stroke: #132238; stroke-width: 0.8"/>
      </g>
     </g>
     <g id="text_18">
      <!-- 0.0 -->
      <g style="fill: #132238" transform="translate(620.192671 259.756825) scale(0.085 -0.085)">
       <use xlink:href="#DejaVuSans-13"/>
       <use xlink:href="#DejaVuSans-11" transform="translate(63.625 0)"/>
       <use xlink:href="#DejaVuSans-13" transform="translate(95.40625 0)"/>
      </g>
     </g>
    </g>
    <g id="xtick_9">
     <g id="line2d_24">
      <g>
       <use xlink:href="#m905506c83d" x="699.940599" y="246.298817" style="fill: #132238; stroke: #132238; stroke-width: 0.8"/>
      </g>
     </g>
     <g id="text_19">
      <!-- 0.2 -->
      <g style="fill: #132238" transform="translate(693.18177 259.756825) scale(0.085 -0.085)">
       <use xlink:href="#DejaVuSans-13"/>
       <use xlink:href="#DejaVuSans-11" transform="translate(63.625 0)"/>
       <use xlink:href="#DejaVuSans-15" transform="translate(95.40625 0)"/>
      </g>
     </g>
    </g>
    <g id="xtick_10">
     <g id="line2d_25">
      <g>
       <use xlink:href="#m905506c83d" x="772.929698" y="246.298817" style="fill: #132238; stroke: #132238; stroke-width: 0.8"/>
      </g>
     </g>
     <g id="text_20">
      <!-- 0.4 -->
      <g style="fill: #132238" transform="translate(766.17087 259.756825) scale(0.085 -0.085)">
       <use xlink:href="#DejaVuSans-13"/>
       <use xlink:href="#DejaVuSans-11" transform="translate(63.625 0)"/>
       <use xlink:href="#DejaVuSans-17" transform="translate(95.40625 0)"/>
      </g>
     </g>
    </g>
    <g id="text_21">
     <!-- log-forward moneyness -->
     <g style="fill: #132238" transform="translate(574.053999 272.637411) scale(0.09 -0.09)">
      <use xlink:href="#DejaVuSans-4f"/>
      <use xlink:href="#DejaVuSans-52" transform="translate(27.78125 0)"/>
      <use xlink:href="#DejaVuSans-4a" transform="translate(88.96875 0)"/>
      <use xlink:href="#DejaVuSans-10" transform="translate(152.453125 0)"/>
      <use xlink:href="#DejaVuSans-49" transform="translate(188.53125 0)"/>
      <use xlink:href="#DejaVuSans-52" transform="translate(223.734375 0)"/>
      <use xlink:href="#DejaVuSans-55" transform="translate(284.921875 0)"/>
      <use xlink:href="#DejaVuSans-5a" transform="translate(326.03125 0)"/>
      <use xlink:href="#DejaVuSans-44" transform="translate(407.8125 0)"/>
      <use xlink:href="#DejaVuSans-55" transform="translate(469.09375 0)"/>
      <use xlink:href="#DejaVuSans-47" transform="translate(508.453125 0)"/>
      <use xlink:href="#DejaVuSans-3" transform="translate(571.9375 0)"/>
      <use xlink:href="#DejaVuSans-50" transform="translate(603.71875 0)"/>
      <use xlink:href="#DejaVuSans-52" transform="translate(701.125 0)"/>
      <use xlink:href="#DejaVuSans-51" transform="translate(762.3125 0)"/>
      <use xlink:href="#DejaVuSans-48" transform="translate(825.6875 0)"/>
      <use xlink:href="#DejaVuSans-5c" transform="translate(887.21875 0)"/>
      <use xlink:href="#DejaVuSans-51" transform="translate(946.40625 0)"/>
      <use xlink:href="#DejaVuSans-48" transform="translate(1009.78125 0)"/>
      <use xlink:href="#DejaVuSans-56" transform="translate(1071.3125 0)"/>
      <use xlink:href="#DejaVuSans-56" transform="translate(1123.40625 0)"/>
     </g>
    </g>
   </g>
   <g id="matplotlib.axis_4">
    <g id="ytick_8">
     <g id="line2d_26">
      <path d="M 446.303479 236.854383 
L 807.59952 236.854383 
" clip-path="url(#ped819c65f0)" style="fill: none; stroke: #d5d8d4; stroke-opacity: 0.8; stroke-width: 0.7; stroke-linecap: square"/>
     </g>
     <g id="line2d_27">
      <g>
       <use xlink:href="#ma763f90058" x="446.303479" y="236.854383" style="fill: #132238; stroke: #132238; stroke-width: 0.8"/>
      </g>
     </g>
     <g id="text_22">
      <!-- 0.0 -->
      <g style="fill: #132238" transform="translate(425.785823 240.083387) scale(0.085 -0.085)">
       <use xlink:href="#DejaVuSans-13"/>
       <use xlink:href="#DejaVuSans-11" transform="translate(63.625 0)"/>
       <use xlink:href="#DejaVuSans-13" transform="translate(95.40625 0)"/>
      </g>
     </g>
    </g>
    <g id="ytick_9">
     <g id="line2d_28">
      <path d="M 446.303479 199.076649 
L 807.59952 199.076649 
" clip-path="url(#ped819c65f0)" style="fill: none; stroke: #d5d8d4; stroke-opacity: 0.8; stroke-width: 0.7; stroke-linecap: square"/>
     </g>
     <g id="line2d_29">
      <g>
       <use xlink:href="#ma763f90058" x="446.303479" y="199.076649" style="fill: #132238; stroke: #132238; stroke-width: 0.8"/>
      </g>
     </g>
     <g id="text_23">
      <!-- 0.2 -->
      <g style="fill: #132238" transform="translate(425.785823 202.305653) scale(0.085 -0.085)">
       <use xlink:href="#DejaVuSans-13"/>
       <use xlink:href="#DejaVuSans-11" transform="translate(63.625 0)"/>
       <use xlink:href="#DejaVuSans-15" transform="translate(95.40625 0)"/>
      </g>
     </g>
    </g>
    <g id="ytick_10">
     <g id="line2d_30">
      <path d="M 446.303479 161.298914 
L 807.59952 161.298914 
" clip-path="url(#ped819c65f0)" style="fill: none; stroke: #d5d8d4; stroke-opacity: 0.8; stroke-width: 0.7; stroke-linecap: square"/>
     </g>
     <g id="line2d_31">
      <g>
       <use xlink:href="#ma763f90058" x="446.303479" y="161.298914" style="fill: #132238; stroke: #132238; stroke-width: 0.8"/>
      </g>
     </g>
     <g id="text_24">
      <!-- 0.4 -->
      <g style="fill: #132238" transform="translate(425.785823 164.527918) scale(0.085 -0.085)">
       <use xlink:href="#DejaVuSans-13"/>
       <use xlink:href="#DejaVuSans-11" transform="translate(63.625 0)"/>
       <use xlink:href="#DejaVuSans-17" transform="translate(95.40625 0)"/>
      </g>
     </g>
    </g>
    <g id="ytick_11">
     <g id="line2d_32">
      <path d="M 446.303479 123.52118 
L 807.59952 123.52118 
" clip-path="url(#ped819c65f0)" style="fill: none; stroke: #d5d8d4; stroke-opacity: 0.8; stroke-width: 0.7; stroke-linecap: square"/>
     </g>
     <g id="line2d_33">
      <g>
       <use xlink:href="#ma763f90058" x="446.303479" y="123.52118" style="fill: #132238; stroke: #132238; stroke-width: 0.8"/>
      </g>
     </g>
     <g id="text_25">
      <!-- 0.6 -->
      <g style="fill: #132238" transform="translate(425.785823 126.750184) scale(0.085 -0.085)">
       <defs>
        <path id="DejaVuSans-19" d="M 2113 2584 
Q 1688 2584 1439 2293 
Q 1191 2003 1191 1497 
Q 1191 994 1439 701 
Q 1688 409 2113 409 
Q 2538 409 2786 701 
Q 3034 994 3034 1497 
Q 3034 2003 2786 2293 
Q 2538 2584 2113 2584 
z
M 3366 4563 
L 3366 3988 
Q 3128 4100 2886 4159 
Q 2644 4219 2406 4219 
Q 1781 4219 1451 3797 
Q 1122 3375 1075 2522 
Q 1259 2794 1537 2939 
Q 1816 3084 2150 3084 
Q 2853 3084 3261 2657 
Q 3669 2231 3669 1497 
Q 3669 778 3244 343 
Q 2819 -91 2113 -91 
Q 1303 -91 875 529 
Q 447 1150 447 2328 
Q 447 3434 972 4092 
Q 1497 4750 2381 4750 
Q 2619 4750 2861 4703 
Q 3103 4656 3366 4563 
z
" transform="scale(0.015625)"/>
       </defs>
       <use xlink:href="#DejaVuSans-13"/>
       <use xlink:href="#DejaVuSans-11" transform="translate(63.625 0)"/>
       <use xlink:href="#DejaVuSans-19" transform="translate(95.40625 0)"/>
      </g>
     </g>
    </g>
    <g id="ytick_12">
     <g id="line2d_34">
      <path d="M 446.303479 85.743445 
L 807.59952 85.743445 
" clip-path="url(#ped819c65f0)" style="fill: none; stroke: #d5d8d4; stroke-opacity: 0.8; stroke-width: 0.7; stroke-linecap: square"/>
     </g>
     <g id="line2d_35">
      <g>
       <use xlink:href="#ma763f90058" x="446.303479" y="85.743445" style="fill: #132238; stroke: #132238; stroke-width: 0.8"/>
      </g>
     </g>
     <g id="text_26">
      <!-- 0.8 -->
      <g style="fill: #132238" transform="translate(425.785823 88.972449) scale(0.085 -0.085)">
       <defs>
        <path id="DejaVuSans-1b" d="M 2034 2216 
Q 1584 2216 1326 1975 
Q 1069 1734 1069 1313 
Q 1069 891 1326 650 
Q 1584 409 2034 409 
Q 2484 409 2743 651 
Q 3003 894 3003 1313 
Q 3003 1734 2745 1975 
Q 2488 2216 2034 2216 
z
M 1403 2484 
Q 997 2584 770 2862 
Q 544 3141 544 3541 
Q 544 4100 942 4425 
Q 1341 4750 2034 4750 
Q 2731 4750 3128 4425 
Q 3525 4100 3525 3541 
Q 3525 3141 3298 2862 
Q 3072 2584 2669 2484 
Q 3125 2378 3379 2068 
Q 3634 1759 3634 1313 
Q 3634 634 3220 271 
Q 2806 -91 2034 -91 
Q 1263 -91 848 271 
Q 434 634 434 1313 
Q 434 1759 690 2068 
Q 947 2378 1403 2484 
z
M 1172 3481 
Q 1172 3119 1398 2916 
Q 1625 2713 2034 2713 
Q 2441 2713 2670 2916 
Q 2900 3119 2900 3481 
Q 2900 3844 2670 4047 
Q 2441 4250 2034 4250 
Q 1625 4250 1398 4047 
Q 1172 3844 1172 3481 
z
" transform="scale(0.015625)"/>
       </defs>
       <use xlink:href="#DejaVuSans-13"/>
       <use xlink:href="#DejaVuSans-11" transform="translate(63.625 0)"/>
       <use xlink:href="#DejaVuSans-1b" transform="translate(95.40625 0)"/>
      </g>
     </g>
    </g>
    <g id="ytick_13">
     <g id="line2d_36">
      <path d="M 446.303479 47.965711 
L 807.59952 47.965711 
" clip-path="url(#ped819c65f0)" style="fill: none; stroke: #d5d8d4; stroke-opacity: 0.8; stroke-width: 0.7; stroke-linecap: square"/>
     </g>
     <g id="line2d_37">
      <g>
       <use xlink:href="#ma763f90058" x="446.303479" y="47.965711" style="fill: #132238; stroke: #132238; stroke-width: 0.8"/>
      </g>
     </g>
     <g id="text_27">
      <!-- 1.0 -->
      <g style="fill: #132238" transform="translate(425.785823 51.194714) scale(0.085 -0.085)">
       <use xlink:href="#DejaVuSans-14"/>
       <use xlink:href="#DejaVuSans-11" transform="translate(63.625 0)"/>
       <use xlink:href="#DejaVuSans-13" transform="translate(95.40625 0)"/>
      </g>
     </g>
    </g>
    <g id="text_28">
     <!-- normalized weight -->
     <g style="fill: #132238" transform="translate(419.623713 184.017469) rotate(-90) scale(0.09 -0.09)">
      <defs>
       <path id="DejaVuSans-5d" d="M 353 3500 
L 3084 3500 
L 3084 2975 
L 922 459 
L 3084 459 
L 3084 0 
L 275 0 
L 275 525 
L 2438 3041 
L 353 3041 
L 353 3500 
z
" transform="scale(0.015625)"/>
       <path id="DejaVuSans-4b" d="M 3513 2113 
L 3513 0 
L 2938 0 
L 2938 2094 
Q 2938 2591 2744 2837 
Q 2550 3084 2163 3084 
Q 1697 3084 1428 2787 
Q 1159 2491 1159 1978 
L 1159 0 
L 581 0 
L 581 4863 
L 1159 4863 
L 1159 2956 
Q 1366 3272 1645 3428 
Q 1925 3584 2291 3584 
Q 2894 3584 3203 3211 
Q 3513 2838 3513 2113 
z
" transform="scale(0.015625)"/>
      </defs>
      <use xlink:href="#DejaVuSans-51"/>
      <use xlink:href="#DejaVuSans-52" transform="translate(63.375 0)"/>
      <use xlink:href="#DejaVuSans-55" transform="translate(124.5625 0)"/>
      <use xlink:href="#DejaVuSans-50" transform="translate(163.921875 0)"/>
      <use xlink:href="#DejaVuSans-44" transform="translate(261.328125 0)"/>
      <use xlink:href="#DejaVuSans-4f" transform="translate(322.609375 0)"/>
      <use xlink:href="#DejaVuSans-4c" transform="translate(350.390625 0)"/>
      <use xlink:href="#DejaVuSans-5d" transform="translate(378.171875 0)"/>
      <use xlink:href="#DejaVuSans-48" transform="translate(430.65625 0)"/>
      <use xlink:href="#DejaVuSans-47" transform="translate(492.1875 0)"/>
      <use xlink:href="#DejaVuSans-3" transform="translate(555.671875 0)"/>
      <use xlink:href="#DejaVuSans-5a" transform="translate(587.453125 0)"/>
      <use xlink:href="#DejaVuSans-48" transform="translate(669.234375 0)"/>
      <use xlink:href="#DejaVuSans-4c" transform="translate(730.765625 0)"/>
      <use xlink:href="#DejaVuSans-4a" transform="translate(758.546875 0)"/>
      <use xlink:href="#DejaVuSans-4b" transform="translate(822.03125 0)"/>
      <use xlink:href="#DejaVuSans-57" transform="translate(885.40625 0)"/>
     </g>
    </g>
   </g>
   <g id="line2d_38">
    <path d="M 462.726026 236.854375 
L 466.375481 236.854367 
L 470.024936 236.854351 
L 473.674391 236.854323 
L 477.323846 236.854271 
L 480.973301 236.854178 
L 484.622756 236.85401 
L 488.272211 236.853715 
L 491.921666 236.853203 
L 495.571121 236.852327 
L 499.220576 236.850846 
L 502.870031 236.848379 
L 506.519486 236.844326 
L 510.168941 236.837759 
L 513.818396 236.827265 
L 517.467851 236.810727 
L 521.117305 236.785022 
L 524.76676 236.745623 
L 528.416215 236.686065 
L 532.06567 236.597279 
L 535.715125 236.466751 
L 539.36458 236.277514 
L 543.014035 236.006965 
L 546.66349 235.625535 
L 550.312945 235.09526 
L 553.9624 234.368321 
L 557.611855 233.385692 
L 561.26131 232.076013 
L 564.910765 230.35491 
L 568.56022 228.124945 
L 572.209675 225.276428 
L 575.85913 221.689301 
L 579.508585 217.236274 
L 583.15804 211.78729 
L 586.807495 205.21535 
L 590.45695 197.403553 
L 594.106405 188.253082 
L 597.75586 177.691711 
L 601.405315 165.682253 
L 605.05477 152.230287 
L 608.704225 137.390406 
L 612.35368 121.270256 
L 616.003134 104.031701 
L 619.652589 85.888624 
L 623.302044 67.101067 
L 626.951499 47.965711 
L 630.600954 63.671822 
L 634.250409 79.727595 
L 637.899864 95.818405 
L 641.549319 111.643593 
L 645.198774 126.929688 
L 648.848229 141.440981 
L 652.497684 154.986946 
L 656.147139 167.426344 
L 659.796594 178.668062 
L 663.446049 188.66903 
L 667.095504 197.42972 
L 670.744959 204.987862 
L 674.394414 211.411067 
L 678.043869 216.789011 
L 681.693324 221.225778 
L 685.342779 224.832832 
L 688.992234 227.722965 
L 692.641689 230.005404 
L 696.291144 231.782169 
L 699.940599 233.145615 
L 703.590054 234.177065 
L 707.239509 234.946342 
L 710.888964 235.51201 
L 714.538418 235.922119 
L 718.187873 236.215285 
L 721.837328 236.421926 
L 725.486783 236.565548 
L 729.136238 236.663979 
L 732.785693 236.730502 
L 736.435148 236.774836 
L 740.084603 236.803972 
L 743.734058 236.822855 
L 747.383513 236.834924 
L 751.032968 236.842531 
L 754.682423 236.847259 
L 758.331878 236.850158 
L 761.981333 236.85191 
L 765.630788 236.852955 
L 769.280243 236.853569 
L 772.929698 236.853926 
L 776.579153 236.854129 
L 780.228608 236.854244 
L 783.878063 236.854308 
L 787.527518 236.854343 
L 791.176973 236.854362 
" clip-path="url(#ped819c65f0)" style="fill: none; stroke: #c96c3b; stroke-width: 2; stroke-linecap: square"/>
   </g>
   <g id="patch_6">
    <path d="M 446.303479 246.298817 
L 446.303479 38.521277 
" style="fill: none; stroke: #132238; stroke-width: 0.8; stroke-linejoin: miter; stroke-linecap: square"/>
   </g>
   <g id="patch_7">
    <path d="M 446.303479 246.298817 
L 807.59952 246.298817 
" style="fill: none; stroke: #132238; stroke-width: 0.8; stroke-linejoin: miter; stroke-linecap: square"/>
   </g>
   <g id="text_29">
    <!-- Jacobian-consistent relative weight -->
    <g style="fill: #132238" transform="translate(507.282437 32.521277) scale(0.12 -0.12)">
     <defs>
      <path id="DejaVuSans-Bold-2d" d="M 588 4666 
L 1791 4666 
L 1791 453 
Q 1791 -419 1317 -850 
Q 844 -1281 -116 -1281 
L -359 -1281 
L -359 -372 
L -172 -372 
Q 203 -372 395 -162 
Q 588 47 588 453 
L 588 4666 
z
" transform="scale(0.015625)"/>
      <path id="DejaVuSans-Bold-44" d="M 2106 1575 
Q 1756 1575 1579 1456 
Q 1403 1338 1403 1106 
Q 1403 894 1545 773 
Q 1688 653 1941 653 
Q 2256 653 2472 879 
Q 2688 1106 2688 1447 
L 2688 1575 
L 2106 1575 
z
M 3816 1997 
L 3816 0 
L 2688 0 
L 2688 519 
Q 2463 200 2181 54 
Q 1900 -91 1497 -91 
Q 953 -91 614 226 
Q 275 544 275 1050 
Q 275 1666 698 1953 
Q 1122 2241 2028 2241 
L 2688 2241 
L 2688 2328 
Q 2688 2594 2478 2717 
Q 2269 2841 1825 2841 
Q 1466 2841 1156 2769 
Q 847 2697 581 2553 
L 581 3406 
Q 941 3494 1303 3539 
Q 1666 3584 2028 3584 
Q 2975 3584 3395 3211 
Q 3816 2838 3816 1997 
z
" transform="scale(0.015625)"/>
      <path id="DejaVuSans-Bold-52" d="M 2203 2784 
Q 1831 2784 1636 2517 
Q 1441 2250 1441 1747 
Q 1441 1244 1636 976 
Q 1831 709 2203 709 
Q 2569 709 2762 976 
Q 2956 1244 2956 1747 
Q 2956 2250 2762 2517 
Q 2569 2784 2203 2784 
z
M 2203 3584 
Q 3106 3584 3614 3096 
Q 4122 2609 4122 1747 
Q 4122 884 3614 396 
Q 3106 -91 2203 -91 
Q 1297 -91 786 396 
Q 275 884 275 1747 
Q 275 2609 786 3096 
Q 1297 3584 2203 3584 
z
" transform="scale(0.015625)"/>
      <path id="DejaVuSans-Bold-45" d="M 2400 722 
Q 2759 722 2948 984 
Q 3138 1247 3138 1747 
Q 3138 2247 2948 2509 
Q 2759 2772 2400 2772 
Q 2041 2772 1848 2508 
Q 1656 2244 1656 1747 
Q 1656 1250 1848 986 
Q 2041 722 2400 722 
z
M 1656 2988 
Q 1888 3294 2169 3439 
Q 2450 3584 2816 3584 
Q 3463 3584 3878 3070 
Q 4294 2556 4294 1747 
Q 4294 938 3878 423 
Q 3463 -91 2816 -91 
Q 2450 -91 2169 54 
Q 1888 200 1656 506 
L 1656 0 
L 538 0 
L 538 4863 
L 1656 4863 
L 1656 2988 
z
" transform="scale(0.015625)"/>
      <path id="DejaVuSans-Bold-10" d="M 347 2297 
L 2309 2297 
L 2309 1388 
L 347 1388 
L 347 2297 
z
" transform="scale(0.015625)"/>
      <path id="DejaVuSans-Bold-4f" d="M 538 4863 
L 1656 4863 
L 1656 0 
L 538 0 
L 538 4863 
z
" transform="scale(0.015625)"/>
      <path id="DejaVuSans-Bold-5a" d="M 225 3500 
L 1313 3500 
L 1900 1088 
L 2491 3500 
L 3425 3500 
L 4013 1113 
L 4603 3500 
L 5691 3500 
L 4769 0 
L 3547 0 
L 2956 2406 
L 2369 0 
L 1147 0 
L 225 3500 
z
" transform="scale(0.015625)"/>
      <path id="DejaVuSans-Bold-4a" d="M 2919 594 
Q 2688 288 2409 144 
Q 2131 0 1766 0 
Q 1125 0 706 504 
Q 288 1009 288 1791 
Q 288 2575 706 3076 
Q 1125 3578 1766 3578 
Q 2131 3578 2409 3434 
Q 2688 3291 2919 2981 
L 2919 3500 
L 4044 3500 
L 4044 353 
Q 4044 -491 3511 -936 
Q 2978 -1381 1966 -1381 
Q 1638 -1381 1331 -1331 
Q 1025 -1281 716 -1178 
L 716 -306 
Q 1009 -475 1290 -558 
Q 1572 -641 1856 -641 
Q 2406 -641 2662 -400 
Q 2919 -159 2919 353 
L 2919 594 
z
M 2181 2772 
Q 1834 2772 1640 2515 
Q 1447 2259 1447 1791 
Q 1447 1309 1634 1061 
Q 1822 813 2181 813 
Q 2531 813 2725 1069 
Q 2919 1325 2919 1791 
Q 2919 2259 2725 2515 
Q 2531 2772 2181 2772 
z
" transform="scale(0.015625)"/>
      <path id="DejaVuSans-Bold-4b" d="M 4056 2131 
L 4056 0 
L 2931 0 
L 2931 347 
L 2931 1625 
Q 2931 2084 2911 2256 
Q 2891 2428 2841 2509 
Q 2775 2619 2662 2680 
Q 2550 2741 2406 2741 
Q 2056 2741 1856 2470 
Q 1656 2200 1656 1722 
L 1656 0 
L 538 0 
L 538 4863 
L 1656 4863 
L 1656 2988 
Q 1909 3294 2193 3439 
Q 2478 3584 2822 3584 
Q 3428 3584 3742 3212 
Q 4056 2841 4056 2131 
z
" transform="scale(0.015625)"/>
     </defs>
     <use xlink:href="#DejaVuSans-Bold-2d"/>
     <use xlink:href="#DejaVuSans-Bold-44" transform="translate(37.203125 0)"/>
     <use xlink:href="#DejaVuSans-Bold-46" transform="translate(104.6875 0)"/>
     <use xlink:href="#DejaVuSans-Bold-52" transform="translate(163.96875 0)"/>
     <use xlink:href="#DejaVuSans-Bold-45" transform="translate(232.671875 0)"/>
     <use xlink:href="#DejaVuSans-Bold-4c" transform="translate(304.25 0)"/>
     <use xlink:href="#DejaVuSans-Bold-44" transform="translate(338.53125 0)"/>
     <use xlink:href="#DejaVuSans-Bold-51" transform="translate(406.015625 0)"/>
     <use xlink:href="#DejaVuSans-Bold-10" transform="translate(477.203125 0)"/>
     <use xlink:href="#DejaVuSans-Bold-46" transform="translate(518.703125 0)"/>
     <use xlink:href="#DejaVuSans-Bold-52" transform="translate(577.984375 0)"/>
     <use xlink:href="#DejaVuSans-Bold-51" transform="translate(646.6875 0)"/>
     <use xlink:href="#DejaVuSans-Bold-56" transform="translate(717.875 0)"/>
     <use xlink:href="#DejaVuSans-Bold-4c" transform="translate(777.390625 0)"/>
     <use xlink:href="#DejaVuSans-Bold-56" transform="translate(811.671875 0)"/>
     <use xlink:href="#DejaVuSans-Bold-57" transform="translate(871.1875 0)"/>
     <use xlink:href="#DejaVuSans-Bold-48" transform="translate(918.984375 0)"/>
     <use xlink:href="#DejaVuSans-Bold-51" transform="translate(986.8125 0)"/>
     <use xlink:href="#DejaVuSans-Bold-57" transform="translate(1058 0)"/>
     <use xlink:href="#DejaVuSans-Bold-3" transform="translate(1105.796875 0)"/>
     <use xlink:href="#DejaVuSans-Bold-55" transform="translate(1140.609375 0)"/>
     <use xlink:href="#DejaVuSans-Bold-48" transform="translate(1189.921875 0)"/>
     <use xlink:href="#DejaVuSans-Bold-4f" transform="translate(1257.75 0)"/>
     <use xlink:href="#DejaVuSans-Bold-44" transform="translate(1292.03125 0)"/>
     <use xlink:href="#DejaVuSans-Bold-57" transform="translate(1359.515625 0)"/>
     <use xlink:href="#DejaVuSans-Bold-4c" transform="translate(1407.3125 0)"/>
     <use xlink:href="#DejaVuSans-Bold-59" transform="translate(1441.59375 0)"/>
     <use xlink:href="#DejaVuSans-Bold-48" transform="translate(1506.78125 0)"/>
     <use xlink:href="#DejaVuSans-Bold-3" transform="translate(1574.609375 0)"/>
     <use xlink:href="#DejaVuSans-Bold-5a" transform="translate(1609.421875 0)"/>
     <use xlink:href="#DejaVuSans-Bold-48" transform="translate(1701.8125 0)"/>
     <use xlink:href="#DejaVuSans-Bold-4c" transform="translate(1769.640625 0)"/>
     <use xlink:href="#DejaVuSans-Bold-4a" transform="translate(1803.921875 0)"/>
     <use xlink:href="#DejaVuSans-Bold-4b" transform="translate(1875.5 0)"/>
     <use xlink:href="#DejaVuSans-Bold-57" transform="translate(1946.6875 0)"/>
    </g>
   </g>
  </g>
  <g id="text_30">
   <!-- Price-space geometry of a total-variance objective -->
   <g transform="translate(12.26376 14.950406) scale(0.102 -0.102)">
    <defs>
     <path id="DejaVuSans-Bold-53" d="M 1656 506 
L 1656 -1331 
L 538 -1331 
L 538 3500 
L 1656 3500 
L 1656 2988 
Q 1888 3294 2169 3439 
Q 2450 3584 2816 3584 
Q 3463 3584 3878 3070 
Q 4294 2556 4294 1747 
Q 4294 938 3878 423 
Q 3463 -91 2816 -91 
Q 2450 -91 2169 54 
Q 1888 200 1656 506 
z
M 2400 2772 
Q 2041 2772 1848 2508 
Q 1656 2244 1656 1747 
Q 1656 1250 1848 986 
Q 2041 722 2400 722 
Q 2759 722 2948 984 
Q 3138 1247 3138 1747 
Q 3138 2247 2948 2509 
Q 2759 2772 2400 2772 
z
" transform="scale(0.015625)"/>
     <path id="DejaVuSans-Bold-50" d="M 3781 2919 
Q 3994 3244 4286 3414 
Q 4578 3584 4928 3584 
Q 5531 3584 5847 3212 
Q 6163 2841 6163 2131 
L 6163 0 
L 5038 0 
L 5038 1825 
Q 5041 1866 5042 1909 
Q 5044 1953 5044 2034 
Q 5044 2406 4934 2573 
Q 4825 2741 4581 2741 
Q 4263 2741 4089 2478 
Q 3916 2216 3909 1719 
L 3909 0 
L 2784 0 
L 2784 1825 
Q 2784 2406 2684 2573 
Q 2584 2741 2328 2741 
Q 2006 2741 1831 2477 
Q 1656 2213 1656 1722 
L 1656 0 
L 531 0 
L 531 3500 
L 1656 3500 
L 1656 2988 
Q 1863 3284 2130 3434 
Q 2397 3584 2719 3584 
Q 3081 3584 3359 3409 
Q 3638 3234 3781 2919 
z
" transform="scale(0.015625)"/>
     <path id="DejaVuSans-Bold-49" d="M 2841 4863 
L 2841 4128 
L 2222 4128 
Q 1984 4128 1890 4042 
Q 1797 3956 1797 3744 
L 1797 3500 
L 2753 3500 
L 2753 2700 
L 1797 2700 
L 1797 0 
L 678 0 
L 678 2700 
L 122 2700 
L 122 3500 
L 678 3500 
L 678 3744 
Q 678 4316 997 4589 
Q 1316 4863 1984 4863 
L 2841 4863 
z
" transform="scale(0.015625)"/>
     <path id="DejaVuSans-Bold-4d" d="M 538 3500 
L 1656 3500 
L 1656 63 
Q 1656 -641 1318 -1011 
Q 981 -1381 341 -1381 
L -213 -1381 
L -213 -647 
L -19 -647 
Q 300 -647 419 -503 
Q 538 -359 538 63 
L 538 3500 
z
M 538 4863 
L 1656 4863 
L 1656 3950 
L 538 3950 
L 538 4863 
z
" transform="scale(0.015625)"/>
    </defs>
    <use xlink:href="#DejaVuSans-Bold-33"/>
    <use xlink:href="#DejaVuSans-Bold-55" transform="translate(73.296875 0)"/>
    <use xlink:href="#DejaVuSans-Bold-4c" transform="translate(122.609375 0)"/>
    <use xlink:href="#DejaVuSans-Bold-46" transform="translate(156.890625 0)"/>
    <use xlink:href="#DejaVuSans-Bold-48" transform="translate(216.171875 0)"/>
    <use xlink:href="#DejaVuSans-Bold-10" transform="translate(284 0)"/>
    <use xlink:href="#DejaVuSans-Bold-56" transform="translate(325.5 0)"/>
    <use xlink:href="#DejaVuSans-Bold-53" transform="translate(385.015625 0)"/>
    <use xlink:href="#DejaVuSans-Bold-44" transform="translate(456.59375 0)"/>
    <use xlink:href="#DejaVuSans-Bold-46" transform="translate(524.078125 0)"/>
    <use xlink:href="#DejaVuSans-Bold-48" transform="translate(583.359375 0)"/>
    <use xlink:href="#DejaVuSans-Bold-3" transform="translate(651.1875 0)"/>
    <use xlink:href="#DejaVuSans-Bold-4a" transform="translate(686 0)"/>
    <use xlink:href="#DejaVuSans-Bold-48" transform="translate(757.578125 0)"/>
    <use xlink:href="#DejaVuSans-Bold-52" transform="translate(825.40625 0)"/>
    <use xlink:href="#DejaVuSans-Bold-50" transform="translate(894.109375 0)"/>
    <use xlink:href="#DejaVuSans-Bold-48" transform="translate(998.3125 0)"/>
    <use xlink:href="#DejaVuSans-Bold-57" transform="translate(1066.140625 0)"/>
    <use xlink:href="#DejaVuSans-Bold-55" transform="translate(1113.9375 0)"/>
    <use xlink:href="#DejaVuSans-Bold-5c" transform="translate(1163.25 0)"/>
    <use xlink:href="#DejaVuSans-Bold-3" transform="translate(1228.4375 0)"/>
    <use xlink:href="#DejaVuSans-Bold-52" transform="translate(1263.25 0)"/>
    <use xlink:href="#DejaVuSans-Bold-49" transform="translate(1331.953125 0)"/>
    <use xlink:href="#DejaVuSans-Bold-3" transform="translate(1375.453125 0)"/>
    <use xlink:href="#DejaVuSans-Bold-44" transform="translate(1410.265625 0)"/>
    <use xlink:href="#DejaVuSans-Bold-3" transform="translate(1477.75 0)"/>
    <use xlink:href="#DejaVuSans-Bold-57" transform="translate(1512.5625 0)"/>
    <use xlink:href="#DejaVuSans-Bold-52" transform="translate(1560.359375 0)"/>
    <use xlink:href="#DejaVuSans-Bold-57" transform="translate(1629.0625 0)"/>
    <use xlink:href="#DejaVuSans-Bold-44" transform="translate(1676.859375 0)"/>
    <use xlink:href="#DejaVuSans-Bold-4f" transform="translate(1744.34375 0)"/>
    <use xlink:href="#DejaVuSans-Bold-10" transform="translate(1778.625 0)"/>
    <use xlink:href="#DejaVuSans-Bold-59" transform="translate(1820.125 0)"/>
    <use xlink:href="#DejaVuSans-Bold-44" transform="translate(1885.3125 0)"/>
    <use xlink:href="#DejaVuSans-Bold-55" transform="translate(1952.796875 0)"/>
    <use xlink:href="#DejaVuSans-Bold-4c" transform="translate(2002.109375 0)"/>
    <use xlink:href="#DejaVuSans-Bold-44" transform="translate(2036.390625 0)"/>
    <use xlink:href="#DejaVuSans-Bold-51" transform="translate(2103.875 0)"/>
    <use xlink:href="#DejaVuSans-Bold-46" transform="translate(2175.0625 0)"/>
    <use xlink:href="#DejaVuSans-Bold-48" transform="translate(2234.34375 0)"/>
    <use xlink:href="#DejaVuSans-Bold-3" transform="translate(2302.171875 0)"/>
    <use xlink:href="#DejaVuSans-Bold-52" transform="translate(2336.984375 0)"/>
    <use xlink:href="#DejaVuSans-Bold-45" transform="translate(2405.6875 0)"/>
    <use xlink:href="#DejaVuSans-Bold-4d" transform="translate(2477.265625 0)"/>
    <use xlink:href="#DejaVuSans-Bold-48" transform="translate(2511.546875 0)"/>
    <use xlink:href="#DejaVuSans-Bold-46" transform="translate(2579.375 0)"/>
    <use xlink:href="#DejaVuSans-Bold-57" transform="translate(2638.65625 0)"/>
    <use xlink:href="#DejaVuSans-Bold-4c" transform="translate(2686.453125 0)"/>
    <use xlink:href="#DejaVuSans-Bold-59" transform="translate(2720.734375 0)"/>
    <use xlink:href="#DejaVuSans-Bold-48" transform="translate(2785.921875 0)"/>
   </g>
  </g>
 </g>
 <defs>
  <clipPath id="p3f3bcd8a27">
   <rect x="43.425078" y="38.521277" width="361.296041" height="207.77754"/>
  </clipPath>
  <clipPath id="ped819c65f0">
   <rect x="446.303479" y="38.521277" width="361.296041" height="207.77754"/>
  </clipPath>
 </defs>
</svg>
