<?xml version="1.0" encoding="utf-8" standalone="no"?>
<!DOCTYPE svg PUBLIC "-//W3C//DTD SVG 1.1//EN"
  "http://www.w3.org/Graphics/SVG/1.1/DTD/svg11.dtd">
<svg xmlns:xlink="http://www.w3.org/1999/xlink" width="639.36pt" height="290.542125pt" viewBox="0 0 639.36 290.542125" xmlns="http://www.w3.org/2000/svg" version="1.1">
 <metadata>
  <rdf:RDF xmlns:dc="http://purl.org/dc/elements/1.1/" xmlns:cc="http://creativecommons.org/ns#" xmlns:rdf="http://www.w3.org/1999/02/22-rdf-syntax-ns#">
   <cc:Work>
    <dc:type rdf:resource="http://purl.org/dc/dcmitype/StillImage"/>
    <dc:format>image/svg+xml</dc:format>
    <dc:creator>
     <cc:Agent>
      <dc:title>VolSurf-Pricer evidence builder</dc:title>
     </cc:Agent>
    </dc:creator>
   </cc:Work>
  </rdf:RDF>
 </metadata>
 <defs>
  <style type="text/css">*{stroke-linejoin: round; stroke-linecap: butt}</style>
 </defs>
 <g id="figure_1">
  <g id="patch_1">
   <path d="M 0 290.542125 
L 639.36 290.542125 
L 639.36 0 
L 0 0 
z
" style="fill: #f7f3ea"/>
  </g>
  <g id="axes_1">
   <g id="table_1">
    <g id="patch_2">
     <path d="M 25.9488 106.330125 
L 150.9408 106.330125 
L 150.9408 86.530125 
L 25.9488 86.530125 
z
" style="fill: #244a64; stroke: #f7f3ea; stroke-linejoin: miter"/>
    </g>
    <g id="text_1">
     <!-- Family -->
     <g style="fill: #ffffff" transform="translate(38.448 98.508563) scale(0.08 -0.08)">
      <defs>
       <path id="DejaVuSans-Bold-29" d="M 588 4666 
L 3834 4666 
L 3834 3756 
L 1791 3756 
L 1791 2888 
L 3713 2888 
L 3713 1978 
L 1791 1978 
L 1791 0 
L 588 0 
L 588 4666 
z
" transform="scale(0.015625)"/>
       <path id="DejaVuSans-Bold-44" d="M 2106 1575 
Q 1756 1575 1579 1456 
Q 1403 1338 1403 1106 
Q 1403 894 1545 773 
Q 1688 653 1941 653 
Q 2256 653 2472 879 
Q 2688 1106 2688 1447 
L 2688 1575 
L 2106 1575 
z
M 3816 1997 
L 3816 0 
L 2688 0 
L 2688 519 
Q 2463 200 2181 54 
Q 1900 -91 1497 -91 
Q 953 -91 614 226 
Q 275 544 275 1050 
Q 275 1666 698 1953 
Q 1122 2241 2028 2241 
L 2688 2241 
L 2688 2328 
Q 2688 2594 2478 2717 
Q 2269 2841 1825 2841 
Q 1466 2841 1156 2769 
Q 847 2697 581 2553 
L 581 3406 
Q 941 3494 1303 3539 
Q 1666 3584 2028 3584 
Q 2975 3584 3395 3211 
Q 3816 2838 3816 1997 
z
" transform="scale(0.015625)"/>
       <path id="DejaVuSans-Bold-50" d="M 3781 2919 
Q 3994 3244 4286 3414 
Q 4578 3584 4928 3584 
Q 5531 3584 5847 3212 
Q 6163 2841 6163 2131 
L 6163 0 
L 5038 0 
L 5038 1825 
Q 5041 1866 5042 1909 
Q 5044 1953 5044 2034 
Q 5044 2406 4934 2573 
Q 4825 2741 4581 2741 
Q 4263 2741 4089 2478 
Q 3916 2216 3909 1719 
L 3909 0 
L 2784 0 
L 2784 1825 
Q 2784 2406 2684 2573 
Q 2584 2741 2328 2741 
Q 2006 2741 1831 2477 
Q 1656 2213 1656 1722 
L 1656 0 
L 531 0 
L 531 3500 
L 1656 3500 
L 1656 2988 
Q 1863 3284 2130 3434 
Q 2397 3584 2719 3584 
Q 3081 3584 3359 3409 
Q 3638 3234 3781 2919 
z
" transform="scale(0.015625)"/>
       <path id="DejaVuSans-Bold-4c" d="M 538 3500 
L 1656 3500 
L 1656 0 
L 538 0 
L 538 3500 
z
M 538 4863 
L 1656 4863 
L 1656 3950 
L 538 3950 
L 538 4863 
z
" transform="scale(0.015625)"/>
       <path id="DejaVuSans-Bold-4f" d="M 538 4863 
L 1656 4863 
L 1656 0 
L 538 0 
L 538 4863 
z
" transform="scale(0.015625)"/>
       <path id="DejaVuSans-Bold-5c" d="M 78 3500 
L 1197 3500 
L 2138 1125 
L 2938 3500 
L 4056 3500 
L 2584 -331 
Q 2363 -916 2067 -1148 
Q 1772 -1381 1288 -1381 
L 641 -1381 
L 641 -647 
L 991 -647 
Q 1275 -647 1404 -556 
Q 1534 -466 1606 -231 
L 1638 -134 
L 78 3500 
z
" transform="scale(0.015625)"/>
      </defs>
      <use xlink:href="#DejaVuSans-Bold-29"/>
      <use xlink:href="#DejaVuSans-Bold-44" transform="translate(62.453125 0)"/>
      <use xlink:href="#DejaVuSans-Bold-50" transform="translate(129.9375 0)"/>
      <use xlink:href="#DejaVuSans-Bold-4c" transform="translate(234.140625 0)"/>
      <use xlink:href="#DejaVuSans-Bold-4f" transform="translate(268.421875 0)"/>
      <use xlink:href="#DejaVuSans-Bold-5c" transform="translate(302.703125 0)"/>
     </g>
    </g>
    <g id="patch_3">
     <path d="M 150.9408 106.330125 
L 207.1872 106.330125 
L 207.1872 86.530125 
L 150.9408 86.530125 
z
" style="fill: #244a64; stroke: #f7f3ea; stroke-linejoin: miter"/>
    </g>
    <g id="text_2">
     <!-- Settle -->
     <g style="fill: #ffffff" transform="translate(156.56544 98.508563) scale(0.08 -0.08)">
      <defs>
       <path id="DejaVuSans-Bold-36" d="M 3834 4519 
L 3834 3531 
Q 3450 3703 3084 3790 
Q 2719 3878 2394 3878 
Q 1963 3878 1756 3759 
Q 1550 3641 1550 3391 
Q 1550 3203 1689 3098 
Q 1828 2994 2194 2919 
L 2706 2816 
Q 3484 2659 3812 2340 
Q 4141 2022 4141 1434 
Q 4141 663 3683 286 
Q 3225 -91 2284 -91 
Q 1841 -91 1394 -6 
Q 947 78 500 244 
L 500 1259 
Q 947 1022 1364 901 
Q 1781 781 2169 781 
Q 2563 781 2772 912 
Q 2981 1044 2981 1288 
Q 2981 1506 2839 1625 
Q 2697 1744 2272 1838 
L 1806 1941 
Q 1106 2091 782 2419 
Q 459 2747 459 3303 
Q 459 4000 909 4375 
Q 1359 4750 2203 4750 
Q 2588 4750 2994 4692 
Q 3400 4634 3834 4519 
z
" transform="scale(0.015625)"/>
       <path id="DejaVuSans-Bold-48" d="M 4031 1759 
L 4031 1441 
L 1416 1441 
Q 1456 1047 1700 850 
Q 1944 653 2381 653 
Q 2734 653 3104 758 
Q 3475 863 3866 1075 
L 3866 213 
Q 3469 63 3072 -14 
Q 2675 -91 2278 -91 
Q 1328 -91 801 392 
Q 275 875 275 1747 
Q 275 2603 792 3093 
Q 1309 3584 2216 3584 
Q 3041 3584 3536 3087 
Q 4031 2591 4031 1759 
z
M 2881 2131 
Q 2881 2450 2695 2645 
Q 2509 2841 2209 2841 
Q 1884 2841 1681 2658 
Q 1478 2475 1428 2131 
L 2881 2131 
z
" transform="scale(0.015625)"/>
       <path id="DejaVuSans-Bold-57" d="M 1759 4494 
L 1759 3500 
L 2913 3500 
L 2913 2700 
L 1759 2700 
L 1759 1216 
Q 1759 972 1856 886 
Q 1953 800 2241 800 
L 2816 800 
L 2816 0 
L 1856 0 
Q 1194 0 917 276 
Q 641 553 641 1216 
L 641 2700 
L 84 2700 
L 84 3500 
L 641 3500 
L 641 4494 
L 1759 4494 
z
" transform="scale(0.015625)"/>
      </defs>
      <use xlink:href="#DejaVuSans-Bold-36"/>
      <use xlink:href="#DejaVuSans-Bold-48" transform="translate(72.015625 0)"/>
      <use xlink:href="#DejaVuSans-Bold-57" transform="translate(139.84375 0)"/>
      <use xlink:href="#DejaVuSans-Bold-57" transform="translate(187.640625 0)"/>
      <use xlink:href="#DejaVuSans-Bold-4f" transform="translate(235.4375 0)"/>
      <use xlink:href="#DejaVuSans-Bold-48" transform="translate(269.71875 0)"/>
     </g>
    </g>
    <g id="patch_4">
     <path d="M 207.1872 106.330125 
L 307.1808 106.330125 
L 307.1808 86.530125 
L 207.1872 86.530125 
z
" style="fill: #244a64; stroke: #f7f3ea; stroke-linejoin: miter"/>
    </g>
    <g id="text_3">
     <!-- Root -->
     <g style="fill: #ffffff" transform="translate(217.18656 98.50825) scale(0.08 -0.08)">
      <defs>
       <path id="DejaVuSans-Bold-35" d="M 2297 2597 
Q 2675 2597 2839 2737 
Q 3003 2878 3003 3200 
Q 3003 3519 2839 3656 
Q 2675 3794 2297 3794 
L 1791 3794 
L 1791 2597 
L 2297 2597 
z
M 1791 1766 
L 1791 0 
L 588 0 
L 588 4666 
L 2425 4666 
Q 3347 4666 3776 4356 
Q 4206 4047 4206 3378 
Q 4206 2916 3982 2619 
Q 3759 2322 3309 2181 
Q 3556 2125 3751 1926 
Q 3947 1728 4147 1325 
L 4800 0 
L 3519 0 
L 2950 1159 
Q 2778 1509 2601 1637 
Q 2425 1766 2131 1766 
L 1791 1766 
z
" transform="scale(0.015625)"/>
       <path id="DejaVuSans-Bold-52" d="M 2203 2784 
Q 1831 2784 1636 2517 
Q 1441 2250 1441 1747 
Q 1441 1244 1636 976 
Q 1831 709 2203 709 
Q 2569 709 2762 976 
Q 2956 1244 2956 1747 
Q 2956 2250 2762 2517 
Q 2569 2784 2203 2784 
z
M 2203 3584 
Q 3106 3584 3614 3096 
Q 4122 2609 4122 1747 
Q 4122 884 3614 396 
Q 3106 -91 2203 -91 
Q 1297 -91 786 396 
Q 275 884 275 1747 
Q 275 2609 786 3096 
Q 1297 3584 2203 3584 
z
" transform="scale(0.015625)"/>
      </defs>
      <use xlink:href="#DejaVuSans-Bold-35"/>
      <use xlink:href="#DejaVuSans-Bold-52" transform="translate(77 0)"/>
      <use xlink:href="#DejaVuSans-Bold-52" transform="translate(145.703125 0)"/>
      <use xlink:href="#DejaVuSans-Bold-57" transform="translate(214.40625 0)"/>
     </g>
    </g>
    <g id="patch_5">
     <path d="M 307.1808 106.330125 
L 432.1728 106.330125 
L 432.1728 86.530125 
L 307.1808 86.530125 
z
" style="fill: #244a64; stroke: #f7f3ea; stroke-linejoin: miter"/>
    </g>
    <g id="text_4">
     <!-- Expiry archetype -->
     <g style="fill: #ffffff" transform="translate(319.68 98.508563) scale(0.08 -0.08)">
      <defs>
       <path id="DejaVuSans-Bold-28" d="M 588 4666 
L 3834 4666 
L 3834 3756 
L 1791 3756 
L 1791 2888 
L 3713 2888 
L 3713 1978 
L 1791 1978 
L 1791 909 
L 3903 909 
L 3903 0 
L 588 0 
L 588 4666 
z
" transform="scale(0.015625)"/>
       <path id="DejaVuSans-Bold-5b" d="M 1422 1791 
L 159 3500 
L 1344 3500 
L 2059 2463 
L 2784 3500 
L 3969 3500 
L 2706 1797 
L 4031 0 
L 2847 0 
L 2059 1106 
L 1281 0 
L 97 0 
L 1422 1791 
z
" transform="scale(0.015625)"/>
       <path id="DejaVuSans-Bold-53" d="M 1656 506 
L 1656 -1331 
L 538 -1331 
L 538 3500 
L 1656 3500 
L 1656 2988 
Q 1888 3294 2169 3439 
Q 2450 3584 2816 3584 
Q 3463 3584 3878 3070 
Q 4294 2556 4294 1747 
Q 4294 938 3878 423 
Q 3463 -91 2816 -91 
Q 2450 -91 2169 54 
Q 1888 200 1656 506 
z
M 2400 2772 
Q 2041 2772 1848 2508 
Q 1656 2244 1656 1747 
Q 1656 1250 1848 986 
Q 2041 722 2400 722 
Q 2759 722 2948 984 
Q 3138 1247 3138 1747 
Q 3138 2247 2948 2509 
Q 2759 2772 2400 2772 
z
" transform="scale(0.015625)"/>
       <path id="DejaVuSans-Bold-55" d="M 3138 2547 
Q 2991 2616 2845 2648 
Q 2700 2681 2553 2681 
Q 2122 2681 1889 2404 
Q 1656 2128 1656 1613 
L 1656 0 
L 538 0 
L 538 3500 
L 1656 3500 
L 1656 2925 
Q 1872 3269 2151 3426 
Q 2431 3584 2822 3584 
Q 2878 3584 2943 3579 
Q 3009 3575 3134 3559 
L 3138 2547 
z
" transform="scale(0.015625)"/>
       <path id="DejaVuSans-Bold-3" transform="scale(0.015625)"/>
       <path id="DejaVuSans-Bold-46" d="M 3366 3391 
L 3366 2478 
Q 3138 2634 2908 2709 
Q 2678 2784 2431 2784 
Q 1963 2784 1702 2511 
Q 1441 2238 1441 1747 
Q 1441 1256 1702 982 
Q 1963 709 2431 709 
Q 2694 709 2930 787 
Q 3166 866 3366 1019 
L 3366 103 
Q 3103 6 2833 -42 
Q 2563 -91 2291 -91 
Q 1344 -91 809 395 
Q 275 881 275 1747 
Q 275 2613 809 3098 
Q 1344 3584 2291 3584 
Q 2566 3584 2833 3536 
Q 3100 3488 3366 3391 
z
" transform="scale(0.015625)"/>
       <path id="DejaVuSans-Bold-4b" d="M 4056 2131 
L 4056 0 
L 2931 0 
L 2931 347 
L 2931 1625 
Q 2931 2084 2911 2256 
Q 2891 2428 2841 2509 
Q 2775 2619 2662 2680 
Q 2550 2741 2406 2741 
Q 2056 2741 1856 2470 
Q 1656 2200 1656 1722 
L 1656 0 
L 538 0 
L 538 4863 
L 1656 4863 
L 1656 2988 
Q 1909 3294 2193 3439 
Q 2478 3584 2822 3584 
Q 3428 3584 3742 3212 
Q 4056 2841 4056 2131 
z
" transform="scale(0.015625)"/>
      </defs>
      <use xlink:href="#DejaVuSans-Bold-28"/>
      <use xlink:href="#DejaVuSans-Bold-5b" transform="translate(68.3125 0)"/>
      <use xlink:href="#DejaVuSans-Bold-53" transform="translate(132.8125 0)"/>
      <use xlink:href="#DejaVuSans-Bold-4c" transform="translate(204.390625 0)"/>
      <use xlink:href="#DejaVuSans-Bold-55" transform="translate(238.671875 0)"/>
      <use xlink:href="#DejaVuSans-Bold-5c" transform="translate(287.984375 0)"/>
      <use xlink:href="#DejaVuSans-Bold-3" transform="translate(353.171875 0)"/>
      <use xlink:href="#DejaVuSans-Bold-44" transform="translate(387.984375 0)"/>
      <use xlink:href="#DejaVuSans-Bold-55" transform="translate(455.46875 0)"/>
      <use xlink:href="#DejaVuSans-Bold-46" transform="translate(504.78125 0)"/>
      <use xlink:href="#DejaVuSans-Bold-4b" transform="translate(564.0625 0)"/>
      <use xlink:href="#DejaVuSans-Bold-48" transform="translate(635.25 0)"/>
      <use xlink:href="#DejaVuSans-Bold-57" transform="translate(703.078125 0)"/>
      <use xlink:href="#DejaVuSans-Bold-5c" transform="translate(750.875 0)"/>
      <use xlink:href="#DejaVuSans-Bold-53" transform="translate(816.0625 0)"/>
      <use xlink:href="#DejaVuSans-Bold-48" transform="translate(887.640625 0)"/>
     </g>
    </g>
    <g id="patch_6">
     <path d="M 432.1728 106.330125 
L 613.4112 106.330125 
L 613.4112 86.530125 
L 432.1728 86.530125 
z
" style="fill: #244a64; stroke: #f7f3ea; stroke-linejoin: miter"/>
    </g>
    <g id="text_5">
     <!-- Policy -->
     <g style="fill: #ffffff" transform="translate(450.29664 98.508563) scale(0.08 -0.08)">
      <defs>
       <path id="DejaVuSans-Bold-33" d="M 588 4666 
L 2584 4666 
Q 3475 4666 3951 4270 
Q 4428 3875 4428 3144 
Q 4428 2409 3951 2014 
Q 3475 1619 2584 1619 
L 1791 1619 
L 1791 0 
L 588 0 
L 588 4666 
z
M 1791 3794 
L 1791 2491 
L 2456 2491 
Q 2806 2491 2997 2661 
Q 3188 2831 3188 3144 
Q 3188 3456 2997 3625 
Q 2806 3794 2456 3794 
L 1791 3794 
z
" transform="scale(0.015625)"/>
      </defs>
      <use xlink:href="#DejaVuSans-Bold-33"/>
      <use xlink:href="#DejaVuSans-Bold-52" transform="translate(73.296875 0)"/>
      <use xlink:href="#DejaVuSans-Bold-4f" transform="translate(142 0)"/>
      <use xlink:href="#DejaVuSans-Bold-4c" transform="translate(176.28125 0)"/>
      <use xlink:href="#DejaVuSans-Bold-46" transform="translate(210.5625 0)"/>
      <use xlink:href="#DejaVuSans-Bold-5c" transform="translate(269.84375 0)"/>
     </g>
    </g>
    <g id="patch_7">
     <path d="M 25.9488 126.130125 
L 150.9408 126.130125 
L 150.9408 106.330125 
L 25.9488 106.330125 
z
" style="fill: #dce8e7; stroke: #f7f3ea; stroke-linejoin: miter"/>
    </g>
    <g id="text_6">
     <!-- monthly_am_standard -->
     <g transform="translate(38.448 118.308563) scale(0.08 -0.08)">
      <defs>
       <path id="DejaVuSans-50" d="M 3328 2828 
Q 3544 3216 3844 3400 
Q 4144 3584 4550 3584 
Q 5097 3584 5394 3201 
Q 5691 2819 5691 2113 
L 5691 0 
L 5113 0 
L 5113 2094 
Q 5113 2597 4934 2840 
Q 4756 3084 4391 3084 
Q 3944 3084 3684 2787 
Q 3425 2491 3425 1978 
L 3425 0 
L 2847 0 
L 2847 2094 
Q 2847 2600 2669 2842 
Q 2491 3084 2119 3084 
Q 1678 3084 1418 2786 
Q 1159 2488 1159 1978 
L 1159 0 
L 581 0 
L 581 3500 
L 1159 3500 
L 1159 2956 
Q 1356 3278 1631 3431 
Q 1906 3584 2284 3584 
Q 2666 3584 2933 3390 
Q 3200 3197 3328 2828 
z
" transform="scale(0.015625)"/>
       <path id="DejaVuSans-52" d="M 1959 3097 
Q 1497 3097 1228 2736 
Q 959 2375 959 1747 
Q 959 1119 1226 758 
Q 1494 397 1959 397 
Q 2419 397 2687 759 
Q 2956 1122 2956 1747 
Q 2956 2369 2687 2733 
Q 2419 3097 1959 3097 
z
M 1959 3584 
Q 2709 3584 3137 3096 
Q 3566 2609 3566 1747 
Q 3566 888 3137 398 
Q 2709 -91 1959 -91 
Q 1206 -91 779 398 
Q 353 888 353 1747 
Q 353 2609 779 3096 
Q 1206 3584 1959 3584 
z
" transform="scale(0.015625)"/>
       <path id="DejaVuSans-51" d="M 3513 2113 
L 3513 0 
L 2938 0 
L 2938 2094 
Q 2938 2591 2744 2837 
Q 2550 3084 2163 3084 
Q 1697 3084 1428 2787 
Q 1159 2491 1159 1978 
L 1159 0 
L 581 0 
L 581 3500 
L 1159 3500 
L 1159 2956 
Q 1366 3272 1645 3428 
Q 1925 3584 2291 3584 
Q 2894 3584 3203 3211 
Q 3513 2838 3513 2113 
z
" transform="scale(0.015625)"/>
       <path id="DejaVuSans-57" d="M 1172 4494 
L 1172 3500 
L 2356 3500 
L 2356 3053 
L 1172 3053 
L 1172 1153 
Q 1172 725 1289 603 
Q 1406 481 1766 481 
L 2356 481 
L 2356 0 
L 1766 0 
Q 1100 0 847 248 
Q 594 497 594 1153 
L 594 3053 
L 172 3053 
L 172 3500 
L 594 3500 
L 594 4494 
L 1172 4494 
z
" transform="scale(0.015625)"/>
       <path id="DejaVuSans-4b" d="M 3513 2113 
L 3513 0 
L 2938 0 
L 2938 2094 
Q 2938 2591 2744 2837 
Q 2550 3084 2163 3084 
Q 1697 3084 1428 2787 
Q 1159 2491 1159 1978 
L 1159 0 
L 581 0 
L 581 4863 
L 1159 4863 
L 1159 2956 
Q 1366 3272 1645 3428 
Q 1925 3584 2291 3584 
Q 2894 3584 3203 3211 
Q 3513 2838 3513 2113 
z
" transform="scale(0.015625)"/>
       <path id="DejaVuSans-4f" d="M 603 4863 
L 1178 4863 
L 1178 0 
L 603 0 
L 603 4863 
z
" transform="scale(0.015625)"/>
       <path id="DejaVuSans-5c" d="M 2059 -325 
Q 1816 -950 1584 -1140 
Q 1353 -1331 966 -1331 
L 506 -1331 
L 506 -850 
L 844 -850 
Q 1081 -850 1212 -737 
Q 1344 -625 1503 -206 
L 1606 56 
L 191 3500 
L 800 3500 
L 1894 763 
L 2988 3500 
L 3597 3500 
L 2059 -325 
z
" transform="scale(0.015625)"/>
       <path id="DejaVuSans-42" d="M 3263 -1063 
L 3263 -1509 
L -63 -1509 
L -63 -1063 
L 3263 -1063 
z
" transform="scale(0.015625)"/>
       <path id="DejaVuSans-44" d="M 2194 1759 
Q 1497 1759 1228 1600 
Q 959 1441 959 1056 
Q 959 750 1161 570 
Q 1363 391 1709 391 
Q 2188 391 2477 730 
Q 2766 1069 2766 1631 
L 2766 1759 
L 2194 1759 
z
M 3341 1997 
L 3341 0 
L 2766 0 
L 2766 531 
Q 2569 213 2275 61 
Q 1981 -91 1556 -91 
Q 1019 -91 701 211 
Q 384 513 384 1019 
Q 384 1609 779 1909 
Q 1175 2209 1959 2209 
L 2766 2209 
L 2766 2266 
Q 2766 2663 2505 2880 
Q 2244 3097 1772 3097 
Q 1472 3097 1187 3025 
Q 903 2953 641 2809 
L 641 3341 
Q 956 3463 1253 3523 
Q 1550 3584 1831 3584 
Q 2591 3584 2966 3190 
Q 3341 2797 3341 1997 
z
" transform="scale(0.015625)"/>
       <path id="DejaVuSans-56" d="M 2834 3397 
L 2834 2853 
Q 2591 2978 2328 3040 
Q 2066 3103 1784 3103 
Q 1356 3103 1142 2972 
Q 928 2841 928 2578 
Q 928 2378 1081 2264 
Q 1234 2150 1697 2047 
L 1894 2003 
Q 2506 1872 2764 1633 
Q 3022 1394 3022 966 
Q 3022 478 2636 193 
Q 2250 -91 1575 -91 
Q 1294 -91 989 -36 
Q 684 19 347 128 
L 347 722 
Q 666 556 975 473 
Q 1284 391 1588 391 
Q 1994 391 2212 530 
Q 2431 669 2431 922 
Q 2431 1156 2273 1281 
Q 2116 1406 1581 1522 
L 1381 1569 
Q 847 1681 609 1914 
Q 372 2147 372 2553 
Q 372 3047 722 3315 
Q 1072 3584 1716 3584 
Q 2034 3584 2315 3537 
Q 2597 3491 2834 3397 
z
" transform="scale(0.015625)"/>
       <path id="DejaVuSans-47" d="M 2906 2969 
L 2906 4863 
L 3481 4863 
L 3481 0 
L 2906 0 
L 2906 525 
Q 2725 213 2448 61 
Q 2172 -91 1784 -91 
Q 1150 -91 751 415 
Q 353 922 353 1747 
Q 353 2572 751 3078 
Q 1150 3584 1784 3584 
Q 2172 3584 2448 3432 
Q 2725 3281 2906 2969 
z
M 947 1747 
Q 947 1113 1208 752 
Q 1469 391 1925 391 
Q 2381 391 2643 752 
Q 2906 1113 2906 1747 
Q 2906 2381 2643 2742 
Q 2381 3103 1925 3103 
Q 1469 3103 1208 2742 
Q 947 2381 947 1747 
z
" transform="scale(0.015625)"/>
       <path id="DejaVuSans-55" d="M 2631 2963 
Q 2534 3019 2420 3045 
Q 2306 3072 2169 3072 
Q 1681 3072 1420 2755 
Q 1159 2438 1159 1844 
L 1159 0 
L 581 0 
L 581 3500 
L 1159 3500 
L 1159 2956 
Q 1341 3275 1631 3429 
Q 1922 3584 2338 3584 
Q 2397 3584 2469 3576 
Q 2541 3569 2628 3553 
L 2631 2963 
z
" transform="scale(0.015625)"/>
      </defs>
      <use xlink:href="#DejaVuSans-50"/>
      <use xlink:href="#DejaVuSans-52" transform="translate(97.40625 0)"/>
      <use xlink:href="#DejaVuSans-51" transform="translate(158.59375 0)"/>
      <use xlink:href="#DejaVuSans-57" transform="translate(221.96875 0)"/>
      <use xlink:href="#DejaVuSans-4b" transform="translate(261.171875 0)"/>
      <use xlink:href="#DejaVuSans-4f" transform="translate(324.546875 0)"/>
      <use xlink:href="#DejaVuSans-5c" transform="translate(352.328125 0)"/>
      <use xlink:href="#DejaVuSans-42" transform="translate(411.515625 0)"/>
      <use xlink:href="#DejaVuSans-44" transform="translate(461.515625 0)"/>
      <use xlink:href="#DejaVuSans-50" transform="translate(522.796875 0)"/>
      <use xlink:href="#DejaVuSans-42" transform="translate(620.203125 0)"/>
      <use xlink:href="#DejaVuSans-56" transform="translate(670.203125 0)"/>
      <use xlink:href="#DejaVuSans-57" transform="translate(722.296875 0)"/>
      <use xlink:href="#DejaVuSans-44" transform="translate(761.5 0)"/>
      <use xlink:href="#DejaVuSans-51" transform="translate(822.78125 0)"/>
      <use xlink:href="#DejaVuSans-47" transform="translate(886.15625 0)"/>
      <use xlink:href="#DejaVuSans-44" transform="translate(949.640625 0)"/>
      <use xlink:href="#DejaVuSans-55" transform="translate(1010.921875 0)"/>
      <use xlink:href="#DejaVuSans-47" transform="translate(1050.28125 0)"/>
     </g>
    </g>
    <g id="patch_8">
     <path d="M 150.9408 126.130125 
L 207.1872 126.130125 
L 207.1872 106.330125 
L 150.9408 106.330125 
z
" style="fill: #dce8e7; stroke: #f7f3ea; stroke-linejoin: miter"/>
    </g>
    <g id="text_7">
     <!-- am -->
     <g transform="translate(156.56544 118.30825) scale(0.08 -0.08)">
      <use xlink:href="#DejaVuSans-44"/>
      <use xlink:href="#DejaVuSans-50" transform="translate(61.28125 0)"/>
     </g>
    </g>
    <g id="patch_9">
     <path d="M 207.1872 126.130125 
L 307.1808 126.130125 
L 307.1808 106.330125 
L 207.1872 106.330125 
z
" style="fill: #dce8e7; stroke: #f7f3ea; stroke-linejoin: miter"/>
    </g>
    <g id="text_8">
     <!-- standard_root -->
     <g transform="translate(217.18656 118.308563) scale(0.08 -0.08)">
      <use xlink:href="#DejaVuSans-56"/>
      <use xlink:href="#DejaVuSans-57" transform="translate(52.09375 0)"/>
      <use xlink:href="#DejaVuSans-44" transform="translate(91.296875 0)"/>
      <use xlink:href="#DejaVuSans-51" transform="translate(152.578125 0)"/>
      <use xlink:href="#DejaVuSans-47" transform="translate(215.953125 0)"/>
      <use xlink:href="#DejaVuSans-44" transform="translate(279.4375 0)"/>
      <use xlink:href="#DejaVuSans-55" transform="translate(340.71875 0)"/>
      <use xlink:href="#DejaVuSans-47" transform="translate(380.078125 0)"/>
      <use xlink:href="#DejaVuSans-42" transform="translate(443.5625 0)"/>
      <use xlink:href="#DejaVuSans-55" transform="translate(493.5625 0)"/>
      <use xlink:href="#DejaVuSans-52" transform="translate(532.46875 0)"/>
      <use xlink:href="#DejaVuSans-52" transform="translate(593.65625 0)"/>
      <use xlink:href="#DejaVuSans-57" transform="translate(654.84375 0)"/>
     </g>
    </g>
    <g id="patch_10">
     <path d="M 307.1808 126.130125 
L 432.1728 126.130125 
L 432.1728 106.330125 
L 307.1808 106.330125 
z
" style="fill: #dce8e7; stroke: #f7f3ea; stroke-linejoin: miter"/>
    </g>
    <g id="text_9">
     <!-- standard_monthly -->
     <g transform="translate(319.68 118.308563) scale(0.08 -0.08)">
      <use xlink:href="#DejaVuSans-56"/>
      <use xlink:href="#DejaVuSans-57" transform="translate(52.09375 0)"/>
      <use xlink:href="#DejaVuSans-44" transform="translate(91.296875 0)"/>
      <use xlink:href="#DejaVuSans-51" transform="translate(152.578125 0)"/>
      <use xlink:href="#DejaVuSans-47" transform="translate(215.953125 0)"/>
      <use xlink:href="#DejaVuSans-44" transform="translate(279.4375 0)"/>
      <use xlink:href="#DejaVuSans-55" transform="translate(340.71875 0)"/>
      <use xlink:href="#DejaVuSans-47" transform="translate(380.078125 0)"/>
      <use xlink:href="#DejaVuSans-42" transform="translate(443.5625 0)"/>
      <use xlink:href="#DejaVuSans-50" transform="translate(493.5625 0)"/>
      <use xlink:href="#DejaVuSans-52" transform="translate(590.96875 0)"/>
      <use xlink:href="#DejaVuSans-51" transform="translate(652.15625 0)"/>
      <use xlink:href="#DejaVuSans-57" transform="translate(715.53125 0)"/>
      <use xlink:href="#DejaVuSans-4b" transform="translate(754.734375 0)"/>
      <use xlink:href="#DejaVuSans-4f" transform="translate(818.109375 0)"/>
      <use xlink:href="#DejaVuSans-5c" transform="translate(845.890625 0)"/>
     </g>
    </g>
    <g id="patch_11">
     <path d="M 432.1728 126.130125 
L 613.4112 126.130125 
L 613.4112 106.330125 
L 432.1728 106.330125 
z
" style="fill: #dce8e7; stroke: #f7f3ea; stroke-linejoin: miter"/>
    </g>
    <g id="text_10">
     <!-- repaired_grid -->
     <g transform="translate(450.29664 118.308563) scale(0.08 -0.08)">
      <defs>
       <path id="DejaVuSans-48" d="M 3597 1894 
L 3597 1613 
L 953 1613 
Q 991 1019 1311 708 
Q 1631 397 2203 397 
Q 2534 397 2845 478 
Q 3156 559 3463 722 
L 3463 178 
Q 3153 47 2828 -22 
Q 2503 -91 2169 -91 
Q 1331 -91 842 396 
Q 353 884 353 1716 
Q 353 2575 817 3079 
Q 1281 3584 2069 3584 
Q 2775 3584 3186 3129 
Q 3597 2675 3597 1894 
z
M 3022 2063 
Q 3016 2534 2758 2815 
Q 2500 3097 2075 3097 
Q 1594 3097 1305 2825 
Q 1016 2553 972 2059 
L 3022 2063 
z
" transform="scale(0.015625)"/>
       <path id="DejaVuSans-53" d="M 1159 525 
L 1159 -1331 
L 581 -1331 
L 581 3500 
L 1159 3500 
L 1159 2969 
Q 1341 3281 1617 3432 
Q 1894 3584 2278 3584 
Q 2916 3584 3314 3078 
Q 3713 2572 3713 1747 
Q 3713 922 3314 415 
Q 2916 -91 2278 -91 
Q 1894 -91 1617 61 
Q 1341 213 1159 525 
z
M 3116 1747 
Q 3116 2381 2855 2742 
Q 2594 3103 2138 3103 
Q 1681 3103 1420 2742 
Q 1159 2381 1159 1747 
Q 1159 1113 1420 752 
Q 1681 391 2138 391 
Q 2594 391 2855 752 
Q 3116 1113 3116 1747 
z
" transform="scale(0.015625)"/>
       <path id="DejaVuSans-4c" d="M 603 3500 
L 1178 3500 
L 1178 0 
L 603 0 
L 603 3500 
z
M 603 4863 
L 1178 4863 
L 1178 4134 
L 603 4134 
L 603 4863 
z
" transform="scale(0.015625)"/>
       <path id="DejaVuSans-4a" d="M 2906 1791 
Q 2906 2416 2648 2759 
Q 2391 3103 1925 3103 
Q 1463 3103 1205 2759 
Q 947 2416 947 1791 
Q 947 1169 1205 825 
Q 1463 481 1925 481 
Q 2391 481 2648 825 
Q 2906 1169 2906 1791 
z
M 3481 434 
Q 3481 -459 3084 -895 
Q 2688 -1331 1869 -1331 
Q 1566 -1331 1297 -1286 
Q 1028 -1241 775 -1147 
L 775 -588 
Q 1028 -725 1275 -790 
Q 1522 -856 1778 -856 
Q 2344 -856 2625 -561 
Q 2906 -266 2906 331 
L 2906 616 
Q 2728 306 2450 153 
Q 2172 0 1784 0 
Q 1141 0 747 490 
Q 353 981 353 1791 
Q 353 2603 747 3093 
Q 1141 3584 1784 3584 
Q 2172 3584 2450 3431 
Q 2728 3278 2906 2969 
L 2906 3500 
L 3481 3500 
L 3481 434 
z
" transform="scale(0.015625)"/>
      </defs>
      <use xlink:href="#DejaVuSans-55"/>
      <use xlink:href="#DejaVuSans-48" transform="translate(38.90625 0)"/>
      <use xlink:href="#DejaVuSans-53" transform="translate(100.4375 0)"/>
      <use xlink:href="#DejaVuSans-44" transform="translate(163.921875 0)"/>
      <use xlink:href="#DejaVuSans-4c" transform="translate(225.203125 0)"/>
      <use xlink:href="#DejaVuSans-55" transform="translate(252.984375 0)"/>
      <use xlink:href="#DejaVuSans-48" transform="translate(291.890625 0)"/>
      <use xlink:href="#DejaVuSans-47" transform="translate(353.421875 0)"/>
      <use xlink:href="#DejaVuSans-42" transform="translate(416.90625 0)"/>
      <use xlink:href="#DejaVuSans-4a" transform="translate(466.90625 0)"/>
      <use xlink:href="#DejaVuSans-55" transform="translate(530.390625 0)"/>
      <use xlink:href="#DejaVuSans-4c" transform="translate(571.5 0)"/>
      <use xlink:href="#DejaVuSans-47" transform="translate(599.28125 0)"/>
     </g>
    </g>
    <g id="patch_12">
     <path d="M 25.9488 145.930125 
L 150.9408 145.930125 
L 150.9408 126.130125 
L 25.9488 126.130125 
z
" style="fill: #ede8da; stroke: #f7f3ea; stroke-linejoin: miter"/>
    </g>
    <g id="text_11">
     <!-- monthly_pm_standard -->
     <g transform="translate(38.448 138.108563) scale(0.08 -0.08)">
      <use xlink:href="#DejaVuSans-50"/>
      <use xlink:href="#DejaVuSans-52" transform="translate(97.40625 0)"/>
      <use xlink:href="#DejaVuSans-51" transform="translate(158.59375 0)"/>
      <use xlink:href="#DejaVuSans-57" transform="translate(221.96875 0)"/>
      <use xlink:href="#DejaVuSans-4b" transform="translate(261.171875 0)"/>
      <use xlink:href="#DejaVuSans-4f" transform="translate(324.546875 0)"/>
      <use xlink:href="#DejaVuSans-5c" transform="translate(352.328125 0)"/>
      <use xlink:href="#DejaVuSans-42" transform="translate(411.515625 0)"/>
      <use xlink:href="#DejaVuSans-53" transform="translate(461.515625 0)"/>
      <use xlink:href="#DejaVuSans-50" transform="translate(525 0)"/>
      <use xlink:href="#DejaVuSans-42" transform="translate(622.40625 0)"/>
      <use xlink:href="#DejaVuSans-56" transform="translate(672.40625 0)"/>
      <use xlink:href="#DejaVuSans-57" transform="translate(724.5 0)"/>
      <use xlink:href="#DejaVuSans-44" transform="translate(763.703125 0)"/>
      <use xlink:href="#DejaVuSans-51" transform="translate(824.984375 0)"/>
      <use xlink:href="#DejaVuSans-47" transform="translate(888.359375 0)"/>
      <use xlink:href="#DejaVuSans-44" transform="translate(951.84375 0)"/>
      <use xlink:href="#DejaVuSans-55" transform="translate(1013.125 0)"/>
      <use xlink:href="#DejaVuSans-47" transform="translate(1052.484375 0)"/>
     </g>
    </g>
    <g id="patch_13">
     <path d="M 150.9408 145.930125 
L 207.1872 145.930125 
L 207.1872 126.130125 
L 150.9408 126.130125 
z
" style="fill: #ede8da; stroke: #f7f3ea; stroke-linejoin: miter"/>
    </g>
    <g id="text_12">
     <!-- pm -->
     <g transform="translate(156.56544 138.10825) scale(0.08 -0.08)">
      <use xlink:href="#DejaVuSans-53"/>
      <use xlink:href="#DejaVuSans-50" transform="translate(63.484375 0)"/>
     </g>
    </g>
    <g id="patch_14">
     <path d="M 207.1872 145.930125 
L 307.1808 145.930125 
L 307.1808 126.130125 
L 207.1872 126.130125 
z
" style="fill: #ede8da; stroke: #f7f3ea; stroke-linejoin: miter"/>
    </g>
    <g id="text_13">
     <!-- weekly_root -->
     <g transform="translate(217.18656 138.108563) scale(0.08 -0.08)">
      <defs>
       <path id="DejaVuSans-5a" d="M 269 3500 
L 844 3500 
L 1563 769 
L 2278 3500 
L 2956 3500 
L 3675 769 
L 4391 3500 
L 4966 3500 
L 4050 0 
L 3372 0 
L 2619 2869 
L 1863 0 
L 1184 0 
L 269 3500 
z
" transform="scale(0.015625)"/>
       <path id="DejaVuSans-4e" d="M 581 4863 
L 1159 4863 
L 1159 1991 
L 2875 3500 
L 3609 3500 
L 1753 1863 
L 3688 0 
L 2938 0 
L 1159 1709 
L 1159 0 
L 581 0 
L 581 4863 
z
" transform="scale(0.015625)"/>
      </defs>
      <use xlink:href="#DejaVuSans-5a"/>
      <use xlink:href="#DejaVuSans-48" transform="translate(81.78125 0)"/>
      <use xlink:href="#DejaVuSans-48" transform="translate(143.3125 0)"/>
      <use xlink:href="#DejaVuSans-4e" transform="translate(204.84375 0)"/>
      <use xlink:href="#DejaVuSans-4f" transform="translate(262.75 0)"/>
      <use xlink:href="#DejaVuSans-5c" transform="translate(290.53125 0)"/>
      <use xlink:href="#DejaVuSans-42" transform="translate(349.71875 0)"/>
      <use xlink:href="#DejaVuSans-55" transform="translate(399.71875 0)"/>
      <use xlink:href="#DejaVuSans-52" transform="translate(438.625 0)"/>
      <use xlink:href="#DejaVuSans-52" transform="translate(499.8125 0)"/>
      <use xlink:href="#DejaVuSans-57" transform="translate(561 0)"/>
     </g>
    </g>
    <g id="patch_15">
     <path d="M 307.1808 145.930125 
L 432.1728 145.930125 
L 432.1728 126.130125 
L 307.1808 126.130125 
z
" style="fill: #ede8da; stroke: #f7f3ea; stroke-linejoin: miter"/>
    </g>
    <g id="text_14">
     <!-- standard_monthly -->
     <g transform="translate(319.68 138.108563) scale(0.08 -0.08)">
      <use xlink:href="#DejaVuSans-56"/>
      <use xlink:href="#DejaVuSans-57" transform="translate(52.09375 0)"/>
      <use xlink:href="#DejaVuSans-44" transform="translate(91.296875 0)"/>
      <use xlink:href="#DejaVuSans-51" transform="translate(152.578125 0)"/>
      <use xlink:href="#DejaVuSans-47" transform="translate(215.953125 0)"/>
      <use xlink:href="#DejaVuSans-44" transform="translate(279.4375 0)"/>
      <use xlink:href="#DejaVuSans-55" transform="translate(340.71875 0)"/>
      <use xlink:href="#DejaVuSans-47" transform="translate(380.078125 0)"/>
      <use xlink:href="#DejaVuSans-42" transform="translate(443.5625 0)"/>
      <use xlink:href="#DejaVuSans-50" transform="translate(493.5625 0)"/>
      <use xlink:href="#DejaVuSans-52" transform="translate(590.96875 0)"/>
      <use xlink:href="#DejaVuSans-51" transform="translate(652.15625 0)"/>
      <use xlink:href="#DejaVuSans-57" transform="translate(715.53125 0)"/>
      <use xlink:href="#DejaVuSans-4b" transform="translate(754.734375 0)"/>
      <use xlink:href="#DejaVuSans-4f" transform="translate(818.109375 0)"/>
      <use xlink:href="#DejaVuSans-5c" transform="translate(845.890625 0)"/>
     </g>
    </g>
    <g id="patch_16">
     <path d="M 432.1728 145.930125 
L 613.4112 145.930125 
L 613.4112 126.130125 
L 432.1728 126.130125 
z
" style="fill: #ede8da; stroke: #f7f3ea; stroke-linejoin: miter"/>
    </g>
    <g id="text_15">
     <!-- repaired_grid -->
     <g transform="translate(450.29664 138.108563) scale(0.08 -0.08)">
      <use xlink:href="#DejaVuSans-55"/>
      <use xlink:href="#DejaVuSans-48" transform="translate(38.90625 0)"/>
      <use xlink:href="#DejaVuSans-53" transform="translate(100.4375 0)"/>
      <use xlink:href="#DejaVuSans-44" transform="translate(163.921875 0)"/>
      <use xlink:href="#DejaVuSans-4c" transform="translate(225.203125 0)"/>
      <use xlink:href="#DejaVuSans-55" transform="translate(252.984375 0)"/>
      <use xlink:href="#DejaVuSans-48" transform="translate(291.890625 0)"/>
      <use xlink:href="#DejaVuSans-47" transform="translate(353.421875 0)"/>
      <use xlink:href="#DejaVuSans-42" transform="translate(416.90625 0)"/>
      <use xlink:href="#DejaVuSans-4a" transform="translate(466.90625 0)"/>
      <use xlink:href="#DejaVuSans-55" transform="translate(530.390625 0)"/>
      <use xlink:href="#DejaVuSans-4c" transform="translate(571.5 0)"/>
      <use xlink:href="#DejaVuSans-47" transform="translate(599.28125 0)"/>
     </g>
    </g>
    <g id="patch_17">
     <path d="M 25.9488 165.730125 
L 150.9408 165.730125 
L 150.9408 145.930125 
L 25.9488 145.930125 
z
" style="fill: #dce8e7; stroke: #f7f3ea; stroke-linejoin: miter"/>
    </g>
    <g id="text_16">
     <!-- weekly_pm_nonstandard -->
     <g transform="translate(38.448 157.908563) scale(0.08 -0.08)">
      <use xlink:href="#DejaVuSans-5a"/>
      <use xlink:href="#DejaVuSans-48" transform="translate(81.78125 0)"/>
      <use xlink:href="#DejaVuSans-48" transform="translate(143.3125 0)"/>
      <use xlink:href="#DejaVuSans-4e" transform="translate(204.84375 0)"/>
      <use xlink:href="#DejaVuSans-4f" transform="translate(262.75 0)"/>
      <use xlink:href="#DejaVuSans-5c" transform="translate(290.53125 0)"/>
      <use xlink:href="#DejaVuSans-42" transform="translate(349.71875 0)"/>
      <use xlink:href="#DejaVuSans-53" transform="translate(399.71875 0)"/>
      <use xlink:href="#DejaVuSans-50" transform="translate(463.203125 0)"/>
      <use xlink:href="#DejaVuSans-42" transform="translate(560.609375 0)"/>
      <use xlink:href="#DejaVuSans-51" transform="translate(610.609375 0)"/>
      <use xlink:href="#DejaVuSans-52" transform="translate(673.984375 0)"/>
      <use xlink:href="#DejaVuSans-51" transform="translate(735.171875 0)"/>
      <use xlink:href="#DejaVuSans-56" transform="translate(798.546875 0)"/>
      <use xlink:href="#DejaVuSans-57" transform="translate(850.640625 0)"/>
      <use xlink:href="#DejaVuSans-44" transform="translate(889.84375 0)"/>
      <use xlink:href="#DejaVuSans-51" transform="translate(951.125 0)"/>
      <use xlink:href="#DejaVuSans-47" transform="translate(1014.5 0)"/>
      <use xlink:href="#DejaVuSans-44" transform="translate(1077.984375 0)"/>
      <use xlink:href="#DejaVuSans-55" transform="translate(1139.265625 0)"/>
      <use xlink:href="#DejaVuSans-47" transform="translate(1178.625 0)"/>
     </g>
    </g>
    <g id="patch_18">
     <path d="M 150.9408 165.730125 
L 207.1872 165.730125 
L 207.1872 145.930125 
L 150.9408 145.930125 
z
" style="fill: #dce8e7; stroke: #f7f3ea; stroke-linejoin: miter"/>
    </g>
    <g id="text_17">
     <!-- pm -->
     <g transform="translate(156.56544 157.90825) scale(0.08 -0.08)">
      <use xlink:href="#DejaVuSans-53"/>
      <use xlink:href="#DejaVuSans-50" transform="translate(63.484375 0)"/>
     </g>
    </g>
    <g id="patch_19">
     <path d="M 207.1872 165.730125 
L 307.1808 165.730125 
L 307.1808 145.930125 
L 207.1872 145.930125 
z
" style="fill: #dce8e7; stroke: #f7f3ea; stroke-linejoin: miter"/>
    </g>
    <g id="text_18">
     <!-- weekly_root -->
     <g transform="translate(217.18656 157.908563) scale(0.08 -0.08)">
      <use xlink:href="#DejaVuSans-5a"/>
      <use xlink:href="#DejaVuSans-48" transform="translate(81.78125 0)"/>
      <use xlink:href="#DejaVuSans-48" transform="translate(143.3125 0)"/>
      <use xlink:href="#DejaVuSans-4e" transform="translate(204.84375 0)"/>
      <use xlink:href="#DejaVuSans-4f" transform="translate(262.75 0)"/>
      <use xlink:href="#DejaVuSans-5c" transform="translate(290.53125 0)"/>
      <use xlink:href="#DejaVuSans-42" transform="translate(349.71875 0)"/>
      <use xlink:href="#DejaVuSans-55" transform="translate(399.71875 0)"/>
      <use xlink:href="#DejaVuSans-52" transform="translate(438.625 0)"/>
      <use xlink:href="#DejaVuSans-52" transform="translate(499.8125 0)"/>
      <use xlink:href="#DejaVuSans-57" transform="translate(561 0)"/>
     </g>
    </g>
    <g id="patch_20">
     <path d="M 307.1808 165.730125 
L 432.1728 165.730125 
L 432.1728 145.930125 
L 307.1808 145.930125 
z
" style="fill: #dce8e7; stroke: #f7f3ea; stroke-linejoin: miter"/>
    </g>
    <g id="text_19">
     <!-- weekly_nonstandard -->
     <g transform="translate(319.68 157.908563) scale(0.08 -0.08)">
      <use xlink:href="#DejaVuSans-5a"/>
      <use xlink:href="#DejaVuSans-48" transform="translate(81.78125 0)"/>
      <use xlink:href="#DejaVuSans-48" transform="translate(143.3125 0)"/>
      <use xlink:href="#DejaVuSans-4e" transform="translate(204.84375 0)"/>
      <use xlink:href="#DejaVuSans-4f" transform="translate(262.75 0)"/>
      <use xlink:href="#DejaVuSans-5c" transform="translate(290.53125 0)"/>
      <use xlink:href="#DejaVuSans-42" transform="translate(349.71875 0)"/>
      <use xlink:href="#DejaVuSans-51" transform="translate(399.71875 0)"/>
      <use xlink:href="#DejaVuSans-52" transform="translate(463.09375 0)"/>
      <use xlink:href="#DejaVuSans-51" transform="translate(524.28125 0)"/>
      <use xlink:href="#DejaVuSans-56" transform="translate(587.65625 0)"/>
      <use xlink:href="#DejaVuSans-57" transform="translate(639.75 0)"/>
      <use xlink:href="#DejaVuSans-44" transform="translate(678.953125 0)"/>
      <use xlink:href="#DejaVuSans-51" transform="translate(740.234375 0)"/>
      <use xlink:href="#DejaVuSans-47" transform="translate(803.609375 0)"/>
      <use xlink:href="#DejaVuSans-44" transform="translate(867.09375 0)"/>
      <use xlink:href="#DejaVuSans-55" transform="translate(928.375 0)"/>
      <use xlink:href="#DejaVuSans-47" transform="translate(967.734375 0)"/>
     </g>
    </g>
    <g id="patch_21">
     <path d="M 432.1728 165.730125 
L 613.4112 165.730125 
L 613.4112 145.930125 
L 432.1728 145.930125 
z
" style="fill: #dce8e7; stroke: #f7f3ea; stroke-linejoin: miter"/>
    </g>
    <g id="text_20">
     <!-- repaired_grid_guarded_local_refinement -->
     <g transform="translate(450.29664 157.908563) scale(0.08 -0.08)">
      <defs>
       <path id="DejaVuSans-58" d="M 544 1381 
L 544 3500 
L 1119 3500 
L 1119 1403 
Q 1119 906 1312 657 
Q 1506 409 1894 409 
Q 2359 409 2629 706 
Q 2900 1003 2900 1516 
L 2900 3500 
L 3475 3500 
L 3475 0 
L 2900 0 
L 2900 538 
Q 2691 219 2414 64 
Q 2138 -91 1772 -91 
Q 1169 -91 856 284 
Q 544 659 544 1381 
z
M 1991 3584 
L 1991 3584 
z
" transform="scale(0.015625)"/>
       <path id="DejaVuSans-46" d="M 3122 3366 
L 3122 2828 
Q 2878 2963 2633 3030 
Q 2388 3097 2138 3097 
Q 1578 3097 1268 2742 
Q 959 2388 959 1747 
Q 959 1106 1268 751 
Q 1578 397 2138 397 
Q 2388 397 2633 464 
Q 2878 531 3122 666 
L 3122 134 
Q 2881 22 2623 -34 
Q 2366 -91 2075 -91 
Q 1284 -91 818 406 
Q 353 903 353 1747 
Q 353 2603 823 3093 
Q 1294 3584 2113 3584 
Q 2378 3584 2631 3529 
Q 2884 3475 3122 3366 
z
" transform="scale(0.015625)"/>
       <path id="DejaVuSans-13af" d="M 3431 3500 
L 3431 0 
L 2853 0 
L 2853 3053 
L 1275 3053 
L 1275 0 
L 697 0 
L 697 3053 
L 147 3053 
L 147 3500 
L 697 3500 
L 697 3744 
Q 697 4316 967 4589 
Q 1238 4863 1797 4863 
L 2375 4863 
L 2375 4384 
L 1825 4384 
Q 1516 4384 1395 4259 
Q 1275 4134 1275 3809 
L 1275 3500 
L 3431 3500 
z
M 2853 4856 
L 3431 4856 
L 3431 4128 
L 2853 4128 
L 2853 4856 
z
" transform="scale(0.015625)"/>
      </defs>
      <use xlink:href="#DejaVuSans-55"/>
      <use xlink:href="#DejaVuSans-48" transform="translate(38.90625 0)"/>
      <use xlink:href="#DejaVuSans-53" transform="translate(100.4375 0)"/>
      <use xlink:href="#DejaVuSans-44" transform="translate(163.921875 0)"/>
      <use xlink:href="#DejaVuSans-4c" transform="translate(225.203125 0)"/>
      <use xlink:href="#DejaVuSans-55" transform="translate(252.984375 0)"/>
      <use xlink:href="#DejaVuSans-48" transform="translate(291.890625 0)"/>
      <use xlink:href="#DejaVuSans-47" transform="translate(353.421875 0)"/>
      <use xlink:href="#DejaVuSans-42" transform="translate(416.90625 0)"/>
      <use xlink:href="#DejaVuSans-4a" transform="translate(466.90625 0)"/>
      <use xlink:href="#DejaVuSans-55" transform="translate(530.390625 0)"/>
      <use xlink:href="#DejaVuSans-4c" transform="translate(571.5 0)"/>
      <use xlink:href="#DejaVuSans-47" transform="translate(599.28125 0)"/>
      <use xlink:href="#DejaVuSans-42" transform="translate(662.765625 0)"/>
      <use xlink:href="#DejaVuSans-4a" transform="translate(712.765625 0)"/>
      <use xlink:href="#DejaVuSans-58" transform="translate(776.25 0)"/>
      <use xlink:href="#DejaVuSans-44" transform="translate(839.625 0)"/>
      <use xlink:href="#DejaVuSans-55" transform="translate(900.90625 0)"/>
      <use xlink:href="#DejaVuSans-47" transform="translate(940.265625 0)"/>
      <use xlink:href="#DejaVuSans-48" transform="translate(1003.75 0)"/>
      <use xlink:href="#DejaVuSans-47" transform="translate(1065.28125 0)"/>
      <use xlink:href="#DejaVuSans-42" transform="translate(1128.765625 0)"/>
      <use xlink:href="#DejaVuSans-4f" transform="translate(1178.765625 0)"/>
      <use xlink:href="#DejaVuSans-52" transform="translate(1206.546875 0)"/>
      <use xlink:href="#DejaVuSans-46" transform="translate(1267.734375 0)"/>
      <use xlink:href="#DejaVuSans-44" transform="translate(1322.71875 0)"/>
      <use xlink:href="#DejaVuSans-4f" transform="translate(1384 0)"/>
      <use xlink:href="#DejaVuSans-42" transform="translate(1411.78125 0)"/>
      <use xlink:href="#DejaVuSans-55" transform="translate(1461.78125 0)"/>
      <use xlink:href="#DejaVuSans-48" transform="translate(1500.6875 0)"/>
      <use xlink:href="#DejaVuSans-13af" transform="translate(1562.21875 0)"/>
      <use xlink:href="#DejaVuSans-51" transform="translate(1625.203125 0)"/>
      <use xlink:href="#DejaVuSans-48" transform="translate(1688.578125 0)"/>
      <use xlink:href="#DejaVuSans-50" transform="translate(1750.109375 0)"/>
      <use xlink:href="#DejaVuSans-48" transform="translate(1847.515625 0)"/>
      <use xlink:href="#DejaVuSans-51" transform="translate(1909.046875 0)"/>
      <use xlink:href="#DejaVuSans-57" transform="translate(1972.421875 0)"/>
     </g>
    </g>
    <g id="patch_22">
     <path d="M 25.9488 185.530125 
L 150.9408 185.530125 
L 150.9408 165.730125 
L 25.9488 165.730125 
z
" style="fill: #ede8da; stroke: #f7f3ea; stroke-linejoin: miter"/>
    </g>
    <g id="text_21">
     <!-- eom_pm -->
     <g transform="translate(38.448 177.70825) scale(0.08 -0.08)">
      <use xlink:href="#DejaVuSans-48"/>
      <use xlink:href="#DejaVuSans-52" transform="translate(61.53125 0)"/>
      <use xlink:href="#DejaVuSans-50" transform="translate(122.71875 0)"/>
      <use xlink:href="#DejaVuSans-42" transform="translate(220.125 0)"/>
      <use xlink:href="#DejaVuSans-53" transform="translate(270.125 0)"/>
      <use xlink:href="#DejaVuSans-50" transform="translate(333.609375 0)"/>
     </g>
    </g>
    <g id="patch_23">
     <path d="M 150.9408 185.530125 
L 207.1872 185.530125 
L 207.1872 165.730125 
L 150.9408 165.730125 
z
" style="fill: #ede8da; stroke: #f7f3ea; stroke-linejoin: miter"/>
    </g>
    <g id="text_22">
     <!-- pm -->
     <g transform="translate(156.56544 177.70825) scale(0.08 -0.08)">
      <use xlink:href="#DejaVuSans-53"/>
      <use xlink:href="#DejaVuSans-50" transform="translate(63.484375 0)"/>
     </g>
    </g>
    <g id="patch_24">
     <path d="M 207.1872 185.530125 
L 307.1808 185.530125 
L 307.1808 165.730125 
L 207.1872 165.730125 
z
" style="fill: #ede8da; stroke: #f7f3ea; stroke-linejoin: miter"/>
    </g>
    <g id="text_23">
     <!-- weekly_root -->
     <g transform="translate(217.18656 177.708563) scale(0.08 -0.08)">
      <use xlink:href="#DejaVuSans-5a"/>
      <use xlink:href="#DejaVuSans-48" transform="translate(81.78125 0)"/>
      <use xlink:href="#DejaVuSans-48" transform="translate(143.3125 0)"/>
      <use xlink:href="#DejaVuSans-4e" transform="translate(204.84375 0)"/>
      <use xlink:href="#DejaVuSans-4f" transform="translate(262.75 0)"/>
      <use xlink:href="#DejaVuSans-5c" transform="translate(290.53125 0)"/>
      <use xlink:href="#DejaVuSans-42" transform="translate(349.71875 0)"/>
      <use xlink:href="#DejaVuSans-55" transform="translate(399.71875 0)"/>
      <use xlink:href="#DejaVuSans-52" transform="translate(438.625 0)"/>
      <use xlink:href="#DejaVuSans-52" transform="translate(499.8125 0)"/>
      <use xlink:href="#DejaVuSans-57" transform="translate(561 0)"/>
     </g>
    </g>
    <g id="patch_25">
     <path d="M 307.1808 185.530125 
L 432.1728 185.530125 
L 432.1728 165.730125 
L 307.1808 165.730125 
z
" style="fill: #ede8da; stroke: #f7f3ea; stroke-linejoin: miter"/>
    </g>
    <g id="text_24">
     <!-- month_end_explicit -->
     <g transform="translate(319.68 177.708563) scale(0.08 -0.08)">
      <defs>
       <path id="DejaVuSans-5b" d="M 3513 3500 
L 2247 1797 
L 3578 0 
L 2900 0 
L 1881 1375 
L 863 0 
L 184 0 
L 1544 1831 
L 300 3500 
L 978 3500 
L 1906 2253 
L 2834 3500 
L 3513 3500 
z
" transform="scale(0.015625)"/>
      </defs>
      <use xlink:href="#DejaVuSans-50"/>
      <use xlink:href="#DejaVuSans-52" transform="translate(97.40625 0)"/>
      <use xlink:href="#DejaVuSans-51" transform="translate(158.59375 0)"/>
      <use xlink:href="#DejaVuSans-57" transform="translate(221.96875 0)"/>
      <use xlink:href="#DejaVuSans-4b" transform="translate(261.171875 0)"/>
      <use xlink:href="#DejaVuSans-42" transform="translate(324.546875 0)"/>
      <use xlink:href="#DejaVuSans-48" transform="translate(374.546875 0)"/>
      <use xlink:href="#DejaVuSans-51" transform="translate(436.078125 0)"/>
      <use xlink:href="#DejaVuSans-47" transform="translate(499.453125 0)"/>
      <use xlink:href="#DejaVuSans-42" transform="translate(562.9375 0)"/>
      <use xlink:href="#DejaVuSans-48" transform="translate(612.9375 0)"/>
      <use xlink:href="#DejaVuSans-5b" transform="translate(672.71875 0)"/>
      <use xlink:href="#DejaVuSans-53" transform="translate(731.90625 0)"/>
      <use xlink:href="#DejaVuSans-4f" transform="translate(795.390625 0)"/>
      <use xlink:href="#DejaVuSans-4c" transform="translate(823.171875 0)"/>
      <use xlink:href="#DejaVuSans-46" transform="translate(850.953125 0)"/>
      <use xlink:href="#DejaVuSans-4c" transform="translate(905.9375 0)"/>
      <use xlink:href="#DejaVuSans-57" transform="translate(933.71875 0)"/>
     </g>
    </g>
    <g id="patch_26">
     <path d="M 432.1728 185.530125 
L 613.4112 185.530125 
L 613.4112 165.730125 
L 432.1728 165.730125 
z
" style="fill: #ede8da; stroke: #f7f3ea; stroke-linejoin: miter"/>
    </g>
    <g id="text_25">
     <!-- repaired_grid -->
     <g transform="translate(450.29664 177.708563) scale(0.08 -0.08)">
      <use xlink:href="#DejaVuSans-55"/>
      <use xlink:href="#DejaVuSans-48" transform="translate(38.90625 0)"/>
      <use xlink:href="#DejaVuSans-53" transform="translate(100.4375 0)"/>
      <use xlink:href="#DejaVuSans-44" transform="translate(163.921875 0)"/>
      <use xlink:href="#DejaVuSans-4c" transform="translate(225.203125 0)"/>
      <use xlink:href="#DejaVuSans-55" transform="translate(252.984375 0)"/>
      <use xlink:href="#DejaVuSans-48" transform="translate(291.890625 0)"/>
      <use xlink:href="#DejaVuSans-47" transform="translate(353.421875 0)"/>
      <use xlink:href="#DejaVuSans-42" transform="translate(416.90625 0)"/>
      <use xlink:href="#DejaVuSans-4a" transform="translate(466.90625 0)"/>
      <use xlink:href="#DejaVuSans-55" transform="translate(530.390625 0)"/>
      <use xlink:href="#DejaVuSans-4c" transform="translate(571.5 0)"/>
      <use xlink:href="#DejaVuSans-47" transform="translate(599.28125 0)"/>
     </g>
    </g>
    <g id="patch_27">
     <path d="M 25.9488 205.330125 
L 150.9408 205.330125 
L 150.9408 185.530125 
L 25.9488 185.530125 
z
" style="fill: #dce8e7; stroke: #f7f3ea; stroke-linejoin: miter"/>
    </g>
    <g id="text_26">
     <!-- quarter_end_pm -->
     <g transform="translate(38.448 197.508563) scale(0.08 -0.08)">
      <defs>
       <path id="DejaVuSans-54" d="M 947 1747 
Q 947 1113 1208 752 
Q 1469 391 1925 391 
Q 2381 391 2643 752 
Q 2906 1113 2906 1747 
Q 2906 2381 2643 2742 
Q 2381 3103 1925 3103 
Q 1469 3103 1208 2742 
Q 947 2381 947 1747 
z
M 2906 525 
Q 2725 213 2448 61 
Q 2172 -91 1784 -91 
Q 1150 -91 751 415 
Q 353 922 353 1747 
Q 353 2572 751 3078 
Q 1150 3584 1784 3584 
Q 2172 3584 2448 3432 
Q 2725 3281 2906 2969 
L 2906 3500 
L 3481 3500 
L 3481 -1331 
L 2906 -1331 
L 2906 525 
z
" transform="scale(0.015625)"/>
      </defs>
      <use xlink:href="#DejaVuSans-54"/>
      <use xlink:href="#DejaVuSans-58" transform="translate(63.484375 0)"/>
      <use xlink:href="#DejaVuSans-44" transform="translate(126.859375 0)"/>
      <use xlink:href="#DejaVuSans-55" transform="translate(188.140625 0)"/>
      <use xlink:href="#DejaVuSans-57" transform="translate(229.25 0)"/>
      <use xlink:href="#DejaVuSans-48" transform="translate(268.453125 0)"/>
      <use xlink:href="#DejaVuSans-55" transform="translate(329.984375 0)"/>
      <use xlink:href="#DejaVuSans-42" transform="translate(371.09375 0)"/>
      <use xlink:href="#DejaVuSans-48" transform="translate(421.09375 0)"/>
      <use xlink:href="#DejaVuSans-51" transform="translate(482.625 0)"/>
      <use xlink:href="#DejaVuSans-47" transform="translate(546 0)"/>
      <use xlink:href="#DejaVuSans-42" transform="translate(609.484375 0)"/>
      <use xlink:href="#DejaVuSans-53" transform="translate(659.484375 0)"/>
      <use xlink:href="#DejaVuSans-50" transform="translate(722.96875 0)"/>
     </g>
    </g>
    <g id="patch_28">
     <path d="M 150.9408 205.330125 
L 207.1872 205.330125 
L 207.1872 185.530125 
L 150.9408 185.530125 
z
" style="fill: #dce8e7; stroke: #f7f3ea; stroke-linejoin: miter"/>
    </g>
    <g id="text_27">
     <!-- pm -->
     <g transform="translate(156.56544 197.50825) scale(0.08 -0.08)">
      <use xlink:href="#DejaVuSans-53"/>
      <use xlink:href="#DejaVuSans-50" transform="translate(63.484375 0)"/>
     </g>
    </g>
    <g id="patch_29">
     <path d="M 207.1872 205.330125 
L 307.1808 205.330125 
L 307.1808 185.530125 
L 207.1872 185.530125 
z
" style="fill: #dce8e7; stroke: #f7f3ea; stroke-linejoin: miter"/>
    </g>
    <g id="text_28">
     <!-- weekly_root -->
     <g transform="translate(217.18656 197.508563) scale(0.08 -0.08)">
      <use xlink:href="#DejaVuSans-5a"/>
      <use xlink:href="#DejaVuSans-48" transform="translate(81.78125 0)"/>
      <use xlink:href="#DejaVuSans-48" transform="translate(143.3125 0)"/>
      <use xlink:href="#DejaVuSans-4e" transform="translate(204.84375 0)"/>
      <use xlink:href="#DejaVuSans-4f" transform="translate(262.75 0)"/>
      <use xlink:href="#DejaVuSans-5c" transform="translate(290.53125 0)"/>
      <use xlink:href="#DejaVuSans-42" transform="translate(349.71875 0)"/>
      <use xlink:href="#DejaVuSans-55" transform="translate(399.71875 0)"/>
      <use xlink:href="#DejaVuSans-52" transform="translate(438.625 0)"/>
      <use xlink:href="#DejaVuSans-52" transform="translate(499.8125 0)"/>
      <use xlink:href="#DejaVuSans-57" transform="translate(561 0)"/>
     </g>
    </g>
    <g id="patch_30">
     <path d="M 307.1808 205.330125 
L 432.1728 205.330125 
L 432.1728 185.530125 
L 307.1808 185.530125 
z
" style="fill: #dce8e7; stroke: #f7f3ea; stroke-linejoin: miter"/>
    </g>
    <g id="text_29">
     <!-- quarter_end_explicit -->
     <g transform="translate(319.68 197.508563) scale(0.08 -0.08)">
      <use xlink:href="#DejaVuSans-54"/>
      <use xlink:href="#DejaVuSans-58" transform="translate(63.484375 0)"/>
      <use xlink:href="#DejaVuSans-44" transform="translate(126.859375 0)"/>
      <use xlink:href="#DejaVuSans-55" transform="translate(188.140625 0)"/>
      <use xlink:href="#DejaVuSans-57" transform="translate(229.25 0)"/>
      <use xlink:href="#DejaVuSans-48" transform="translate(268.453125 0)"/>
      <use xlink:href="#DejaVuSans-55" transform="translate(329.984375 0)"/>
      <use xlink:href="#DejaVuSans-42" transform="translate(371.09375 0)"/>
      <use xlink:href="#DejaVuSans-48" transform="translate(421.09375 0)"/>
      <use xlink:href="#DejaVuSans-51" transform="translate(482.625 0)"/>
      <use xlink:href="#DejaVuSans-47" transform="translate(546 0)"/>
      <use xlink:href="#DejaVuSans-42" transform="translate(609.484375 0)"/>
      <use xlink:href="#DejaVuSans-48" transform="translate(659.484375 0)"/>
      <use xlink:href="#DejaVuSans-5b" transform="translate(719.265625 0)"/>
      <use xlink:href="#DejaVuSans-53" transform="translate(778.453125 0)"/>
      <use xlink:href="#DejaVuSans-4f" transform="translate(841.9375 0)"/>
      <use xlink:href="#DejaVuSans-4c" transform="translate(869.71875 0)"/>
      <use xlink:href="#DejaVuSans-46" transform="translate(897.5 0)"/>
      <use xlink:href="#DejaVuSans-4c" transform="translate(952.484375 0)"/>
      <use xlink:href="#DejaVuSans-57" transform="translate(980.265625 0)"/>
     </g>
    </g>
    <g id="patch_31">
     <path d="M 432.1728 205.330125 
L 613.4112 205.330125 
L 613.4112 185.530125 
L 432.1728 185.530125 
z
" style="fill: #dce8e7; stroke: #f7f3ea; stroke-linejoin: miter"/>
    </g>
    <g id="text_30">
     <!-- repaired_grid -->
     <g transform="translate(450.29664 197.508563) scale(0.08 -0.08)">
      <use xlink:href="#DejaVuSans-55"/>
      <use xlink:href="#DejaVuSans-48" transform="translate(38.90625 0)"/>
      <use xlink:href="#DejaVuSans-53" transform="translate(100.4375 0)"/>
      <use xlink:href="#DejaVuSans-44" transform="translate(163.921875 0)"/>
      <use xlink:href="#DejaVuSans-4c" transform="translate(225.203125 0)"/>
      <use xlink:href="#DejaVuSans-55" transform="translate(252.984375 0)"/>
      <use xlink:href="#DejaVuSans-48" transform="translate(291.890625 0)"/>
      <use xlink:href="#DejaVuSans-47" transform="translate(353.421875 0)"/>
      <use xlink:href="#DejaVuSans-42" transform="translate(416.90625 0)"/>
      <use xlink:href="#DejaVuSans-4a" transform="translate(466.90625 0)"/>
      <use xlink:href="#DejaVuSans-55" transform="translate(530.390625 0)"/>
      <use xlink:href="#DejaVuSans-4c" transform="translate(571.5 0)"/>
      <use xlink:href="#DejaVuSans-47" transform="translate(599.28125 0)"/>
     </g>
    </g>
    <g id="patch_32">
     <path d="M 25.9488 225.130125 
L 150.9408 225.130125 
L 150.9408 205.330125 
L 25.9488 205.330125 
z
" style="fill: #e8d4c7; stroke: #f7f3ea; stroke-linejoin: miter"/>
    </g>
    <g id="text_31">
     <!-- pooled -->
     <g transform="translate(38.448 217.308563) scale(0.08 -0.08)">
      <use xlink:href="#DejaVuSans-53"/>
      <use xlink:href="#DejaVuSans-52" transform="translate(63.484375 0)"/>
      <use xlink:href="#DejaVuSans-52" transform="translate(124.671875 0)"/>
      <use xlink:href="#DejaVuSans-4f" transform="translate(185.859375 0)"/>
      <use xlink:href="#DejaVuSans-48" transform="translate(213.640625 0)"/>
      <use xlink:href="#DejaVuSans-47" transform="translate(275.171875 0)"/>
     </g>
    </g>
    <g id="patch_33">
     <path d="M 150.9408 225.130125 
L 207.1872 225.130125 
L 207.1872 205.330125 
L 150.9408 205.330125 
z
" style="fill: #e8d4c7; stroke: #f7f3ea; stroke-linejoin: miter"/>
    </g>
    <g id="text_32">
     <!-- mixed -->
     <g transform="translate(156.56544 217.308563) scale(0.08 -0.08)">
      <use xlink:href="#DejaVuSans-50"/>
      <use xlink:href="#DejaVuSans-4c" transform="translate(97.40625 0)"/>
      <use xlink:href="#DejaVuSans-5b" transform="translate(125.1875 0)"/>
      <use xlink:href="#DejaVuSans-48" transform="translate(181.296875 0)"/>
      <use xlink:href="#DejaVuSans-47" transform="translate(242.828125 0)"/>
     </g>
    </g>
    <g id="patch_34">
     <path d="M 207.1872 225.130125 
L 307.1808 225.130125 
L 307.1808 205.330125 
L 207.1872 205.330125 
z
" style="fill: #e8d4c7; stroke: #f7f3ea; stroke-linejoin: miter"/>
    </g>
    <g id="text_33">
     <!-- mixed -->
     <g transform="translate(217.18656 217.308563) scale(0.08 -0.08)">
      <use xlink:href="#DejaVuSans-50"/>
      <use xlink:href="#DejaVuSans-4c" transform="translate(97.40625 0)"/>
      <use xlink:href="#DejaVuSans-5b" transform="translate(125.1875 0)"/>
      <use xlink:href="#DejaVuSans-48" transform="translate(181.296875 0)"/>
      <use xlink:href="#DejaVuSans-47" transform="translate(242.828125 0)"/>
     </g>
    </g>
    <g id="patch_35">
     <path d="M 307.1808 225.130125 
L 432.1728 225.130125 
L 432.1728 205.330125 
L 307.1808 205.330125 
z
" style="fill: #e8d4c7; stroke: #f7f3ea; stroke-linejoin: miter"/>
    </g>
    <g id="text_34">
     <!-- reporting_union -->
     <g transform="translate(319.68 217.308563) scale(0.08 -0.08)">
      <use xlink:href="#DejaVuSans-55"/>
      <use xlink:href="#DejaVuSans-48" transform="translate(38.90625 0)"/>
      <use xlink:href="#DejaVuSans-53" transform="translate(100.4375 0)"/>
      <use xlink:href="#DejaVuSans-52" transform="translate(163.921875 0)"/>
      <use xlink:href="#DejaVuSans-55" transform="translate(225.109375 0)"/>
      <use xlink:href="#DejaVuSans-57" transform="translate(266.21875 0)"/>
      <use xlink:href="#DejaVuSans-4c" transform="translate(305.421875 0)"/>
      <use xlink:href="#DejaVuSans-51" transform="translate(333.203125 0)"/>
      <use xlink:href="#DejaVuSans-4a" transform="translate(396.578125 0)"/>
      <use xlink:href="#DejaVuSans-42" transform="translate(460.0625 0)"/>
      <use xlink:href="#DejaVuSans-58" transform="translate(510.0625 0)"/>
      <use xlink:href="#DejaVuSans-51" transform="translate(573.4375 0)"/>
      <use xlink:href="#DejaVuSans-4c" transform="translate(636.8125 0)"/>
      <use xlink:href="#DejaVuSans-52" transform="translate(664.59375 0)"/>
      <use xlink:href="#DejaVuSans-51" transform="translate(725.78125 0)"/>
     </g>
    </g>
    <g id="patch_36">
     <path d="M 432.1728 225.130125 
L 613.4112 225.130125 
L 613.4112 205.330125 
L 432.1728 205.330125 
z
" style="fill: #e8d4c7; stroke: #f7f3ea; stroke-linejoin: miter"/>
    </g>
    <g id="text_35">
     <!-- baseline_reporting_only -->
     <g transform="translate(450.29664 217.308563) scale(0.08 -0.08)">
      <defs>
       <path id="DejaVuSans-45" d="M 3116 1747 
Q 3116 2381 2855 2742 
Q 2594 3103 2138 3103 
Q 1681 3103 1420 2742 
Q 1159 2381 1159 1747 
Q 1159 1113 1420 752 
Q 1681 391 2138 391 
Q 2594 391 2855 752 
Q 3116 1113 3116 1747 
z
M 1159 2969 
Q 1341 3281 1617 3432 
Q 1894 3584 2278 3584 
Q 2916 3584 3314 3078 
Q 3713 2572 3713 1747 
Q 3713 922 3314 415 
Q 2916 -91 2278 -91 
Q 1894 -91 1617 61 
Q 1341 213 1159 525 
L 1159 0 
L 581 0 
L 581 4863 
L 1159 4863 
L 1159 2969 
z
" transform="scale(0.015625)"/>
      </defs>
      <use xlink:href="#DejaVuSans-45"/>
      <use xlink:href="#DejaVuSans-44" transform="translate(63.484375 0)"/>
      <use xlink:href="#DejaVuSans-56" transform="translate(124.765625 0)"/>
      <use xlink:href="#DejaVuSans-48" transform="translate(176.859375 0)"/>
      <use xlink:href="#DejaVuSans-4f" transform="translate(238.390625 0)"/>
      <use xlink:href="#DejaVuSans-4c" transform="translate(266.171875 0)"/>
      <use xlink:href="#DejaVuSans-51" transform="translate(293.953125 0)"/>
      <use xlink:href="#DejaVuSans-48" transform="translate(357.328125 0)"/>
      <use xlink:href="#DejaVuSans-42" transform="translate(418.859375 0)"/>
      <use xlink:href="#DejaVuSans-55" transform="translate(468.859375 0)"/>
      <use xlink:href="#DejaVuSans-48" transform="translate(507.765625 0)"/>
      <use xlink:href="#DejaVuSans-53" transform="translate(569.296875 0)"/>
      <use xlink:href="#DejaVuSans-52" transform="translate(632.78125 0)"/>
      <use xlink:href="#DejaVuSans-55" transform="translate(693.96875 0)"/>
      <use xlink:href="#DejaVuSans-57" transform="translate(735.078125 0)"/>
      <use xlink:href="#DejaVuSans-4c" transform="translate(774.28125 0)"/>
      <use xlink:href="#DejaVuSans-51" transform="translate(802.0625 0)"/>
      <use xlink:href="#DejaVuSans-4a" transform="translate(865.4375 0)"/>
      <use xlink:href="#DejaVuSans-42" transform="translate(928.921875 0)"/>
      <use xlink:href="#DejaVuSans-52" transform="translate(978.921875 0)"/>
      <use xlink:href="#DejaVuSans-51" transform="translate(1040.109375 0)"/>
      <use xlink:href="#DejaVuSans-4f" transform="translate(1103.484375 0)"/>
      <use xlink:href="#DejaVuSans-5c" transform="translate(1131.265625 0)"/>
     </g>
    </g>
   </g>
   <g id="text_36">
    <!-- Contract-family taxonomy: pooled is not a calibration family -->
    <g style="fill: #132238" transform="translate(7.2 16.318125) scale(0.12 -0.12)">
     <defs>
      <path id="DejaVuSans-Bold-26" d="M 4288 256 
Q 3956 84 3597 -3 
Q 3238 -91 2847 -91 
Q 1681 -91 1000 561 
Q 319 1213 319 2328 
Q 319 3447 1000 4098 
Q 1681 4750 2847 4750 
Q 3238 4750 3597 4662 
Q 3956 4575 4288 4403 
L 4288 3438 
Q 3953 3666 3628 3772 
Q 3303 3878 2944 3878 
Q 2300 3878 1931 3465 
Q 1563 3053 1563 2328 
Q 1563 1606 1931 1193 
Q 2300 781 2944 781 
Q 3303 781 3628 887 
Q 3953 994 4288 1222 
L 4288 256 
z
" transform="scale(0.015625)"/>
      <path id="DejaVuSans-Bold-51" d="M 4056 2131 
L 4056 0 
L 2931 0 
L 2931 347 
L 2931 1631 
Q 2931 2084 2911 2256 
Q 2891 2428 2841 2509 
Q 2775 2619 2662 2680 
Q 2550 2741 2406 2741 
Q 2056 2741 1856 2470 
Q 1656 2200 1656 1722 
L 1656 0 
L 538 0 
L 538 3500 
L 1656 3500 
L 1656 2988 
Q 1909 3294 2193 3439 
Q 2478 3584 2822 3584 
Q 3428 3584 3742 3212 
Q 4056 2841 4056 2131 
z
" transform="scale(0.015625)"/>
      <path id="DejaVuSans-Bold-10" d="M 347 2297 
L 2309 2297 
L 2309 1388 
L 347 1388 
L 347 2297 
z
" transform="scale(0.015625)"/>
      <path id="DejaVuSans-Bold-49" d="M 2841 4863 
L 2841 4128 
L 2222 4128 
Q 1984 4128 1890 4042 
Q 1797 3956 1797 3744 
L 1797 3500 
L 2753 3500 
L 2753 2700 
L 1797 2700 
L 1797 0 
L 678 0 
L 678 2700 
L 122 2700 
L 122 3500 
L 678 3500 
L 678 3744 
Q 678 4316 997 4589 
Q 1316 4863 1984 4863 
L 2841 4863 
z
" transform="scale(0.015625)"/>
      <path id="DejaVuSans-Bold-1d" d="M 716 3500 
L 1844 3500 
L 1844 2291 
L 716 2291 
L 716 3500 
z
M 716 1209 
L 1844 1209 
L 1844 0 
L 716 0 
L 716 1209 
z
" transform="scale(0.015625)"/>
      <path id="DejaVuSans-Bold-47" d="M 2919 2988 
L 2919 4863 
L 4044 4863 
L 4044 0 
L 2919 0 
L 2919 506 
Q 2688 197 2409 53 
Q 2131 -91 1766 -91 
Q 1119 -91 703 423 
Q 288 938 288 1747 
Q 288 2556 703 3070 
Q 1119 3584 1766 3584 
Q 2128 3584 2408 3439 
Q 2688 3294 2919 2988 
z
M 2181 722 
Q 2541 722 2730 984 
Q 2919 1247 2919 1747 
Q 2919 2247 2730 2509 
Q 2541 2772 2181 2772 
Q 1825 2772 1636 2509 
Q 1447 2247 1447 1747 
Q 1447 1247 1636 984 
Q 1825 722 2181 722 
z
" transform="scale(0.015625)"/>
      <path id="DejaVuSans-Bold-56" d="M 3272 3391 
L 3272 2541 
Q 2913 2691 2578 2766 
Q 2244 2841 1947 2841 
Q 1628 2841 1473 2761 
Q 1319 2681 1319 2516 
Q 1319 2381 1436 2309 
Q 1553 2238 1856 2203 
L 2053 2175 
Q 2913 2066 3209 1816 
Q 3506 1566 3506 1031 
Q 3506 472 3093 190 
Q 2681 -91 1863 -91 
Q 1516 -91 1145 -36 
Q 775 19 384 128 
L 384 978 
Q 719 816 1070 734 
Q 1422 653 1784 653 
Q 2113 653 2278 743 
Q 2444 834 2444 1013 
Q 2444 1163 2330 1236 
Q 2216 1309 1875 1350 
L 1678 1375 
Q 931 1469 631 1722 
Q 331 1975 331 2491 
Q 331 3047 712 3315 
Q 1094 3584 1881 3584 
Q 2191 3584 2531 3537 
Q 2872 3491 3272 3391 
z
" transform="scale(0.015625)"/>
      <path id="DejaVuSans-Bold-45" d="M 2400 722 
Q 2759 722 2948 984 
Q 3138 1247 3138 1747 
Q 3138 2247 2948 2509 
Q 2759 2772 2400 2772 
Q 2041 2772 1848 2508 
Q 1656 2244 1656 1747 
Q 1656 1250 1848 986 
Q 2041 722 2400 722 
z
M 1656 2988 
Q 1888 3294 2169 3439 
Q 2450 3584 2816 3584 
Q 3463 3584 3878 3070 
Q 4294 2556 4294 1747 
Q 4294 938 3878 423 
Q 3463 -91 2816 -91 
Q 2450 -91 2169 54 
Q 1888 200 1656 506 
L 1656 0 
L 538 0 
L 538 4863 
L 1656 4863 
L 1656 2988 
z
" transform="scale(0.015625)"/>
     </defs>
     <use xlink:href="#DejaVuSans-Bold-26"/>
     <use xlink:href="#DejaVuSans-Bold-52" transform="translate(73.390625 0)"/>
     <use xlink:href="#DejaVuSans-Bold-51" transform="translate(142.09375 0)"/>
     <use xlink:href="#DejaVuSans-Bold-57" transform="translate(213.28125 0)"/>
     <use xlink:href="#DejaVuSans-Bold-55" transform="translate(261.078125 0)"/>
     <use xlink:href="#DejaVuSans-Bold-44" transform="translate(310.390625 0)"/>
     <use xlink:href="#DejaVuSans-Bold-46" transform="translate(377.875 0)"/>
     <use xlink:href="#DejaVuSans-Bold-57" transform="translate(437.15625 0)"/>
     <use xlink:href="#DejaVuSans-Bold-10" transform="translate(484.953125 0)"/>
     <use xlink:href="#DejaVuSans-Bold-49" transform="translate(526.453125 0)"/>
     <use xlink:href="#DejaVuSans-Bold-44" transform="translate(569.953125 0)"/>
     <use xlink:href="#DejaVuSans-Bold-50" transform="translate(637.4375 0)"/>
     <use xlink:href="#DejaVuSans-Bold-4c" transform="translate(741.640625 0)"/>
     <use xlink:href="#DejaVuSans-Bold-4f" transform="translate(775.921875 0)"/>
     <use xlink:href="#DejaVuSans-Bold-5c" transform="translate(810.203125 0)"/>
     <use xlink:href="#DejaVuSans-Bold-3" transform="translate(875.390625 0)"/>
     <use xlink:href="#DejaVuSans-Bold-57" transform="translate(910.203125 0)"/>
     <use xlink:href="#DejaVuSans-Bold-44" transform="translate(958 0)"/>
     <use xlink:href="#DejaVuSans-Bold-5b" transform="translate(1025.484375 0)"/>
     <use xlink:href="#DejaVuSans-Bold-52" transform="translate(1089.984375 0)"/>
     <use xlink:href="#DejaVuSans-Bold-51" transform="translate(1158.6875 0)"/>
     <use xlink:href="#DejaVuSans-Bold-52" transform="translate(1229.875 0)"/>
     <use xlink:href="#DejaVuSans-Bold-50" transform="translate(1298.578125 0)"/>
     <use xlink:href="#DejaVuSans-Bold-5c" transform="translate(1402.78125 0)"/>
     <use xlink:href="#DejaVuSans-Bold-1d" transform="translate(1467.96875 0)"/>
     <use xlink:href="#DejaVuSans-Bold-3" transform="translate(1507.953125 0)"/>
     <use xlink:href="#DejaVuSans-Bold-53" transform="translate(1542.765625 0)"/>
     <use xlink:href="#DejaVuSans-Bold-52" transform="translate(1614.34375 0)"/>
     <use xlink:href="#DejaVuSans-Bold-52" transform="translate(1683.046875 0)"/>
     <use xlink:href="#DejaVuSans-Bold-4f" transform="translate(1751.75 0)"/>
     <use xlink:href="#DejaVuSans-Bold-48" transform="translate(1786.03125 0)"/>
     <use xlink:href="#DejaVuSans-Bold-47" transform="translate(1853.859375 0)"/>
     <use xlink:href="#DejaVuSans-Bold-3" transform="translate(1925.4375 0)"/>
     <use xlink:href="#DejaVuSans-Bold-4c" transform="translate(1960.25 0)"/>
     <use xlink:href="#DejaVuSans-Bold-56" transform="translate(1994.53125 0)"/>
     <use xlink:href="#DejaVuSans-Bold-3" transform="translate(2054.046875 0)"/>
     <use xlink:href="#DejaVuSans-Bold-51" transform="translate(2088.859375 0)"/>
     <use xlink:href="#DejaVuSans-Bold-52" transform="translate(2160.046875 0)"/>
     <use xlink:href="#DejaVuSans-Bold-57" transform="translate(2228.75 0)"/>
     <use xlink:href="#DejaVuSans-Bold-3" transform="translate(2276.546875 0)"/>
     <use xlink:href="#DejaVuSans-Bold-44" transform="translate(2311.359375 0)"/>
     <use xlink:href="#DejaVuSans-Bold-3" transform="translate(2378.84375 0)"/>
     <use xlink:href="#DejaVuSans-Bold-46" transform="translate(2413.65625 0)"/>
     <use xlink:href="#DejaVuSans-Bold-44" transform="translate(2472.9375 0)"/>
     <use xlink:href="#DejaVuSans-Bold-4f" transform="translate(2540.421875 0)"/>
     <use xlink:href="#DejaVuSans-Bold-4c" transform="translate(2574.703125 0)"/>
     <use xlink:href="#DejaVuSans-Bold-45" transform="translate(2608.984375 0)"/>
     <use xlink:href="#DejaVuSans-Bold-55" transform="translate(2680.5625 0)"/>
     <use xlink:href="#DejaVuSans-Bold-44" transform="translate(2729.875 0)"/>
     <use xlink:href="#DejaVuSans-Bold-57" transform="translate(2797.359375 0)"/>
     <use xlink:href="#DejaVuSans-Bold-4c" transform="translate(2845.15625 0)"/>
     <use xlink:href="#DejaVuSans-Bold-52" transform="translate(2879.4375 0)"/>
     <use xlink:href="#DejaVuSans-Bold-51" transform="translate(2948.140625 0)"/>
     <use xlink:href="#DejaVuSans-Bold-3" transform="translate(3019.328125 0)"/>
     <use xlink:href="#DejaVuSans-Bold-49" transform="translate(3054.140625 0)"/>
     <use xlink:href="#DejaVuSans-Bold-44" transform="translate(3097.640625 0)"/>
     <use xlink:href="#DejaVuSans-Bold-50" transform="translate(3165.125 0)"/>
     <use xlink:href="#DejaVuSans-Bold-4c" transform="translate(3269.328125 0)"/>
     <use xlink:href="#DejaVuSans-Bold-4f" transform="translate(3303.609375 0)"/>
     <use xlink:href="#DejaVuSans-Bold-5c" transform="translate(3337.890625 0)"/>
    </g>
   </g>
  </g>
 </g>
</svg>
