<?xml version="1.0" encoding="utf-8" standalone="no"?>
<!DOCTYPE svg PUBLIC "-//W3C//DTD SVG 1.1//EN"
  "http://www.w3.org/Graphics/SVG/1.1/DTD/svg11.dtd">
<svg xmlns:xlink="http://www.w3.org/1999/xlink" width="814.79952pt" height="310.79952pt" viewBox="0 0 814.79952 310.79952" xmlns="http://www.w3.org/2000/svg" version="1.1">
 <metadata>
  <rdf:RDF xmlns:dc="http://purl.org/dc/elements/1.1/" xmlns:cc="http://creativecommons.org/ns#" xmlns:rdf="http://www.w3.org/1999/02/22-rdf-syntax-ns#">
   <cc:Work>
    <dc:type rdf:resource="http://purl.org/dc/dcmitype/StillImage"/>
    <dc:format>image/svg+xml</dc:format>
    <dc:creator>
     <cc:Agent>
      <dc:title>VolSurf-Pricer evidence builder</dc:title>
     </cc:Agent>
    </dc:creator>
   </cc:Work>
  </rdf:RDF>
 </metadata>
 <defs>
  <style type="text/css">*{stroke-linejoin: round; stroke-linecap: butt}</style>
 </defs>
 <g id="figure_1">
  <g id="patch_1">
   <path d="M 0 310.79952 
L 814.79952 310.79952 
L 814.79952 0 
L 0 0 
z
" style="fill: #f7f3ea"/>
  </g>
  <g id="axes_1">
   <g id="patch_2">
    <path d="M 116.682109 275.098817 
L 439.996627 275.098817 
L 439.996627 38.519402 
L 116.682109 38.519402 
z
" style="fill: #f7f3ea"/>
   </g>
   <g id="matplotlib.axis_1">
    <g id="xtick_1">
     <g id="line2d_1">
      <path d="M 119.609087 275.098817 
L 119.609087 38.519402 
" clip-path="url(#pb4eb196e33)" style="fill: none; stroke: #d5d8d4; stroke-opacity: 0.8; stroke-width: 0.7; stroke-linecap: square"/>
     </g>
     <g id="line2d_2">
      <defs>
       <path id="m905506c83d" d="M 0 0 
L 0 3.5 
" style="stroke: #132238; stroke-width: 0.8"/>
      </defs>
      <g>
       <use xlink:href="#m905506c83d" x="119.609087" y="275.098817" style="fill: #132238; stroke: #132238; stroke-width: 0.8"/>
      </g>
     </g>
     <g id="text_1">
      <!-- −17.5 -->
      <g style="fill: #132238" transform="translate(106.584829 288.556825) scale(0.085 -0.085)">
       <defs>
        <path id="DejaVuSans-c9c" d="M 678 2272 
L 4684 2272 
L 4684 1741 
L 678 1741 
L 678 2272 
z
" transform="scale(0.015625)"/>
        <path id="DejaVuSans-14" d="M 794 531 
L 1825 531 
L 1825 4091 
L 703 3866 
L 703 4441 
L 1819 4666 
L 2450 4666 
L 2450 531 
L 3481 531 
L 3481 0 
L 794 0 
L 794 531 
z
" transform="scale(0.015625)"/>
        <path id="DejaVuSans-1a" d="M 525 4666 
L 3525 4666 
L 3525 4397 
L 1831 0 
L 1172 0 
L 2766 4134 
L 525 4134 
L 525 4666 
z
" transform="scale(0.015625)"/>
        <path id="DejaVuSans-11" d="M 684 794 
L 1344 794 
L 1344 0 
L 684 0 
L 684 794 
z
" transform="scale(0.015625)"/>
        <path id="DejaVuSans-18" d="M 691 4666 
L 3169 4666 
L 3169 4134 
L 1269 4134 
L 1269 2991 
Q 1406 3038 1543 3061 
Q 1681 3084 1819 3084 
Q 2600 3084 3056 2656 
Q 3513 2228 3513 1497 
Q 3513 744 3044 326 
Q 2575 -91 1722 -91 
Q 1428 -91 1123 -41 
Q 819 9 494 109 
L 494 744 
Q 775 591 1075 516 
Q 1375 441 1709 441 
Q 2250 441 2565 725 
Q 2881 1009 2881 1497 
Q 2881 1984 2565 2268 
Q 2250 2553 1709 2553 
Q 1456 2553 1204 2497 
Q 953 2441 691 2322 
L 691 4666 
z
" transform="scale(0.015625)"/>
       </defs>
       <use xlink:href="#DejaVuSans-c9c"/>
       <use xlink:href="#DejaVuSans-14" transform="translate(83.796875 0)"/>
       <use xlink:href="#DejaVuSans-1a" transform="translate(147.421875 0)"/>
       <use xlink:href="#DejaVuSans-11" transform="translate(211.046875 0)"/>
       <use xlink:href="#DejaVuSans-18" transform="translate(242.828125 0)"/>
      </g>
     </g>
    </g>
    <g id="xtick_2">
     <g id="line2d_3">
      <path d="M 156.627082 275.098817 
L 156.627082 38.519402 
" clip-path="url(#pb4eb196e33)" style="fill: none; stroke: #d5d8d4; stroke-opacity: 0.8; stroke-width: 0.7; stroke-linecap: square"/>
     </g>
     <g id="line2d_4">
      <g>
       <use xlink:href="#m905506c83d" x="156.627082" y="275.098817" style="fill: #132238; stroke: #132238; stroke-width: 0.8"/>
      </g>
     </g>
     <g id="text_2">
      <!-- −15.0 -->
      <g style="fill: #132238" transform="translate(143.602824 288.556825) scale(0.085 -0.085)">
       <defs>
        <path id="DejaVuSans-13" d="M 2034 4250 
Q 1547 4250 1301 3770 
Q 1056 3291 1056 2328 
Q 1056 1369 1301 889 
Q 1547 409 2034 409 
Q 2525 409 2770 889 
Q 3016 1369 3016 2328 
Q 3016 3291 2770 3770 
Q 2525 4250 2034 4250 
z
M 2034 4750 
Q 2819 4750 3233 4129 
Q 3647 3509 3647 2328 
Q 3647 1150 3233 529 
Q 2819 -91 2034 -91 
Q 1250 -91 836 529 
Q 422 1150 422 2328 
Q 422 3509 836 4129 
Q 1250 4750 2034 4750 
z
" transform="scale(0.015625)"/>
       </defs>
       <use xlink:href="#DejaVuSans-c9c"/>
       <use xlink:href="#DejaVuSans-14" transform="translate(83.796875 0)"/>
       <use xlink:href="#DejaVuSans-18" transform="translate(147.421875 0)"/>
       <use xlink:href="#DejaVuSans-11" transform="translate(211.046875 0)"/>
       <use xlink:href="#DejaVuSans-13" transform="translate(242.828125 0)"/>
      </g>
     </g>
    </g>
    <g id="xtick_3">
     <g id="line2d_5">
      <path d="M 193.645078 275.098817 
L 193.645078 38.519402 
" clip-path="url(#pb4eb196e33)" style="fill: none; stroke: #d5d8d4; stroke-opacity: 0.8; stroke-width: 0.7; stroke-linecap: square"/>
     </g>
     <g id="line2d_6">
      <g>
       <use xlink:href="#m905506c83d" x="193.645078" y="275.098817" style="fill: #132238; stroke: #132238; stroke-width: 0.8"/>
      </g>
     </g>
     <g id="text_3">
      <!-- −12.5 -->
      <g style="fill: #132238" transform="translate(180.62082 288.556825) scale(0.085 -0.085)">
       <defs>
        <path id="DejaVuSans-15" d="M 1228 531 
L 3431 531 
L 3431 0 
L 469 0 
L 469 531 
Q 828 903 1448 1529 
Q 2069 2156 2228 2338 
Q 2531 2678 2651 2914 
Q 2772 3150 2772 3378 
Q 2772 3750 2511 3984 
Q 2250 4219 1831 4219 
Q 1534 4219 1204 4116 
Q 875 4013 500 3803 
L 500 4441 
Q 881 4594 1212 4672 
Q 1544 4750 1819 4750 
Q 2544 4750 2975 4387 
Q 3406 4025 3406 3419 
Q 3406 3131 3298 2873 
Q 3191 2616 2906 2266 
Q 2828 2175 2409 1742 
Q 1991 1309 1228 531 
z
" transform="scale(0.015625)"/>
       </defs>
       <use xlink:href="#DejaVuSans-c9c"/>
       <use xlink:href="#DejaVuSans-14" transform="translate(83.796875 0)"/>
       <use xlink:href="#DejaVuSans-15" transform="translate(147.421875 0)"/>
       <use xlink:href="#DejaVuSans-11" transform="translate(211.046875 0)"/>
       <use xlink:href="#DejaVuSans-18" transform="translate(242.828125 0)"/>
      </g>
     </g>
    </g>
    <g id="xtick_4">
     <g id="line2d_7">
      <path d="M 230.663073 275.098817 
L 230.663073 38.519402 
" clip-path="url(#pb4eb196e33)" style="fill: none; stroke: #d5d8d4; stroke-opacity: 0.8; stroke-width: 0.7; stroke-linecap: square"/>
     </g>
     <g id="line2d_8">
      <g>
       <use xlink:href="#m905506c83d" x="230.663073" y="275.098817" style="fill: #132238; stroke: #132238; stroke-width: 0.8"/>
      </g>
     </g>
     <g id="text_4">
      <!-- −10.0 -->
      <g style="fill: #132238" transform="translate(217.638815 288.556825) scale(0.085 -0.085)">
       <use xlink:href="#DejaVuSans-c9c"/>
       <use xlink:href="#DejaVuSans-14" transform="translate(83.796875 0)"/>
       <use xlink:href="#DejaVuSans-13" transform="translate(147.421875 0)"/>
       <use xlink:href="#DejaVuSans-11" transform="translate(211.046875 0)"/>
       <use xlink:href="#DejaVuSans-13" transform="translate(242.828125 0)"/>
      </g>
     </g>
    </g>
    <g id="xtick_5">
     <g id="line2d_9">
      <path d="M 267.681068 275.098817 
L 267.681068 38.519402 
" clip-path="url(#pb4eb196e33)" style="fill: none; stroke: #d5d8d4; stroke-opacity: 0.8; stroke-width: 0.7; stroke-linecap: square"/>
     </g>
     <g id="line2d_10">
      <g>
       <use xlink:href="#m905506c83d" x="267.681068" y="275.098817" style="fill: #132238; stroke: #132238; stroke-width: 0.8"/>
      </g>
     </g>
     <g id="text_5">
      <!-- −7.5 -->
      <g style="fill: #132238" transform="translate(257.360873 288.556825) scale(0.085 -0.085)">
       <use xlink:href="#DejaVuSans-c9c"/>
       <use xlink:href="#DejaVuSans-1a" transform="translate(83.796875 0)"/>
       <use xlink:href="#DejaVuSans-11" transform="translate(147.421875 0)"/>
       <use xlink:href="#DejaVuSans-18" transform="translate(179.203125 0)"/>
      </g>
     </g>
    </g>
    <g id="xtick_6">
     <g id="line2d_11">
      <path d="M 304.699064 275.098817 
L 304.699064 38.519402 
" clip-path="url(#pb4eb196e33)" style="fill: none; stroke: #d5d8d4; stroke-opacity: 0.8; stroke-width: 0.7; stroke-linecap: square"/>
     </g>
     <g id="line2d_12">
      <g>
       <use xlink:href="#m905506c83d" x="304.699064" y="275.098817" style="fill: #132238; stroke: #132238; stroke-width: 0.8"/>
      </g>
     </g>
     <g id="text_6">
      <!-- −5.0 -->
      <g style="fill: #132238" transform="translate(294.378868 288.556825) scale(0.085 -0.085)">
       <use xlink:href="#DejaVuSans-c9c"/>
       <use xlink:href="#DejaVuSans-18" transform="translate(83.796875 0)"/>
       <use xlink:href="#DejaVuSans-11" transform="translate(147.421875 0)"/>
       <use xlink:href="#DejaVuSans-13" transform="translate(179.203125 0)"/>
      </g>
     </g>
    </g>
    <g id="xtick_7">
     <g id="line2d_13">
      <path d="M 341.717059 275.098817 
L 341.717059 38.519402 
" clip-path="url(#pb4eb196e33)" style="fill: none; stroke: #d5d8d4; stroke-opacity: 0.8; stroke-width: 0.7; stroke-linecap: square"/>
     </g>
     <g id="line2d_14">
      <g>
       <use xlink:href="#m905506c83d" x="341.717059" y="275.098817" style="fill: #132238; stroke: #132238; stroke-width: 0.8"/>
      </g>
     </g>
     <g id="text_7">
      <!-- −2.5 -->
      <g style="fill: #132238" transform="translate(331.396864 288.556825) scale(0.085 -0.085)">
       <use xlink:href="#DejaVuSans-c9c"/>
       <use xlink:href="#DejaVuSans-15" transform="translate(83.796875 0)"/>
       <use xlink:href="#DejaVuSans-11" transform="translate(147.421875 0)"/>
       <use xlink:href="#DejaVuSans-18" transform="translate(179.203125 0)"/>
      </g>
     </g>
    </g>
    <g id="xtick_8">
     <g id="line2d_15">
      <path d="M 378.735055 275.098817 
L 378.735055 38.519402 
" clip-path="url(#pb4eb196e33)" style="fill: none; stroke: #d5d8d4; stroke-opacity: 0.8; stroke-width: 0.7; stroke-linecap: square"/>
     </g>
     <g id="line2d_16">
      <g>
       <use xlink:href="#m905506c83d" x="378.735055" y="275.098817" style="fill: #132238; stroke: #132238; stroke-width: 0.8"/>
      </g>
     </g>
     <g id="text_8">
      <!-- 0.0 -->
      <g style="fill: #132238" transform="translate(371.976226 288.556825) scale(0.085 -0.085)">
       <use xlink:href="#DejaVuSans-13"/>
       <use xlink:href="#DejaVuSans-11" transform="translate(63.625 0)"/>
       <use xlink:href="#DejaVuSans-13" transform="translate(95.40625 0)"/>
      </g>
     </g>
    </g>
    <g id="xtick_9">
     <g id="line2d_17">
      <path d="M 415.75305 275.098817 
L 415.75305 38.519402 
" clip-path="url(#pb4eb196e33)" style="fill: none; stroke: #d5d8d4; stroke-opacity: 0.8; stroke-width: 0.7; stroke-linecap: square"/>
     </g>
     <g id="line2d_18">
      <g>
       <use xlink:href="#m905506c83d" x="415.75305" y="275.098817" style="fill: #132238; stroke: #132238; stroke-width: 0.8"/>
      </g>
     </g>
     <g id="text_9">
      <!-- 2.5 -->
      <g style="fill: #132238" transform="translate(408.994222 288.556825) scale(0.085 -0.085)">
       <use xlink:href="#DejaVuSans-15"/>
       <use xlink:href="#DejaVuSans-11" transform="translate(63.625 0)"/>
       <use xlink:href="#DejaVuSans-18" transform="translate(95.40625 0)"/>
      </g>
     </g>
    </g>
    <g id="text_10">
     <!-- RMSE improvement: parity minus local-repo -->
     <g style="fill: #132238" transform="translate(179.135462 301.437411) scale(0.09 -0.09)">
      <defs>
       <path id="DejaVuSans-35" d="M 2841 2188 
Q 3044 2119 3236 1894 
Q 3428 1669 3622 1275 
L 4263 0 
L 3584 0 
L 2988 1197 
Q 2756 1666 2539 1819 
Q 2322 1972 1947 1972 
L 1259 1972 
L 1259 0 
L 628 0 
L 628 4666 
L 2053 4666 
Q 2853 4666 3247 4331 
Q 3641 3997 3641 3322 
Q 3641 2881 3436 2590 
Q 3231 2300 2841 2188 
z
M 1259 4147 
L 1259 2491 
L 2053 2491 
Q 2509 2491 2742 2702 
Q 2975 2913 2975 3322 
Q 2975 3731 2742 3939 
Q 2509 4147 2053 4147 
L 1259 4147 
z
" transform="scale(0.015625)"/>
       <path id="DejaVuSans-30" d="M 628 4666 
L 1569 4666 
L 2759 1491 
L 3956 4666 
L 4897 4666 
L 4897 0 
L 4281 0 
L 4281 4097 
L 3078 897 
L 2444 897 
L 1241 4097 
L 1241 0 
L 628 0 
L 628 4666 
z
" transform="scale(0.015625)"/>
       <path id="DejaVuSans-36" d="M 3425 4513 
L 3425 3897 
Q 3066 4069 2747 4153 
Q 2428 4238 2131 4238 
Q 1616 4238 1336 4038 
Q 1056 3838 1056 3469 
Q 1056 3159 1242 3001 
Q 1428 2844 1947 2747 
L 2328 2669 
Q 3034 2534 3370 2195 
Q 3706 1856 3706 1288 
Q 3706 609 3251 259 
Q 2797 -91 1919 -91 
Q 1588 -91 1214 -16 
Q 841 59 441 206 
L 441 856 
Q 825 641 1194 531 
Q 1563 422 1919 422 
Q 2459 422 2753 634 
Q 3047 847 3047 1241 
Q 3047 1584 2836 1778 
Q 2625 1972 2144 2069 
L 1759 2144 
Q 1053 2284 737 2584 
Q 422 2884 422 3419 
Q 422 4038 858 4394 
Q 1294 4750 2059 4750 
Q 2388 4750 2728 4690 
Q 3069 4631 3425 4513 
z
" transform="scale(0.015625)"/>
       <path id="DejaVuSans-28" d="M 628 4666 
L 3578 4666 
L 3578 4134 
L 1259 4134 
L 1259 2753 
L 3481 2753 
L 3481 2222 
L 1259 2222 
L 1259 531 
L 3634 531 
L 3634 0 
L 628 0 
L 628 4666 
z
" transform="scale(0.015625)"/>
       <path id="DejaVuSans-3" transform="scale(0.015625)"/>
       <path id="DejaVuSans-4c" d="M 603 3500 
L 1178 3500 
L 1178 0 
L 603 0 
L 603 3500 
z
M 603 4863 
L 1178 4863 
L 1178 4134 
L 603 4134 
L 603 4863 
z
" transform="scale(0.015625)"/>
       <path id="DejaVuSans-50" d="M 3328 2828 
Q 3544 3216 3844 3400 
Q 4144 3584 4550 3584 
Q 5097 3584 5394 3201 
Q 5691 2819 5691 2113 
L 5691 0 
L 5113 0 
L 5113 2094 
Q 5113 2597 4934 2840 
Q 4756 3084 4391 3084 
Q 3944 3084 3684 2787 
Q 3425 2491 3425 1978 
L 3425 0 
L 2847 0 
L 2847 2094 
Q 2847 2600 2669 2842 
Q 2491 3084 2119 3084 
Q 1678 3084 1418 2786 
Q 1159 2488 1159 1978 
L 1159 0 
L 581 0 
L 581 3500 
L 1159 3500 
L 1159 2956 
Q 1356 3278 1631 3431 
Q 1906 3584 2284 3584 
Q 2666 3584 2933 3390 
Q 3200 3197 3328 2828 
z
" transform="scale(0.015625)"/>
       <path id="DejaVuSans-53" d="M 1159 525 
L 1159 -1331 
L 581 -1331 
L 581 3500 
L 1159 3500 
L 1159 2969 
Q 1341 3281 1617 3432 
Q 1894 3584 2278 3584 
Q 2916 3584 3314 3078 
Q 3713 2572 3713 1747 
Q 3713 922 3314 415 
Q 2916 -91 2278 -91 
Q 1894 -91 1617 61 
Q 1341 213 1159 525 
z
M 3116 1747 
Q 3116 2381 2855 2742 
Q 2594 3103 2138 3103 
Q 1681 3103 1420 2742 
Q 1159 2381 1159 1747 
Q 1159 1113 1420 752 
Q 1681 391 2138 391 
Q 2594 391 2855 752 
Q 3116 1113 3116 1747 
z
" transform="scale(0.015625)"/>
       <path id="DejaVuSans-55" d="M 2631 2963 
Q 2534 3019 2420 3045 
Q 2306 3072 2169 3072 
Q 1681 3072 1420 2755 
Q 1159 2438 1159 1844 
L 1159 0 
L 581 0 
L 581 3500 
L 1159 3500 
L 1159 2956 
Q 1341 3275 1631 3429 
Q 1922 3584 2338 3584 
Q 2397 3584 2469 3576 
Q 2541 3569 2628 3553 
L 2631 2963 
z
" transform="scale(0.015625)"/>
       <path id="DejaVuSans-52" d="M 1959 3097 
Q 1497 3097 1228 2736 
Q 959 2375 959 1747 
Q 959 1119 1226 758 
Q 1494 397 1959 397 
Q 2419 397 2687 759 
Q 2956 1122 2956 1747 
Q 2956 2369 2687 2733 
Q 2419 3097 1959 3097 
z
M 1959 3584 
Q 2709 3584 3137 3096 
Q 3566 2609 3566 1747 
Q 3566 888 3137 398 
Q 2709 -91 1959 -91 
Q 1206 -91 779 398 
Q 353 888 353 1747 
Q 353 2609 779 3096 
Q 1206 3584 1959 3584 
z
" transform="scale(0.015625)"/>
       <path id="DejaVuSans-59" d="M 191 3500 
L 800 3500 
L 1894 563 
L 2988 3500 
L 3597 3500 
L 2284 0 
L 1503 0 
L 191 3500 
z
" transform="scale(0.015625)"/>
       <path id="DejaVuSans-48" d="M 3597 1894 
L 3597 1613 
L 953 1613 
Q 991 1019 1311 708 
Q 1631 397 2203 397 
Q 2534 397 2845 478 
Q 3156 559 3463 722 
L 3463 178 
Q 3153 47 2828 -22 
Q 2503 -91 2169 -91 
Q 1331 -91 842 396 
Q 353 884 353 1716 
Q 353 2575 817 3079 
Q 1281 3584 2069 3584 
Q 2775 3584 3186 3129 
Q 3597 2675 3597 1894 
z
M 3022 2063 
Q 3016 2534 2758 2815 
Q 2500 3097 2075 3097 
Q 1594 3097 1305 2825 
Q 1016 2553 972 2059 
L 3022 2063 
z
" transform="scale(0.015625)"/>
       <path id="DejaVuSans-51" d="M 3513 2113 
L 3513 0 
L 2938 0 
L 2938 2094 
Q 2938 2591 2744 2837 
Q 2550 3084 2163 3084 
Q 1697 3084 1428 2787 
Q 1159 2491 1159 1978 
L 1159 0 
L 581 0 
L 581 3500 
L 1159 3500 
L 1159 2956 
Q 1366 3272 1645 3428 
Q 1925 3584 2291 3584 
Q 2894 3584 3203 3211 
Q 3513 2838 3513 2113 
z
" transform="scale(0.015625)"/>
       <path id="DejaVuSans-57" d="M 1172 4494 
L 1172 3500 
L 2356 3500 
L 2356 3053 
L 1172 3053 
L 1172 1153 
Q 1172 725 1289 603 
Q 1406 481 1766 481 
L 2356 481 
L 2356 0 
L 1766 0 
Q 1100 0 847 248 
Q 594 497 594 1153 
L 594 3053 
L 172 3053 
L 172 3500 
L 594 3500 
L 594 4494 
L 1172 4494 
z
" transform="scale(0.015625)"/>
       <path id="DejaVuSans-1d" d="M 750 794 
L 1409 794 
L 1409 0 
L 750 0 
L 750 794 
z
M 750 3309 
L 1409 3309 
L 1409 2516 
L 750 2516 
L 750 3309 
z
" transform="scale(0.015625)"/>
       <path id="DejaVuSans-44" d="M 2194 1759 
Q 1497 1759 1228 1600 
Q 959 1441 959 1056 
Q 959 750 1161 570 
Q 1363 391 1709 391 
Q 2188 391 2477 730 
Q 2766 1069 2766 1631 
L 2766 1759 
L 2194 1759 
z
M 3341 1997 
L 3341 0 
L 2766 0 
L 2766 531 
Q 2569 213 2275 61 
Q 1981 -91 1556 -91 
Q 1019 -91 701 211 
Q 384 513 384 1019 
Q 384 1609 779 1909 
Q 1175 2209 1959 2209 
L 2766 2209 
L 2766 2266 
Q 2766 2663 2505 2880 
Q 2244 3097 1772 3097 
Q 1472 3097 1187 3025 
Q 903 2953 641 2809 
L 641 3341 
Q 956 3463 1253 3523 
Q 1550 3584 1831 3584 
Q 2591 3584 2966 3190 
Q 3341 2797 3341 1997 
z
" transform="scale(0.015625)"/>
       <path id="DejaVuSans-5c" d="M 2059 -325 
Q 1816 -950 1584 -1140 
Q 1353 -1331 966 -1331 
L 506 -1331 
L 506 -850 
L 844 -850 
Q 1081 -850 1212 -737 
Q 1344 -625 1503 -206 
L 1606 56 
L 191 3500 
L 800 3500 
L 1894 763 
L 2988 3500 
L 3597 3500 
L 2059 -325 
z
" transform="scale(0.015625)"/>
       <path id="DejaVuSans-58" d="M 544 1381 
L 544 3500 
L 1119 3500 
L 1119 1403 
Q 1119 906 1312 657 
Q 1506 409 1894 409 
Q 2359 409 2629 706 
Q 2900 1003 2900 1516 
L 2900 3500 
L 3475 3500 
L 3475 0 
L 2900 0 
L 2900 538 
Q 2691 219 2414 64 
Q 2138 -91 1772 -91 
Q 1169 -91 856 284 
Q 544 659 544 1381 
z
M 1991 3584 
L 1991 3584 
z
" transform="scale(0.015625)"/>
       <path id="DejaVuSans-56" d="M 2834 3397 
L 2834 2853 
Q 2591 2978 2328 3040 
Q 2066 3103 1784 3103 
Q 1356 3103 1142 2972 
Q 928 2841 928 2578 
Q 928 2378 1081 2264 
Q 1234 2150 1697 2047 
L 1894 2003 
Q 2506 1872 2764 1633 
Q 3022 1394 3022 966 
Q 3022 478 2636 193 
Q 2250 -91 1575 -91 
Q 1294 -91 989 -36 
Q 684 19 347 128 
L 347 722 
Q 666 556 975 473 
Q 1284 391 1588 391 
Q 1994 391 2212 530 
Q 2431 669 2431 922 
Q 2431 1156 2273 1281 
Q 2116 1406 1581 1522 
L 1381 1569 
Q 847 1681 609 1914 
Q 372 2147 372 2553 
Q 372 3047 722 3315 
Q 1072 3584 1716 3584 
Q 2034 3584 2315 3537 
Q 2597 3491 2834 3397 
z
" transform="scale(0.015625)"/>
       <path id="DejaVuSans-4f" d="M 603 4863 
L 1178 4863 
L 1178 0 
L 603 0 
L 603 4863 
z
" transform="scale(0.015625)"/>
       <path id="DejaVuSans-46" d="M 3122 3366 
L 3122 2828 
Q 2878 2963 2633 3030 
Q 2388 3097 2138 3097 
Q 1578 3097 1268 2742 
Q 959 2388 959 1747 
Q 959 1106 1268 751 
Q 1578 397 2138 397 
Q 2388 397 2633 464 
Q 2878 531 3122 666 
L 3122 134 
Q 2881 22 2623 -34 
Q 2366 -91 2075 -91 
Q 1284 -91 818 406 
Q 353 903 353 1747 
Q 353 2603 823 3093 
Q 1294 3584 2113 3584 
Q 2378 3584 2631 3529 
Q 2884 3475 3122 3366 
z
" transform="scale(0.015625)"/>
       <path id="DejaVuSans-10" d="M 313 2009 
L 1997 2009 
L 1997 1497 
L 313 1497 
L 313 2009 
z
" transform="scale(0.015625)"/>
      </defs>
      <use xlink:href="#DejaVuSans-35"/>
      <use xlink:href="#DejaVuSans-30" transform="translate(69.484375 0)"/>
      <use xlink:href="#DejaVuSans-36" transform="translate(155.765625 0)"/>
      <use xlink:href="#DejaVuSans-28" transform="translate(219.25 0)"/>
      <use xlink:href="#DejaVuSans-3" transform="translate(282.4375 0)"/>
      <use xlink:href="#DejaVuSans-4c" transform="translate(314.21875 0)"/>
      <use xlink:href="#DejaVuSans-50" transform="translate(342 0)"/>
      <use xlink:href="#DejaVuSans-53" transform="translate(439.40625 0)"/>
      <use xlink:href="#DejaVuSans-55" transform="translate(502.890625 0)"/>
      <use xlink:href="#DejaVuSans-52" transform="translate(541.796875 0)"/>
      <use xlink:href="#DejaVuSans-59" transform="translate(602.984375 0)"/>
      <use xlink:href="#DejaVuSans-48" transform="translate(662.171875 0)"/>
      <use xlink:href="#DejaVuSans-50" transform="translate(723.703125 0)"/>
      <use xlink:href="#DejaVuSans-48" transform="translate(821.109375 0)"/>
      <use xlink:href="#DejaVuSans-51" transform="translate(882.640625 0)"/>
      <use xlink:href="#DejaVuSans-57" transform="translate(946.015625 0)"/>
      <use xlink:href="#DejaVuSans-1d" transform="translate(985.21875 0)"/>
      <use xlink:href="#DejaVuSans-3" transform="translate(1018.90625 0)"/>
      <use xlink:href="#DejaVuSans-53" transform="translate(1050.6875 0)"/>
      <use xlink:href="#DejaVuSans-44" transform="translate(1114.171875 0)"/>
      <use xlink:href="#DejaVuSans-55" transform="translate(1175.453125 0)"/>
      <use xlink:href="#DejaVuSans-4c" transform="translate(1216.5625 0)"/>
      <use xlink:href="#DejaVuSans-57" transform="translate(1244.34375 0)"/>
      <use xlink:href="#DejaVuSans-5c" transform="translate(1283.546875 0)"/>
      <use xlink:href="#DejaVuSans-3" transform="translate(1342.734375 0)"/>
      <use xlink:href="#DejaVuSans-50" transform="translate(1374.515625 0)"/>
      <use xlink:href="#DejaVuSans-4c" transform="translate(1471.921875 0)"/>
      <use xlink:href="#DejaVuSans-51" transform="translate(1499.703125 0)"/>
      <use xlink:href="#DejaVuSans-58" transform="translate(1563.078125 0)"/>
      <use xlink:href="#DejaVuSans-56" transform="translate(1626.453125 0)"/>
      <use xlink:href="#DejaVuSans-3" transform="translate(1678.546875 0)"/>
      <use xlink:href="#DejaVuSans-4f" transform="translate(1710.328125 0)"/>
      <use xlink:href="#DejaVuSans-52" transform="translate(1738.109375 0)"/>
      <use xlink:href="#DejaVuSans-46" transform="translate(1799.296875 0)"/>
      <use xlink:href="#DejaVuSans-44" transform="translate(1854.28125 0)"/>
      <use xlink:href="#DejaVuSans-4f" transform="translate(1915.5625 0)"/>
      <use xlink:href="#DejaVuSans-10" transform="translate(1943.34375 0)"/>
      <use xlink:href="#DejaVuSans-55" transform="translate(1979.421875 0)"/>
      <use xlink:href="#DejaVuSans-48" transform="translate(2018.328125 0)"/>
      <use xlink:href="#DejaVuSans-53" transform="translate(2079.859375 0)"/>
      <use xlink:href="#DejaVuSans-52" transform="translate(2143.34375 0)"/>
     </g>
    </g>
   </g>
   <g id="matplotlib.axis_2">
    <g id="ytick_1">
     <g id="line2d_19">
      <defs>
       <path id="ma763f90058" d="M 0 0 
L -3.5 0 
" style="stroke: #132238; stroke-width: 0.8"/>
      </defs>
      <g>
       <use xlink:href="#ma763f90058" x="116.682109" y="251.440875" style="fill: #132238; stroke: #132238; stroke-width: 0.8"/>
      </g>
     </g>
     <g id="text_11">
      <!-- monthly am standard -->
      <g style="fill: #132238" transform="translate(18.109219 254.670211) scale(0.085 -0.085)">
       <defs>
        <path id="DejaVuSans-4b" d="M 3513 2113 
L 3513 0 
L 2938 0 
L 2938 2094 
Q 2938 2591 2744 2837 
Q 2550 3084 2163 3084 
Q 1697 3084 1428 2787 
Q 1159 2491 1159 1978 
L 1159 0 
L 581 0 
L 581 4863 
L 1159 4863 
L 1159 2956 
Q 1366 3272 1645 3428 
Q 1925 3584 2291 3584 
Q 2894 3584 3203 3211 
Q 3513 2838 3513 2113 
z
" transform="scale(0.015625)"/>
        <path id="DejaVuSans-47" d="M 2906 2969 
L 2906 4863 
L 3481 4863 
L 3481 0 
L 2906 0 
L 2906 525 
Q 2725 213 2448 61 
Q 2172 -91 1784 -91 
Q 1150 -91 751 415 
Q 353 922 353 1747 
Q 353 2572 751 3078 
Q 1150 3584 1784 3584 
Q 2172 3584 2448 3432 
Q 2725 3281 2906 2969 
z
M 947 1747 
Q 947 1113 1208 752 
Q 1469 391 1925 391 
Q 2381 391 2643 752 
Q 2906 1113 2906 1747 
Q 2906 2381 2643 2742 
Q 2381 3103 1925 3103 
Q 1469 3103 1208 2742 
Q 947 2381 947 1747 
z
" transform="scale(0.015625)"/>
       </defs>
       <use xlink:href="#DejaVuSans-50"/>
       <use xlink:href="#DejaVuSans-52" transform="translate(97.40625 0)"/>
       <use xlink:href="#DejaVuSans-51" transform="translate(158.59375 0)"/>
       <use xlink:href="#DejaVuSans-57" transform="translate(221.96875 0)"/>
       <use xlink:href="#DejaVuSans-4b" transform="translate(261.171875 0)"/>
       <use xlink:href="#DejaVuSans-4f" transform="translate(324.546875 0)"/>
       <use xlink:href="#DejaVuSans-5c" transform="translate(352.328125 0)"/>
       <use xlink:href="#DejaVuSans-3" transform="translate(411.515625 0)"/>
       <use xlink:href="#DejaVuSans-44" transform="translate(443.296875 0)"/>
       <use xlink:href="#DejaVuSans-50" transform="translate(504.578125 0)"/>
       <use xlink:href="#DejaVuSans-3" transform="translate(601.984375 0)"/>
       <use xlink:href="#DejaVuSans-56" transform="translate(633.765625 0)"/>
       <use xlink:href="#DejaVuSans-57" transform="translate(685.859375 0)"/>
       <use xlink:href="#DejaVuSans-44" transform="translate(725.0625 0)"/>
       <use xlink:href="#DejaVuSans-51" transform="translate(786.34375 0)"/>
       <use xlink:href="#DejaVuSans-47" transform="translate(849.71875 0)"/>
       <use xlink:href="#DejaVuSans-44" transform="translate(913.203125 0)"/>
       <use xlink:href="#DejaVuSans-55" transform="translate(974.484375 0)"/>
       <use xlink:href="#DejaVuSans-47" transform="translate(1013.84375 0)"/>
      </g>
     </g>
    </g>
    <g id="ytick_2">
     <g id="line2d_20">
      <g>
       <use xlink:href="#ma763f90058" x="116.682109" y="204.124992" style="fill: #132238; stroke: #132238; stroke-width: 0.8"/>
      </g>
     </g>
     <g id="text_12">
      <!-- monthly pm standard -->
      <g style="fill: #132238" transform="translate(17.921953 207.354328) scale(0.085 -0.085)">
       <use xlink:href="#DejaVuSans-50"/>
       <use xlink:href="#DejaVuSans-52" transform="translate(97.40625 0)"/>
       <use xlink:href="#DejaVuSans-51" transform="translate(158.59375 0)"/>
       <use xlink:href="#DejaVuSans-57" transform="translate(221.96875 0)"/>
       <use xlink:href="#DejaVuSans-4b" transform="translate(261.171875 0)"/>
       <use xlink:href="#DejaVuSans-4f" transform="translate(324.546875 0)"/>
       <use xlink:href="#DejaVuSans-5c" transform="translate(352.328125 0)"/>
       <use xlink:href="#DejaVuSans-3" transform="translate(411.515625 0)"/>
       <use xlink:href="#DejaVuSans-53" transform="translate(443.296875 0)"/>
       <use xlink:href="#DejaVuSans-50" transform="translate(506.78125 0)"/>
       <use xlink:href="#DejaVuSans-3" transform="translate(604.1875 0)"/>
       <use xlink:href="#DejaVuSans-56" transform="translate(635.96875 0)"/>
       <use xlink:href="#DejaVuSans-57" transform="translate(688.0625 0)"/>
       <use xlink:href="#DejaVuSans-44" transform="translate(727.265625 0)"/>
       <use xlink:href="#DejaVuSans-51" transform="translate(788.546875 0)"/>
       <use xlink:href="#DejaVuSans-47" transform="translate(851.921875 0)"/>
       <use xlink:href="#DejaVuSans-44" transform="translate(915.40625 0)"/>
       <use xlink:href="#DejaVuSans-55" transform="translate(976.6875 0)"/>
       <use xlink:href="#DejaVuSans-47" transform="translate(1016.046875 0)"/>
      </g>
     </g>
    </g>
    <g id="ytick_3">
     <g id="line2d_21">
      <g>
       <use xlink:href="#ma763f90058" x="116.682109" y="156.809109" style="fill: #132238; stroke: #132238; stroke-width: 0.8"/>
      </g>
     </g>
     <g id="text_13">
      <!-- weekly pm nonstandard -->
      <g style="fill: #132238" transform="translate(7.2 160.038445) scale(0.085 -0.085)">
       <defs>
        <path id="DejaVuSans-5a" d="M 269 3500 
L 844 3500 
L 1563 769 
L 2278 3500 
L 2956 3500 
L 3675 769 
L 4391 3500 
L 4966 3500 
L 4050 0 
L 3372 0 
L 2619 2869 
L 1863 0 
L 1184 0 
L 269 3500 
z
" transform="scale(0.015625)"/>
        <path id="DejaVuSans-4e" d="M 581 4863 
L 1159 4863 
L 1159 1991 
L 2875 3500 
L 3609 3500 
L 1753 1863 
L 3688 0 
L 2938 0 
L 1159 1709 
L 1159 0 
L 581 0 
L 581 4863 
z
" transform="scale(0.015625)"/>
       </defs>
       <use xlink:href="#DejaVuSans-5a"/>
       <use xlink:href="#DejaVuSans-48" transform="translate(81.78125 0)"/>
       <use xlink:href="#DejaVuSans-48" transform="translate(143.3125 0)"/>
       <use xlink:href="#DejaVuSans-4e" transform="translate(204.84375 0)"/>
       <use xlink:href="#DejaVuSans-4f" transform="translate(262.75 0)"/>
       <use xlink:href="#DejaVuSans-5c" transform="translate(290.53125 0)"/>
       <use xlink:href="#DejaVuSans-3" transform="translate(349.71875 0)"/>
       <use xlink:href="#DejaVuSans-53" transform="translate(381.5 0)"/>
       <use xlink:href="#DejaVuSans-50" transform="translate(444.984375 0)"/>
       <use xlink:href="#DejaVuSans-3" transform="translate(542.390625 0)"/>
       <use xlink:href="#DejaVuSans-51" transform="translate(574.171875 0)"/>
       <use xlink:href="#DejaVuSans-52" transform="translate(637.546875 0)"/>
       <use xlink:href="#DejaVuSans-51" transform="translate(698.734375 0)"/>
       <use xlink:href="#DejaVuSans-56" transform="translate(762.109375 0)"/>
       <use xlink:href="#DejaVuSans-57" transform="translate(814.203125 0)"/>
       <use xlink:href="#DejaVuSans-44" transform="translate(853.40625 0)"/>
       <use xlink:href="#DejaVuSans-51" transform="translate(914.6875 0)"/>
       <use xlink:href="#DejaVuSans-47" transform="translate(978.0625 0)"/>
       <use xlink:href="#DejaVuSans-44" transform="translate(1041.546875 0)"/>
       <use xlink:href="#DejaVuSans-55" transform="translate(1102.828125 0)"/>
       <use xlink:href="#DejaVuSans-47" transform="translate(1142.1875 0)"/>
      </g>
     </g>
    </g>
    <g id="ytick_4">
     <g id="line2d_22">
      <g>
       <use xlink:href="#ma763f90058" x="116.682109" y="109.493226" style="fill: #132238; stroke: #132238; stroke-width: 0.8"/>
      </g>
     </g>
     <g id="text_14">
      <!-- eom pm -->
      <g style="fill: #132238" transform="translate(74.594375 112.72223) scale(0.085 -0.085)">
       <use xlink:href="#DejaVuSans-48"/>
       <use xlink:href="#DejaVuSans-52" transform="translate(61.53125 0)"/>
       <use xlink:href="#DejaVuSans-50" transform="translate(122.71875 0)"/>
       <use xlink:href="#DejaVuSans-3" transform="translate(220.125 0)"/>
       <use xlink:href="#DejaVuSans-53" transform="translate(251.90625 0)"/>
       <use xlink:href="#DejaVuSans-50" transform="translate(315.390625 0)"/>
      </g>
     </g>
    </g>
    <g id="ytick_5">
     <g id="line2d_23">
      <g>
       <use xlink:href="#ma763f90058" x="116.682109" y="62.177343" style="fill: #132238; stroke: #132238; stroke-width: 0.8"/>
      </g>
     </g>
     <g id="text_15">
      <!-- quarter end pm -->
      <g style="fill: #132238" transform="translate(43.047422 65.406679) scale(0.085 -0.085)">
       <defs>
        <path id="DejaVuSans-54" d="M 947 1747 
Q 947 1113 1208 752 
Q 1469 391 1925 391 
Q 2381 391 2643 752 
Q 2906 1113 2906 1747 
Q 2906 2381 2643 2742 
Q 2381 3103 1925 3103 
Q 1469 3103 1208 2742 
Q 947 2381 947 1747 
z
M 2906 525 
Q 2725 213 2448 61 
Q 2172 -91 1784 -91 
Q 1150 -91 751 415 
Q 353 922 353 1747 
Q 353 2572 751 3078 
Q 1150 3584 1784 3584 
Q 2172 3584 2448 3432 
Q 2725 3281 2906 2969 
L 2906 3500 
L 3481 3500 
L 3481 -1331 
L 2906 -1331 
L 2906 525 
z
" transform="scale(0.015625)"/>
       </defs>
       <use xlink:href="#DejaVuSans-54"/>
       <use xlink:href="#DejaVuSans-58" transform="translate(63.484375 0)"/>
       <use xlink:href="#DejaVuSans-44" transform="translate(126.859375 0)"/>
       <use xlink:href="#DejaVuSans-55" transform="translate(188.140625 0)"/>
       <use xlink:href="#DejaVuSans-57" transform="translate(229.25 0)"/>
       <use xlink:href="#DejaVuSans-48" transform="translate(268.453125 0)"/>
       <use xlink:href="#DejaVuSans-55" transform="translate(329.984375 0)"/>
       <use xlink:href="#DejaVuSans-3" transform="translate(371.09375 0)"/>
       <use xlink:href="#DejaVuSans-48" transform="translate(402.875 0)"/>
       <use xlink:href="#DejaVuSans-51" transform="translate(464.40625 0)"/>
       <use xlink:href="#DejaVuSans-47" transform="translate(527.78125 0)"/>
       <use xlink:href="#DejaVuSans-3" transform="translate(591.265625 0)"/>
       <use xlink:href="#DejaVuSans-53" transform="translate(623.046875 0)"/>
       <use xlink:href="#DejaVuSans-50" transform="translate(686.53125 0)"/>
      </g>
     </g>
    </g>
   </g>
   <g id="patch_3">
    <path d="M 277.84783 263.269846 
L 277.84783 239.611905 
L 377.982483 239.611905 
L 377.982483 263.269846 
L 277.84783 263.269846 
z
" clip-path="url(#pb4eb196e33)" style="fill: #55a6a1; opacity: 0.75; stroke: #000000; stroke-linejoin: miter"/>
   </g>
   <g id="line2d_24">
    <path d="M 277.84783 251.440875 
L 131.378224 251.440875 
" clip-path="url(#pb4eb196e33)" style="fill: none; stroke: #000000; stroke-linecap: square"/>
   </g>
   <g id="line2d_25">
    <path d="M 377.982483 251.440875 
L 386.007907 251.440875 
" clip-path="url(#pb4eb196e33)" style="fill: none; stroke: #000000; stroke-linecap: square"/>
   </g>
   <g id="line2d_26">
    <path d="M 131.378224 257.355361 
L 131.378224 245.52639 
" clip-path="url(#pb4eb196e33)" style="fill: none; stroke: #000000; stroke-linecap: square"/>
   </g>
   <g id="line2d_27">
    <path d="M 386.007907 257.355361 
L 386.007907 245.52639 
" clip-path="url(#pb4eb196e33)" style="fill: none; stroke: #000000; stroke-linecap: square"/>
   </g>
   <g id="patch_4">
    <path d="M 363.180395 215.953963 
L 363.180395 192.296022 
L 385.861604 192.296022 
L 385.861604 215.953963 
L 363.180395 215.953963 
z
" clip-path="url(#pb4eb196e33)" style="fill: #55a6a1; opacity: 0.75; stroke: #000000; stroke-linejoin: miter"/>
   </g>
   <g id="line2d_28">
    <path d="M 363.180395 204.124992 
L 355.938747 204.124992 
" clip-path="url(#pb4eb196e33)" style="fill: none; stroke: #000000; stroke-linecap: square"/>
   </g>
   <g id="line2d_29">
    <path d="M 385.861604 204.124992 
L 411.143677 204.124992 
" clip-path="url(#pb4eb196e33)" style="fill: none; stroke: #000000; stroke-linecap: square"/>
   </g>
   <g id="line2d_30">
    <path d="M 355.938747 210.039478 
L 355.938747 198.210507 
" clip-path="url(#pb4eb196e33)" style="fill: none; stroke: #000000; stroke-linecap: square"/>
   </g>
   <g id="line2d_31">
    <path d="M 411.143677 210.039478 
L 411.143677 198.210507 
" clip-path="url(#pb4eb196e33)" style="fill: none; stroke: #000000; stroke-linecap: square"/>
   </g>
   <g id="patch_5">
    <path d="M 370.231728 168.63808 
L 370.231728 144.980139 
L 393.437967 144.980139 
L 393.437967 168.63808 
L 370.231728 168.63808 
z
" clip-path="url(#pb4eb196e33)" style="fill: #55a6a1; opacity: 0.75; stroke: #000000; stroke-linejoin: miter"/>
   </g>
   <g id="line2d_32">
    <path d="M 370.231728 156.809109 
L 355.833883 156.809109 
" clip-path="url(#pb4eb196e33)" style="fill: none; stroke: #000000; stroke-linecap: square"/>
   </g>
   <g id="line2d_33">
    <path d="M 393.437967 156.809109 
L 425.300513 156.809109 
" clip-path="url(#pb4eb196e33)" style="fill: none; stroke: #000000; stroke-linecap: square"/>
   </g>
   <g id="line2d_34">
    <path d="M 355.833883 162.723595 
L 355.833883 150.894624 
" clip-path="url(#pb4eb196e33)" style="fill: none; stroke: #000000; stroke-linecap: square"/>
   </g>
   <g id="line2d_35">
    <path d="M 425.300513 162.723595 
L 425.300513 150.894624 
" clip-path="url(#pb4eb196e33)" style="fill: none; stroke: #000000; stroke-linecap: square"/>
   </g>
   <g id="patch_6">
    <path d="M 375.71841 121.322197 
L 375.71841 97.664256 
L 378.994264 97.664256 
L 378.994264 121.322197 
L 375.71841 121.322197 
z
" clip-path="url(#pb4eb196e33)" style="fill: #55a6a1; opacity: 0.75; stroke: #000000; stroke-linejoin: miter"/>
   </g>
   <g id="line2d_36">
    <path d="M 375.71841 109.493226 
L 371.624595 109.493226 
" clip-path="url(#pb4eb196e33)" style="fill: none; stroke: #000000; stroke-linecap: square"/>
   </g>
   <g id="line2d_37">
    <path d="M 378.994264 109.493226 
L 382.415302 109.493226 
" clip-path="url(#pb4eb196e33)" style="fill: none; stroke: #000000; stroke-linecap: square"/>
   </g>
   <g id="line2d_38">
    <path d="M 371.624595 115.407712 
L 371.624595 103.578741 
" clip-path="url(#pb4eb196e33)" style="fill: none; stroke: #000000; stroke-linecap: square"/>
   </g>
   <g id="line2d_39">
    <path d="M 382.415302 115.407712 
L 382.415302 103.578741 
" clip-path="url(#pb4eb196e33)" style="fill: none; stroke: #000000; stroke-linecap: square"/>
   </g>
   <g id="patch_7">
    <path d="M 377.858256 74.006314 
L 377.858256 50.348373 
L 379.979867 50.348373 
L 379.979867 74.006314 
L 377.858256 74.006314 
z
" clip-path="url(#pb4eb196e33)" style="fill: #55a6a1; opacity: 0.75; stroke: #000000; stroke-linejoin: miter"/>
   </g>
   <g id="line2d_40">
    <path d="M 377.858256 62.177343 
L 376.603334 62.177343 
" clip-path="url(#pb4eb196e33)" style="fill: none; stroke: #000000; stroke-linecap: square"/>
   </g>
   <g id="line2d_41">
    <path d="M 379.979867 62.177343 
L 382.24489 62.177343 
" clip-path="url(#pb4eb196e33)" style="fill: none; stroke: #000000; stroke-linecap: square"/>
   </g>
   <g id="line2d_42">
    <path d="M 376.603334 68.091829 
L 376.603334 56.262858 
" clip-path="url(#pb4eb196e33)" style="fill: none; stroke: #000000; stroke-linecap: square"/>
   </g>
   <g id="line2d_43">
    <path d="M 382.24489 68.091829 
L 382.24489 56.262858 
" clip-path="url(#pb4eb196e33)" style="fill: none; stroke: #000000; stroke-linecap: square"/>
   </g>
   <g id="line2d_44">
    <path d="M 378.735055 275.098817 
L 378.735055 38.519402 
" clip-path="url(#pb4eb196e33)" style="fill: none; stroke-dasharray: 3.7,1.6; stroke-dashoffset: 0; stroke: #a73a3a"/>
   </g>
   <g id="line2d_45">
    <path d="M 343.695182 263.269846 
L 343.695182 239.611905 
" clip-path="url(#pb4eb196e33)" style="fill: none; stroke: #ff7f0e"/>
   </g>
   <g id="line2d_46">
    <path d="M 381.162202 215.953963 
L 381.162202 192.296022 
" clip-path="url(#pb4eb196e33)" style="fill: none; stroke: #ff7f0e"/>
   </g>
   <g id="line2d_47">
    <path d="M 378.548765 168.63808 
L 378.548765 144.980139 
" clip-path="url(#pb4eb196e33)" style="fill: none; stroke: #ff7f0e"/>
   </g>
   <g id="line2d_48">
    <path d="M 378.15953 121.322197 
L 378.15953 97.664256 
" clip-path="url(#pb4eb196e33)" style="fill: none; stroke: #ff7f0e"/>
   </g>
   <g id="line2d_49">
    <path d="M 378.623712 74.006314 
L 378.623712 50.348373 
" clip-path="url(#pb4eb196e33)" style="fill: none; stroke: #ff7f0e"/>
   </g>
   <g id="patch_8">
    <path d="M 116.682109 275.098817 
L 116.682109 38.519402 
" style="fill: none; stroke: #132238; stroke-width: 0.8; stroke-linejoin: miter; stroke-linecap: square"/>
   </g>
   <g id="patch_9">
    <path d="M 116.682109 275.098817 
L 439.996627 275.098817 
" style="fill: none; stroke: #132238; stroke-width: 0.8; stroke-linejoin: miter; stroke-linecap: square"/>
   </g>
   <g id="text_16">
    <!-- Exact common-support context deltas -->
    <g style="fill: #132238" transform="translate(149.648743 32.519402) scale(0.12 -0.12)">
     <defs>
      <path id="DejaVuSans-Bold-28" d="M 588 4666 
L 3834 4666 
L 3834 3756 
L 1791 3756 
L 1791 2888 
L 3713 2888 
L 3713 1978 
L 1791 1978 
L 1791 909 
L 3903 909 
L 3903 0 
L 588 0 
L 588 4666 
z
" transform="scale(0.015625)"/>
      <path id="DejaVuSans-Bold-5b" d="M 1422 1791 
L 159 3500 
L 1344 3500 
L 2059 2463 
L 2784 3500 
L 3969 3500 
L 2706 1797 
L 4031 0 
L 2847 0 
L 2059 1106 
L 1281 0 
L 97 0 
L 1422 1791 
z
" transform="scale(0.015625)"/>
      <path id="DejaVuSans-Bold-44" d="M 2106 1575 
Q 1756 1575 1579 1456 
Q 1403 1338 1403 1106 
Q 1403 894 1545 773 
Q 1688 653 1941 653 
Q 2256 653 2472 879 
Q 2688 1106 2688 1447 
L 2688 1575 
L 2106 1575 
z
M 3816 1997 
L 3816 0 
L 2688 0 
L 2688 519 
Q 2463 200 2181 54 
Q 1900 -91 1497 -91 
Q 953 -91 614 226 
Q 275 544 275 1050 
Q 275 1666 698 1953 
Q 1122 2241 2028 2241 
L 2688 2241 
L 2688 2328 
Q 2688 2594 2478 2717 
Q 2269 2841 1825 2841 
Q 1466 2841 1156 2769 
Q 847 2697 581 2553 
L 581 3406 
Q 941 3494 1303 3539 
Q 1666 3584 2028 3584 
Q 2975 3584 3395 3211 
Q 3816 2838 3816 1997 
z
" transform="scale(0.015625)"/>
      <path id="DejaVuSans-Bold-46" d="M 3366 3391 
L 3366 2478 
Q 3138 2634 2908 2709 
Q 2678 2784 2431 2784 
Q 1963 2784 1702 2511 
Q 1441 2238 1441 1747 
Q 1441 1256 1702 982 
Q 1963 709 2431 709 
Q 2694 709 2930 787 
Q 3166 866 3366 1019 
L 3366 103 
Q 3103 6 2833 -42 
Q 2563 -91 2291 -91 
Q 1344 -91 809 395 
Q 275 881 275 1747 
Q 275 2613 809 3098 
Q 1344 3584 2291 3584 
Q 2566 3584 2833 3536 
Q 3100 3488 3366 3391 
z
" transform="scale(0.015625)"/>
      <path id="DejaVuSans-Bold-57" d="M 1759 4494 
L 1759 3500 
L 2913 3500 
L 2913 2700 
L 1759 2700 
L 1759 1216 
Q 1759 972 1856 886 
Q 1953 800 2241 800 
L 2816 800 
L 2816 0 
L 1856 0 
Q 1194 0 917 276 
Q 641 553 641 1216 
L 641 2700 
L 84 2700 
L 84 3500 
L 641 3500 
L 641 4494 
L 1759 4494 
z
" transform="scale(0.015625)"/>
      <path id="DejaVuSans-Bold-3" transform="scale(0.015625)"/>
      <path id="DejaVuSans-Bold-52" d="M 2203 2784 
Q 1831 2784 1636 2517 
Q 1441 2250 1441 1747 
Q 1441 1244 1636 976 
Q 1831 709 2203 709 
Q 2569 709 2762 976 
Q 2956 1244 2956 1747 
Q 2956 2250 2762 2517 
Q 2569 2784 2203 2784 
z
M 2203 3584 
Q 3106 3584 3614 3096 
Q 4122 2609 4122 1747 
Q 4122 884 3614 396 
Q 3106 -91 2203 -91 
Q 1297 -91 786 396 
Q 275 884 275 1747 
Q 275 2609 786 3096 
Q 1297 3584 2203 3584 
z
" transform="scale(0.015625)"/>
      <path id="DejaVuSans-Bold-50" d="M 3781 2919 
Q 3994 3244 4286 3414 
Q 4578 3584 4928 3584 
Q 5531 3584 5847 3212 
Q 6163 2841 6163 2131 
L 6163 0 
L 5038 0 
L 5038 1825 
Q 5041 1866 5042 1909 
Q 5044 1953 5044 2034 
Q 5044 2406 4934 2573 
Q 4825 2741 4581 2741 
Q 4263 2741 4089 2478 
Q 3916 2216 3909 1719 
L 3909 0 
L 2784 0 
L 2784 1825 
Q 2784 2406 2684 2573 
Q 2584 2741 2328 2741 
Q 2006 2741 1831 2477 
Q 1656 2213 1656 1722 
L 1656 0 
L 531 0 
L 531 3500 
L 1656 3500 
L 1656 2988 
Q 1863 3284 2130 3434 
Q 2397 3584 2719 3584 
Q 3081 3584 3359 3409 
Q 3638 3234 3781 2919 
z
" transform="scale(0.015625)"/>
      <path id="DejaVuSans-Bold-51" d="M 4056 2131 
L 4056 0 
L 2931 0 
L 2931 347 
L 2931 1631 
Q 2931 2084 2911 2256 
Q 2891 2428 2841 2509 
Q 2775 2619 2662 2680 
Q 2550 2741 2406 2741 
Q 2056 2741 1856 2470 
Q 1656 2200 1656 1722 
L 1656 0 
L 538 0 
L 538 3500 
L 1656 3500 
L 1656 2988 
Q 1909 3294 2193 3439 
Q 2478 3584 2822 3584 
Q 3428 3584 3742 3212 
Q 4056 2841 4056 2131 
z
" transform="scale(0.015625)"/>
      <path id="DejaVuSans-Bold-10" d="M 347 2297 
L 2309 2297 
L 2309 1388 
L 347 1388 
L 347 2297 
z
" transform="scale(0.015625)"/>
      <path id="DejaVuSans-Bold-56" d="M 3272 3391 
L 3272 2541 
Q 2913 2691 2578 2766 
Q 2244 2841 1947 2841 
Q 1628 2841 1473 2761 
Q 1319 2681 1319 2516 
Q 1319 2381 1436 2309 
Q 1553 2238 1856 2203 
L 2053 2175 
Q 2913 2066 3209 1816 
Q 3506 1566 3506 1031 
Q 3506 472 3093 190 
Q 2681 -91 1863 -91 
Q 1516 -91 1145 -36 
Q 775 19 384 128 
L 384 978 
Q 719 816 1070 734 
Q 1422 653 1784 653 
Q 2113 653 2278 743 
Q 2444 834 2444 1013 
Q 2444 1163 2330 1236 
Q 2216 1309 1875 1350 
L 1678 1375 
Q 931 1469 631 1722 
Q 331 1975 331 2491 
Q 331 3047 712 3315 
Q 1094 3584 1881 3584 
Q 2191 3584 2531 3537 
Q 2872 3491 3272 3391 
z
" transform="scale(0.015625)"/>
      <path id="DejaVuSans-Bold-58" d="M 500 1363 
L 500 3500 
L 1625 3500 
L 1625 3150 
Q 1625 2866 1622 2436 
Q 1619 2006 1619 1863 
Q 1619 1441 1641 1255 
Q 1663 1069 1716 984 
Q 1784 875 1895 815 
Q 2006 756 2150 756 
Q 2500 756 2700 1025 
Q 2900 1294 2900 1772 
L 2900 3500 
L 4019 3500 
L 4019 0 
L 2900 0 
L 2900 506 
Q 2647 200 2364 54 
Q 2081 -91 1741 -91 
Q 1134 -91 817 281 
Q 500 653 500 1363 
z
" transform="scale(0.015625)"/>
      <path id="DejaVuSans-Bold-53" d="M 1656 506 
L 1656 -1331 
L 538 -1331 
L 538 3500 
L 1656 3500 
L 1656 2988 
Q 1888 3294 2169 3439 
Q 2450 3584 2816 3584 
Q 3463 3584 3878 3070 
Q 4294 2556 4294 1747 
Q 4294 938 3878 423 
Q 3463 -91 2816 -91 
Q 2450 -91 2169 54 
Q 1888 200 1656 506 
z
M 2400 2772 
Q 2041 2772 1848 2508 
Q 1656 2244 1656 1747 
Q 1656 1250 1848 986 
Q 2041 722 2400 722 
Q 2759 722 2948 984 
Q 3138 1247 3138 1747 
Q 3138 2247 2948 2509 
Q 2759 2772 2400 2772 
z
" transform="scale(0.015625)"/>
      <path id="DejaVuSans-Bold-55" d="M 3138 2547 
Q 2991 2616 2845 2648 
Q 2700 2681 2553 2681 
Q 2122 2681 1889 2404 
Q 1656 2128 1656 1613 
L 1656 0 
L 538 0 
L 538 3500 
L 1656 3500 
L 1656 2925 
Q 1872 3269 2151 3426 
Q 2431 3584 2822 3584 
Q 2878 3584 2943 3579 
Q 3009 3575 3134 3559 
L 3138 2547 
z
" transform="scale(0.015625)"/>
      <path id="DejaVuSans-Bold-48" d="M 4031 1759 
L 4031 1441 
L 1416 1441 
Q 1456 1047 1700 850 
Q 1944 653 2381 653 
Q 2734 653 3104 758 
Q 3475 863 3866 1075 
L 3866 213 
Q 3469 63 3072 -14 
Q 2675 -91 2278 -91 
Q 1328 -91 801 392 
Q 275 875 275 1747 
Q 275 2603 792 3093 
Q 1309 3584 2216 3584 
Q 3041 3584 3536 3087 
Q 4031 2591 4031 1759 
z
M 2881 2131 
Q 2881 2450 2695 2645 
Q 2509 2841 2209 2841 
Q 1884 2841 1681 2658 
Q 1478 2475 1428 2131 
L 2881 2131 
z
" transform="scale(0.015625)"/>
      <path id="DejaVuSans-Bold-47" d="M 2919 2988 
L 2919 4863 
L 4044 4863 
L 4044 0 
L 2919 0 
L 2919 506 
Q 2688 197 2409 53 
Q 2131 -91 1766 -91 
Q 1119 -91 703 423 
Q 288 938 288 1747 
Q 288 2556 703 3070 
Q 1119 3584 1766 3584 
Q 2128 3584 2408 3439 
Q 2688 3294 2919 2988 
z
M 2181 722 
Q 2541 722 2730 984 
Q 2919 1247 2919 1747 
Q 2919 2247 2730 2509 
Q 2541 2772 2181 2772 
Q 1825 2772 1636 2509 
Q 1447 2247 1447 1747 
Q 1447 1247 1636 984 
Q 1825 722 2181 722 
z
" transform="scale(0.015625)"/>
      <path id="DejaVuSans-Bold-4f" d="M 538 4863 
L 1656 4863 
L 1656 0 
L 538 0 
L 538 4863 
z
" transform="scale(0.015625)"/>
     </defs>
     <use xlink:href="#DejaVuSans-Bold-28"/>
     <use xlink:href="#DejaVuSans-Bold-5b" transform="translate(68.3125 0)"/>
     <use xlink:href="#DejaVuSans-Bold-44" transform="translate(132.8125 0)"/>
     <use xlink:href="#DejaVuSans-Bold-46" transform="translate(200.296875 0)"/>
     <use xlink:href="#DejaVuSans-Bold-57" transform="translate(259.578125 0)"/>
     <use xlink:href="#DejaVuSans-Bold-3" transform="translate(307.375 0)"/>
     <use xlink:href="#DejaVuSans-Bold-46" transform="translate(342.1875 0)"/>
     <use xlink:href="#DejaVuSans-Bold-52" transform="translate(401.46875 0)"/>
     <use xlink:href="#DejaVuSans-Bold-50" transform="translate(470.171875 0)"/>
     <use xlink:href="#DejaVuSans-Bold-50" transform="translate(574.375 0)"/>
     <use xlink:href="#DejaVuSans-Bold-52" transform="translate(678.578125 0)"/>
     <use xlink:href="#DejaVuSans-Bold-51" transform="translate(747.28125 0)"/>
     <use xlink:href="#DejaVuSans-Bold-10" transform="translate(818.46875 0)"/>
     <use xlink:href="#DejaVuSans-Bold-56" transform="translate(859.96875 0)"/>
     <use xlink:href="#DejaVuSans-Bold-58" transform="translate(919.484375 0)"/>
     <use xlink:href="#DejaVuSans-Bold-53" transform="translate(990.671875 0)"/>
     <use xlink:href="#DejaVuSans-Bold-53" transform="translate(1062.25 0)"/>
     <use xlink:href="#DejaVuSans-Bold-52" transform="translate(1133.828125 0)"/>
     <use xlink:href="#DejaVuSans-Bold-55" transform="translate(1202.53125 0)"/>
     <use xlink:href="#DejaVuSans-Bold-57" transform="translate(1251.84375 0)"/>
     <use xlink:href="#DejaVuSans-Bold-3" transform="translate(1299.640625 0)"/>
     <use xlink:href="#DejaVuSans-Bold-46" transform="translate(1334.453125 0)"/>
     <use xlink:href="#DejaVuSans-Bold-52" transform="translate(1393.734375 0)"/>
     <use xlink:href="#DejaVuSans-Bold-51" transform="translate(1462.4375 0)"/>
     <use xlink:href="#DejaVuSans-Bold-57" transform="translate(1533.625 0)"/>
     <use xlink:href="#DejaVuSans-Bold-48" transform="translate(1581.421875 0)"/>
     <use xlink:href="#DejaVuSans-Bold-5b" transform="translate(1649.25 0)"/>
     <use xlink:href="#DejaVuSans-Bold-57" transform="translate(1713.75 0)"/>
     <use xlink:href="#DejaVuSans-Bold-3" transform="translate(1761.546875 0)"/>
     <use xlink:href="#DejaVuSans-Bold-47" transform="translate(1796.359375 0)"/>
     <use xlink:href="#DejaVuSans-Bold-48" transform="translate(1867.9375 0)"/>
     <use xlink:href="#DejaVuSans-Bold-4f" transform="translate(1935.765625 0)"/>
     <use xlink:href="#DejaVuSans-Bold-57" transform="translate(1970.046875 0)"/>
     <use xlink:href="#DejaVuSans-Bold-44" transform="translate(2017.84375 0)"/>
     <use xlink:href="#DejaVuSans-Bold-56" transform="translate(2085.328125 0)"/>
    </g>
   </g>
  </g>
  <g id="axes_2">
   <g id="patch_10">
    <path d="M 484.285002 275.098817 
L 807.59952 275.098817 
L 807.59952 38.519402 
L 484.285002 38.519402 
z
" style="fill: #f7f3ea"/>
   </g>
   <g id="patch_11">
    <path d="M 498.981117 275.098817 
L 519.975566 275.098817 
L 519.975566 275.098817 
L 498.981117 275.098817 
z
" clip-path="url(#pc217f0cba3)" style="fill: #d8b46a; opacity: 0.9"/>
   </g>
   <g id="patch_12">
    <path d="M 519.975566 275.098817 
L 540.970015 275.098817 
L 540.970015 273.847074 
L 519.975566 273.847074 
z
" clip-path="url(#pc217f0cba3)" style="fill: #d8b46a; opacity: 0.9"/>
   </g>
   <g id="patch_13">
    <path d="M 540.970015 275.098817 
L 561.964464 275.098817 
L 561.964464 275.098817 
L 540.970015 275.098817 
z
" clip-path="url(#pc217f0cba3)" style="fill: #d8b46a; opacity: 0.9"/>
   </g>
   <g id="patch_14">
    <path d="M 561.964464 275.098817 
L 582.958913 275.098817 
L 582.958913 275.098817 
L 561.964464 275.098817 
z
" clip-path="url(#pc217f0cba3)" style="fill: #d8b46a; opacity: 0.9"/>
   </g>
   <g id="patch_15">
    <path d="M 582.958913 275.098817 
L 603.953363 275.098817 
L 603.953363 273.847074 
L 582.958913 273.847074 
z
" clip-path="url(#pc217f0cba3)" style="fill: #d8b46a; opacity: 0.9"/>
   </g>
   <g id="patch_16">
    <path d="M 603.953363 275.098817 
L 624.947812 275.098817 
L 624.947812 273.847074 
L 603.953363 273.847074 
z
" clip-path="url(#pc217f0cba3)" style="fill: #d8b46a; opacity: 0.9"/>
   </g>
   <g id="patch_17">
    <path d="M 624.947812 275.098817 
L 645.942261 275.098817 
L 645.942261 271.343588 
L 624.947812 271.343588 
z
" clip-path="url(#pc217f0cba3)" style="fill: #d8b46a; opacity: 0.9"/>
   </g>
   <g id="patch_18">
    <path d="M 645.942261 275.098817 
L 666.93671 275.098817 
L 666.93671 273.847074 
L 645.942261 273.847074 
z
" clip-path="url(#pc217f0cba3)" style="fill: #d8b46a; opacity: 0.9"/>
   </g>
   <g id="patch_19">
    <path d="M 666.93671 275.098817 
L 687.93116 275.098817 
L 687.93116 275.098817 
L 666.93671 275.098817 
z
" clip-path="url(#pc217f0cba3)" style="fill: #d8b46a; opacity: 0.9"/>
   </g>
   <g id="patch_20">
    <path d="M 687.93116 275.098817 
L 708.925609 275.098817 
L 708.925609 275.098817 
L 687.93116 275.098817 
z
" clip-path="url(#pc217f0cba3)" style="fill: #d8b46a; opacity: 0.9"/>
   </g>
   <g id="patch_21">
    <path d="M 708.925609 275.098817 
L 729.920058 275.098817 
L 729.920058 275.098817 
L 708.925609 275.098817 
z
" clip-path="url(#pc217f0cba3)" style="fill: #d8b46a; opacity: 0.9"/>
   </g>
   <g id="patch_22">
    <path d="M 729.920058 275.098817 
L 750.914507 275.098817 
L 750.914507 272.595331 
L 729.920058 272.595331 
z
" clip-path="url(#pc217f0cba3)" style="fill: #d8b46a; opacity: 0.9"/>
   </g>
   <g id="patch_23">
    <path d="M 750.914507 275.098817 
L 771.908956 275.098817 
L 771.908956 258.826159 
L 750.914507 258.826159 
z
" clip-path="url(#pc217f0cba3)" style="fill: #d8b46a; opacity: 0.9"/>
   </g>
   <g id="patch_24">
    <path d="M 771.908956 275.098817 
L 792.903406 275.098817 
L 792.903406 49.785088 
L 771.908956 49.785088 
z
" clip-path="url(#pc217f0cba3)" style="fill: #d8b46a; opacity: 0.9"/>
   </g>
   <g id="matplotlib.axis_3">
    <g id="xtick_10">
     <g id="line2d_50">
      <g>
       <use xlink:href="#m905506c83d" x="498.981117" y="275.098817" style="fill: #132238; stroke: #132238; stroke-width: 0.8"/>
      </g>
     </g>
     <g id="text_17">
      <!-- 0.3 -->
      <g style="fill: #132238" transform="translate(492.222289 288.556825) scale(0.085 -0.085)">
       <defs>
        <path id="DejaVuSans-16" d="M 2597 2516 
Q 3050 2419 3304 2112 
Q 3559 1806 3559 1356 
Q 3559 666 3084 287 
Q 2609 -91 1734 -91 
Q 1441 -91 1130 -33 
Q 819 25 488 141 
L 488 750 
Q 750 597 1062 519 
Q 1375 441 1716 441 
Q 2309 441 2620 675 
Q 2931 909 2931 1356 
Q 2931 1769 2642 2001 
Q 2353 2234 1838 2234 
L 1294 2234 
L 1294 2753 
L 1863 2753 
Q 2328 2753 2575 2939 
Q 2822 3125 2822 3475 
Q 2822 3834 2567 4026 
Q 2313 4219 1838 4219 
Q 1578 4219 1281 4162 
Q 984 4106 628 3988 
L 628 4550 
Q 988 4650 1302 4700 
Q 1616 4750 1894 4750 
Q 2613 4750 3031 4423 
Q 3450 4097 3450 3541 
Q 3450 3153 3228 2886 
Q 3006 2619 2597 2516 
z
" transform="scale(0.015625)"/>
       </defs>
       <use xlink:href="#DejaVuSans-13"/>
       <use xlink:href="#DejaVuSans-11" transform="translate(63.625 0)"/>
       <use xlink:href="#DejaVuSans-16" transform="translate(95.40625 0)"/>
      </g>
     </g>
    </g>
    <g id="xtick_11">
     <g id="line2d_51">
      <g>
       <use xlink:href="#m905506c83d" x="540.970015" y="275.098817" style="fill: #132238; stroke: #132238; stroke-width: 0.8"/>
      </g>
     </g>
     <g id="text_18">
      <!-- 0.4 -->
      <g style="fill: #132238" transform="translate(534.211187 288.556825) scale(0.085 -0.085)">
       <defs>
        <path id="DejaVuSans-17" d="M 2419 4116 
L 825 1625 
L 2419 1625 
L 2419 4116 
z
M 2253 4666 
L 3047 4666 
L 3047 1625 
L 3713 1625 
L 3713 1100 
L 3047 1100 
L 3047 0 
L 2419 0 
L 2419 1100 
L 313 1100 
L 313 1709 
L 2253 4666 
z
" transform="scale(0.015625)"/>
       </defs>
       <use xlink:href="#DejaVuSans-13"/>
       <use xlink:href="#DejaVuSans-11" transform="translate(63.625 0)"/>
       <use xlink:href="#DejaVuSans-17" transform="translate(95.40625 0)"/>
      </g>
     </g>
    </g>
    <g id="xtick_12">
     <g id="line2d_52">
      <g>
       <use xlink:href="#m905506c83d" x="582.958913" y="275.098817" style="fill: #132238; stroke: #132238; stroke-width: 0.8"/>
      </g>
     </g>
     <g id="text_19">
      <!-- 0.5 -->
      <g style="fill: #132238" transform="translate(576.200085 288.556825) scale(0.085 -0.085)">
       <use xlink:href="#DejaVuSans-13"/>
       <use xlink:href="#DejaVuSans-11" transform="translate(63.625 0)"/>
       <use xlink:href="#DejaVuSans-18" transform="translate(95.40625 0)"/>
      </g>
     </g>
    </g>
    <g id="xtick_13">
     <g id="line2d_53">
      <g>
       <use xlink:href="#m905506c83d" x="624.947812" y="275.098817" style="fill: #132238; stroke: #132238; stroke-width: 0.8"/>
      </g>
     </g>
     <g id="text_20">
      <!-- 0.6 -->
      <g style="fill: #132238" transform="translate(618.188984 288.556825) scale(0.085 -0.085)">
       <defs>
        <path id="DejaVuSans-19" d="M 2113 2584 
Q 1688 2584 1439 2293 
Q 1191 2003 1191 1497 
Q 1191 994 1439 701 
Q 1688 409 2113 409 
Q 2538 409 2786 701 
Q 3034 994 3034 1497 
Q 3034 2003 2786 2293 
Q 2538 2584 2113 2584 
z
M 3366 4563 
L 3366 3988 
Q 3128 4100 2886 4159 
Q 2644 4219 2406 4219 
Q 1781 4219 1451 3797 
Q 1122 3375 1075 2522 
Q 1259 2794 1537 2939 
Q 1816 3084 2150 3084 
Q 2853 3084 3261 2657 
Q 3669 2231 3669 1497 
Q 3669 778 3244 343 
Q 2819 -91 2113 -91 
Q 1303 -91 875 529 
Q 447 1150 447 2328 
Q 447 3434 972 4092 
Q 1497 4750 2381 4750 
Q 2619 4750 2861 4703 
Q 3103 4656 3366 4563 
z
" transform="scale(0.015625)"/>
       </defs>
       <use xlink:href="#DejaVuSans-13"/>
       <use xlink:href="#DejaVuSans-11" transform="translate(63.625 0)"/>
       <use xlink:href="#DejaVuSans-19" transform="translate(95.40625 0)"/>
      </g>
     </g>
    </g>
    <g id="xtick_14">
     <g id="line2d_54">
      <g>
       <use xlink:href="#m905506c83d" x="666.93671" y="275.098817" style="fill: #132238; stroke: #132238; stroke-width: 0.8"/>
      </g>
     </g>
     <g id="text_21">
      <!-- 0.7 -->
      <g style="fill: #132238" transform="translate(660.177882 288.556825) scale(0.085 -0.085)">
       <use xlink:href="#DejaVuSans-13"/>
       <use xlink:href="#DejaVuSans-11" transform="translate(63.625 0)"/>
       <use xlink:href="#DejaVuSans-1a" transform="translate(95.40625 0)"/>
      </g>
     </g>
    </g>
    <g id="xtick_15">
     <g id="line2d_55">
      <g>
       <use xlink:href="#m905506c83d" x="708.925609" y="275.098817" style="fill: #132238; stroke: #132238; stroke-width: 0.8"/>
      </g>
     </g>
     <g id="text_22">
      <!-- 0.8 -->
      <g style="fill: #132238" transform="translate(702.166781 288.556825) scale(0.085 -0.085)">
       <defs>
        <path id="DejaVuSans-1b" d="M 2034 2216 
Q 1584 2216 1326 1975 
Q 1069 1734 1069 1313 
Q 1069 891 1326 650 
Q 1584 409 2034 409 
Q 2484 409 2743 651 
Q 3003 894 3003 1313 
Q 3003 1734 2745 1975 
Q 2488 2216 2034 2216 
z
M 1403 2484 
Q 997 2584 770 2862 
Q 544 3141 544 3541 
Q 544 4100 942 4425 
Q 1341 4750 2034 4750 
Q 2731 4750 3128 4425 
Q 3525 4100 3525 3541 
Q 3525 3141 3298 2862 
Q 3072 2584 2669 2484 
Q 3125 2378 3379 2068 
Q 3634 1759 3634 1313 
Q 3634 634 3220 271 
Q 2806 -91 2034 -91 
Q 1263 -91 848 271 
Q 434 634 434 1313 
Q 434 1759 690 2068 
Q 947 2378 1403 2484 
z
M 1172 3481 
Q 1172 3119 1398 2916 
Q 1625 2713 2034 2713 
Q 2441 2713 2670 2916 
Q 2900 3119 2900 3481 
Q 2900 3844 2670 4047 
Q 2441 4250 2034 4250 
Q 1625 4250 1398 4047 
Q 1172 3844 1172 3481 
z
" transform="scale(0.015625)"/>
       </defs>
       <use xlink:href="#DejaVuSans-13"/>
       <use xlink:href="#DejaVuSans-11" transform="translate(63.625 0)"/>
       <use xlink:href="#DejaVuSans-1b" transform="translate(95.40625 0)"/>
      </g>
     </g>
    </g>
    <g id="xtick_16">
     <g id="line2d_56">
      <g>
       <use xlink:href="#m905506c83d" x="750.914507" y="275.098817" style="fill: #132238; stroke: #132238; stroke-width: 0.8"/>
      </g>
     </g>
     <g id="text_23">
      <!-- 0.9 -->
      <g style="fill: #132238" transform="translate(744.155679 288.556825) scale(0.085 -0.085)">
       <defs>
        <path id="DejaVuSans-1c" d="M 703 97 
L 703 672 
Q 941 559 1184 500 
Q 1428 441 1663 441 
Q 2288 441 2617 861 
Q 2947 1281 2994 2138 
Q 2813 1869 2534 1725 
Q 2256 1581 1919 1581 
Q 1219 1581 811 2004 
Q 403 2428 403 3163 
Q 403 3881 828 4315 
Q 1253 4750 1959 4750 
Q 2769 4750 3195 4129 
Q 3622 3509 3622 2328 
Q 3622 1225 3098 567 
Q 2575 -91 1691 -91 
Q 1453 -91 1209 -44 
Q 966 3 703 97 
z
M 1959 2075 
Q 2384 2075 2632 2365 
Q 2881 2656 2881 3163 
Q 2881 3666 2632 3958 
Q 2384 4250 1959 4250 
Q 1534 4250 1286 3958 
Q 1038 3666 1038 3163 
Q 1038 2656 1286 2365 
Q 1534 2075 1959 2075 
z
" transform="scale(0.015625)"/>
       </defs>
       <use xlink:href="#DejaVuSans-13"/>
       <use xlink:href="#DejaVuSans-11" transform="translate(63.625 0)"/>
       <use xlink:href="#DejaVuSans-1c" transform="translate(95.40625 0)"/>
      </g>
     </g>
    </g>
    <g id="xtick_17">
     <g id="line2d_57">
      <g>
       <use xlink:href="#m905506c83d" x="792.903406" y="275.098817" style="fill: #132238; stroke: #132238; stroke-width: 0.8"/>
      </g>
     </g>
     <g id="text_24">
      <!-- 1.0 -->
      <g style="fill: #132238" transform="translate(786.144577 288.556825) scale(0.085 -0.085)">
       <use xlink:href="#DejaVuSans-14"/>
       <use xlink:href="#DejaVuSans-11" transform="translate(63.625 0)"/>
       <use xlink:href="#DejaVuSans-13" transform="translate(95.40625 0)"/>
      </g>
     </g>
    </g>
    <g id="text_25">
     <!-- common-support ratio to smaller basket -->
     <g style="fill: #132238" transform="translate(555.286949 301.437411) scale(0.09 -0.09)">
      <defs>
       <path id="DejaVuSans-45" d="M 3116 1747 
Q 3116 2381 2855 2742 
Q 2594 3103 2138 3103 
Q 1681 3103 1420 2742 
Q 1159 2381 1159 1747 
Q 1159 1113 1420 752 
Q 1681 391 2138 391 
Q 2594 391 2855 752 
Q 3116 1113 3116 1747 
z
M 1159 2969 
Q 1341 3281 1617 3432 
Q 1894 3584 2278 3584 
Q 2916 3584 3314 3078 
Q 3713 2572 3713 1747 
Q 3713 922 3314 415 
Q 2916 -91 2278 -91 
Q 1894 -91 1617 61 
Q 1341 213 1159 525 
L 1159 0 
L 581 0 
L 581 4863 
L 1159 4863 
L 1159 2969 
z
" transform="scale(0.015625)"/>
      </defs>
      <use xlink:href="#DejaVuSans-46"/>
      <use xlink:href="#DejaVuSans-52" transform="translate(54.984375 0)"/>
      <use xlink:href="#DejaVuSans-50" transform="translate(116.171875 0)"/>
      <use xlink:href="#DejaVuSans-50" transform="translate(213.578125 0)"/>
      <use xlink:href="#DejaVuSans-52" transform="translate(310.984375 0)"/>
      <use xlink:href="#DejaVuSans-51" transform="translate(372.171875 0)"/>
      <use xlink:href="#DejaVuSans-10" transform="translate(435.546875 0)"/>
      <use xlink:href="#DejaVuSans-56" transform="translate(471.625 0)"/>
      <use xlink:href="#DejaVuSans-58" transform="translate(523.71875 0)"/>
      <use xlink:href="#DejaVuSans-53" transform="translate(587.09375 0)"/>
      <use xlink:href="#DejaVuSans-53" transform="translate(650.578125 0)"/>
      <use xlink:href="#DejaVuSans-52" transform="translate(714.0625 0)"/>
      <use xlink:href="#DejaVuSans-55" transform="translate(775.25 0)"/>
      <use xlink:href="#DejaVuSans-57" transform="translate(816.359375 0)"/>
      <use xlink:href="#DejaVuSans-3" transform="translate(855.5625 0)"/>
      <use xlink:href="#DejaVuSans-55" transform="translate(887.34375 0)"/>
      <use xlink:href="#DejaVuSans-44" transform="translate(928.453125 0)"/>
      <use xlink:href="#DejaVuSans-57" transform="translate(989.734375 0)"/>
      <use xlink:href="#DejaVuSans-4c" transform="translate(1028.9375 0)"/>
      <use xlink:href="#DejaVuSans-52" transform="translate(1056.71875 0)"/>
      <use xlink:href="#DejaVuSans-3" transform="translate(1117.90625 0)"/>
      <use xlink:href="#DejaVuSans-57" transform="translate(1149.6875 0)"/>
      <use xlink:href="#DejaVuSans-52" transform="translate(1188.890625 0)"/>
      <use xlink:href="#DejaVuSans-3" transform="translate(1250.078125 0)"/>
      <use xlink:href="#DejaVuSans-56" transform="translate(1281.859375 0)"/>
      <use xlink:href="#DejaVuSans-50" transform="translate(1333.953125 0)"/>
      <use xlink:href="#DejaVuSans-44" transform="translate(1431.359375 0)"/>
      <use xlink:href="#DejaVuSans-4f" transform="translate(1492.640625 0)"/>
      <use xlink:href="#DejaVuSans-4f" transform="translate(1520.421875 0)"/>
      <use xlink:href="#DejaVuSans-48" transform="translate(1548.203125 0)"/>
      <use xlink:href="#DejaVuSans-55" transform="translate(1609.734375 0)"/>
      <use xlink:href="#DejaVuSans-3" transform="translate(1650.84375 0)"/>
      <use xlink:href="#DejaVuSans-45" transform="translate(1682.625 0)"/>
      <use xlink:href="#DejaVuSans-44" transform="translate(1746.109375 0)"/>
      <use xlink:href="#DejaVuSans-56" transform="translate(1807.390625 0)"/>
      <use xlink:href="#DejaVuSans-4e" transform="translate(1859.484375 0)"/>
      <use xlink:href="#DejaVuSans-48" transform="translate(1913.828125 0)"/>
      <use xlink:href="#DejaVuSans-57" transform="translate(1975.359375 0)"/>
     </g>
    </g>
   </g>
   <g id="matplotlib.axis_4">
    <g id="ytick_6">
     <g id="line2d_58">
      <path d="M 484.285002 275.098817 
L 807.59952 275.098817 
" clip-path="url(#pc217f0cba3)" style="fill: none; stroke: #d5d8d4; stroke-opacity: 0.8; stroke-width: 0.7; stroke-linecap: square"/>
     </g>
     <g id="line2d_59">
      <g>
       <use xlink:href="#ma763f90058" x="484.285002" y="275.098817" style="fill: #132238; stroke: #132238; stroke-width: 0.8"/>
      </g>
     </g>
     <g id="text_26">
      <!-- 0 -->
      <g style="fill: #132238" transform="translate(471.876877 278.327821) scale(0.085 -0.085)">
       <use xlink:href="#DejaVuSans-13"/>
      </g>
     </g>
    </g>
    <g id="ytick_7">
     <g id="line2d_60">
      <path d="M 484.285002 243.805243 
L 807.59952 243.805243 
" clip-path="url(#pc217f0cba3)" style="fill: none; stroke: #d5d8d4; stroke-opacity: 0.8; stroke-width: 0.7; stroke-linecap: square"/>
     </g>
     <g id="line2d_61">
      <g>
       <use xlink:href="#ma763f90058" x="484.285002" y="243.805243" style="fill: #132238; stroke: #132238; stroke-width: 0.8"/>
      </g>
     </g>
     <g id="text_27">
      <!-- 25 -->
      <g style="fill: #132238" transform="translate(466.468752 247.034247) scale(0.085 -0.085)">
       <use xlink:href="#DejaVuSans-15"/>
       <use xlink:href="#DejaVuSans-18" transform="translate(63.625 0)"/>
      </g>
     </g>
    </g>
    <g id="ytick_8">
     <g id="line2d_62">
      <path d="M 484.285002 212.51167 
L 807.59952 212.51167 
" clip-path="url(#pc217f0cba3)" style="fill: none; stroke: #d5d8d4; stroke-opacity: 0.8; stroke-width: 0.7; stroke-linecap: square"/>
     </g>
     <g id="line2d_63">
      <g>
       <use xlink:href="#ma763f90058" x="484.285002" y="212.51167" style="fill: #132238; stroke: #132238; stroke-width: 0.8"/>
      </g>
     </g>
     <g id="text_28">
      <!-- 50 -->
      <g style="fill: #132238" transform="translate(466.468752 215.740674) scale(0.085 -0.085)">
       <use xlink:href="#DejaVuSans-18"/>
       <use xlink:href="#DejaVuSans-13" transform="translate(63.625 0)"/>
      </g>
     </g>
    </g>
    <g id="ytick_9">
     <g id="line2d_64">
      <path d="M 484.285002 181.218097 
L 807.59952 181.218097 
" clip-path="url(#pc217f0cba3)" style="fill: none; stroke: #d5d8d4; stroke-opacity: 0.8; stroke-width: 0.7; stroke-linecap: square"/>
     </g>
     <g id="line2d_65">
      <g>
       <use xlink:href="#ma763f90058" x="484.285002" y="181.218097" style="fill: #132238; stroke: #132238; stroke-width: 0.8"/>
      </g>
     </g>
     <g id="text_29">
      <!-- 75 -->
      <g style="fill: #132238" transform="translate(466.468752 184.447101) scale(0.085 -0.085)">
       <use xlink:href="#DejaVuSans-1a"/>
       <use xlink:href="#DejaVuSans-18" transform="translate(63.625 0)"/>
      </g>
     </g>
    </g>
    <g id="ytick_10">
     <g id="line2d_66">
      <path d="M 484.285002 149.924523 
L 807.59952 149.924523 
" clip-path="url(#pc217f0cba3)" style="fill: none; stroke: #d5d8d4; stroke-opacity: 0.8; stroke-width: 0.7; stroke-linecap: square"/>
     </g>
     <g id="line2d_67">
      <g>
       <use xlink:href="#ma763f90058" x="484.285002" y="149.924523" style="fill: #132238; stroke: #132238; stroke-width: 0.8"/>
      </g>
     </g>
     <g id="text_30">
      <!-- 100 -->
      <g style="fill: #132238" transform="translate(461.060627 153.153527) scale(0.085 -0.085)">
       <use xlink:href="#DejaVuSans-14"/>
       <use xlink:href="#DejaVuSans-13" transform="translate(63.625 0)"/>
       <use xlink:href="#DejaVuSans-13" transform="translate(127.25 0)"/>
      </g>
     </g>
    </g>
    <g id="ytick_11">
     <g id="line2d_68">
      <path d="M 484.285002 118.63095 
L 807.59952 118.63095 
" clip-path="url(#pc217f0cba3)" style="fill: none; stroke: #d5d8d4; stroke-opacity: 0.8; stroke-width: 0.7; stroke-linecap: square"/>
     </g>
     <g id="line2d_69">
      <g>
       <use xlink:href="#ma763f90058" x="484.285002" y="118.63095" style="fill: #132238; stroke: #132238; stroke-width: 0.8"/>
      </g>
     </g>
     <g id="text_31">
      <!-- 125 -->
      <g style="fill: #132238" transform="translate(461.060627 121.859954) scale(0.085 -0.085)">
       <use xlink:href="#DejaVuSans-14"/>
       <use xlink:href="#DejaVuSans-15" transform="translate(63.625 0)"/>
       <use xlink:href="#DejaVuSans-18" transform="translate(127.25 0)"/>
      </g>
     </g>
    </g>
    <g id="ytick_12">
     <g id="line2d_70">
      <path d="M 484.285002 87.337376 
L 807.59952 87.337376 
" clip-path="url(#pc217f0cba3)" style="fill: none; stroke: #d5d8d4; stroke-opacity: 0.8; stroke-width: 0.7; stroke-linecap: square"/>
     </g>
     <g id="line2d_71">
      <g>
       <use xlink:href="#ma763f90058" x="484.285002" y="87.337376" style="fill: #132238; stroke: #132238; stroke-width: 0.8"/>
      </g>
     </g>
     <g id="text_32">
      <!-- 150 -->
      <g style="fill: #132238" transform="translate(461.060627 90.56638) scale(0.085 -0.085)">
       <use xlink:href="#DejaVuSans-14"/>
       <use xlink:href="#DejaVuSans-18" transform="translate(63.625 0)"/>
       <use xlink:href="#DejaVuSans-13" transform="translate(127.25 0)"/>
      </g>
     </g>
    </g>
    <g id="ytick_13">
     <g id="line2d_72">
      <path d="M 484.285002 56.043803 
L 807.59952 56.043803 
" clip-path="url(#pc217f0cba3)" style="fill: none; stroke: #d5d8d4; stroke-opacity: 0.8; stroke-width: 0.7; stroke-linecap: square"/>
     </g>
     <g id="line2d_73">
      <g>
       <use xlink:href="#ma763f90058" x="484.285002" y="56.043803" style="fill: #132238; stroke: #132238; stroke-width: 0.8"/>
      </g>
     </g>
     <g id="text_33">
      <!-- 175 -->
      <g style="fill: #132238" transform="translate(461.060627 59.272807) scale(0.085 -0.085)">
       <use xlink:href="#DejaVuSans-14"/>
       <use xlink:href="#DejaVuSans-1a" transform="translate(63.625 0)"/>
       <use xlink:href="#DejaVuSans-18" transform="translate(127.25 0)"/>
      </g>
     </g>
    </g>
    <g id="text_34">
     <!-- context count -->
     <g style="fill: #132238" transform="translate(454.898518 187.896375) rotate(-90) scale(0.09 -0.09)">
      <defs>
       <path id="DejaVuSans-5b" d="M 3513 3500 
L 2247 1797 
L 3578 0 
L 2900 0 
L 1881 1375 
L 863 0 
L 184 0 
L 1544 1831 
L 300 3500 
L 978 3500 
L 1906 2253 
L 2834 3500 
L 3513 3500 
z
" transform="scale(0.015625)"/>
      </defs>
      <use xlink:href="#DejaVuSans-46"/>
      <use xlink:href="#DejaVuSans-52" transform="translate(54.984375 0)"/>
      <use xlink:href="#DejaVuSans-51" transform="translate(116.171875 0)"/>
      <use xlink:href="#DejaVuSans-57" transform="translate(179.546875 0)"/>
      <use xlink:href="#DejaVuSans-48" transform="translate(218.75 0)"/>
      <use xlink:href="#DejaVuSans-5b" transform="translate(278.53125 0)"/>
      <use xlink:href="#DejaVuSans-57" transform="translate(337.71875 0)"/>
      <use xlink:href="#DejaVuSans-3" transform="translate(376.921875 0)"/>
      <use xlink:href="#DejaVuSans-46" transform="translate(408.703125 0)"/>
      <use xlink:href="#DejaVuSans-52" transform="translate(463.6875 0)"/>
      <use xlink:href="#DejaVuSans-58" transform="translate(524.875 0)"/>
      <use xlink:href="#DejaVuSans-51" transform="translate(588.25 0)"/>
      <use xlink:href="#DejaVuSans-57" transform="translate(651.625 0)"/>
     </g>
    </g>
   </g>
   <g id="line2d_74">
    <path d="M 782.302248 275.098817 
L 782.302248 38.519402 
" clip-path="url(#pc217f0cba3)" style="fill: none; stroke: #a73a3a; stroke-width: 1.5; stroke-linecap: square"/>
   </g>
   <g id="patch_25">
    <path d="M 484.285002 275.098817 
L 484.285002 38.519402 
" style="fill: none; stroke: #132238; stroke-width: 0.8; stroke-linejoin: miter; stroke-linecap: square"/>
   </g>
   <g id="patch_26">
    <path d="M 484.285002 275.098817 
L 807.59952 275.098817 
" style="fill: none; stroke: #132238; stroke-width: 0.8; stroke-linejoin: miter; stroke-linecap: square"/>
   </g>
   <g id="text_35">
    <!-- Support retained after exact contract matching -->
    <g style="fill: #132238" transform="translate(484.891011 32.519402) scale(0.12 -0.12)">
     <defs>
      <path id="DejaVuSans-Bold-36" d="M 3834 4519 
L 3834 3531 
Q 3450 3703 3084 3790 
Q 2719 3878 2394 3878 
Q 1963 3878 1756 3759 
Q 1550 3641 1550 3391 
Q 1550 3203 1689 3098 
Q 1828 2994 2194 2919 
L 2706 2816 
Q 3484 2659 3812 2340 
Q 4141 2022 4141 1434 
Q 4141 663 3683 286 
Q 3225 -91 2284 -91 
Q 1841 -91 1394 -6 
Q 947 78 500 244 
L 500 1259 
Q 947 1022 1364 901 
Q 1781 781 2169 781 
Q 2563 781 2772 912 
Q 2981 1044 2981 1288 
Q 2981 1506 2839 1625 
Q 2697 1744 2272 1838 
L 1806 1941 
Q 1106 2091 782 2419 
Q 459 2747 459 3303 
Q 459 4000 909 4375 
Q 1359 4750 2203 4750 
Q 2588 4750 2994 4692 
Q 3400 4634 3834 4519 
z
" transform="scale(0.015625)"/>
      <path id="DejaVuSans-Bold-4c" d="M 538 3500 
L 1656 3500 
L 1656 0 
L 538 0 
L 538 3500 
z
M 538 4863 
L 1656 4863 
L 1656 3950 
L 538 3950 
L 538 4863 
z
" transform="scale(0.015625)"/>
      <path id="DejaVuSans-Bold-49" d="M 2841 4863 
L 2841 4128 
L 2222 4128 
Q 1984 4128 1890 4042 
Q 1797 3956 1797 3744 
L 1797 3500 
L 2753 3500 
L 2753 2700 
L 1797 2700 
L 1797 0 
L 678 0 
L 678 2700 
L 122 2700 
L 122 3500 
L 678 3500 
L 678 3744 
Q 678 4316 997 4589 
Q 1316 4863 1984 4863 
L 2841 4863 
z
" transform="scale(0.015625)"/>
      <path id="DejaVuSans-Bold-4b" d="M 4056 2131 
L 4056 0 
L 2931 0 
L 2931 347 
L 2931 1625 
Q 2931 2084 2911 2256 
Q 2891 2428 2841 2509 
Q 2775 2619 2662 2680 
Q 2550 2741 2406 2741 
Q 2056 2741 1856 2470 
Q 1656 2200 1656 1722 
L 1656 0 
L 538 0 
L 538 4863 
L 1656 4863 
L 1656 2988 
Q 1909 3294 2193 3439 
Q 2478 3584 2822 3584 
Q 3428 3584 3742 3212 
Q 4056 2841 4056 2131 
z
" transform="scale(0.015625)"/>
      <path id="DejaVuSans-Bold-4a" d="M 2919 594 
Q 2688 288 2409 144 
Q 2131 0 1766 0 
Q 1125 0 706 504 
Q 288 1009 288 1791 
Q 288 2575 706 3076 
Q 1125 3578 1766 3578 
Q 2131 3578 2409 3434 
Q 2688 3291 2919 2981 
L 2919 3500 
L 4044 3500 
L 4044 353 
Q 4044 -491 3511 -936 
Q 2978 -1381 1966 -1381 
Q 1638 -1381 1331 -1331 
Q 1025 -1281 716 -1178 
L 716 -306 
Q 1009 -475 1290 -558 
Q 1572 -641 1856 -641 
Q 2406 -641 2662 -400 
Q 2919 -159 2919 353 
L 2919 594 
z
M 2181 2772 
Q 1834 2772 1640 2515 
Q 1447 2259 1447 1791 
Q 1447 1309 1634 1061 
Q 1822 813 2181 813 
Q 2531 813 2725 1069 
Q 2919 1325 2919 1791 
Q 2919 2259 2725 2515 
Q 2531 2772 2181 2772 
z
" transform="scale(0.015625)"/>
     </defs>
     <use xlink:href="#DejaVuSans-Bold-36"/>
     <use xlink:href="#DejaVuSans-Bold-58" transform="translate(72.015625 0)"/>
     <use xlink:href="#DejaVuSans-Bold-53" transform="translate(143.203125 0)"/>
     <use xlink:href="#DejaVuSans-Bold-53" transform="translate(214.78125 0)"/>
     <use xlink:href="#DejaVuSans-Bold-52" transform="translate(286.359375 0)"/>
     <use xlink:href="#DejaVuSans-Bold-55" transform="translate(355.0625 0)"/>
     <use xlink:href="#DejaVuSans-Bold-57" transform="translate(404.375 0)"/>
     <use xlink:href="#DejaVuSans-Bold-3" transform="translate(452.171875 0)"/>
     <use xlink:href="#DejaVuSans-Bold-55" transform="translate(486.984375 0)"/>
     <use xlink:href="#DejaVuSans-Bold-48" transform="translate(536.296875 0)"/>
     <use xlink:href="#DejaVuSans-Bold-57" transform="translate(604.125 0)"/>
     <use xlink:href="#DejaVuSans-Bold-44" transform="translate(651.921875 0)"/>
     <use xlink:href="#DejaVuSans-Bold-4c" transform="translate(719.40625 0)"/>
     <use xlink:href="#DejaVuSans-Bold-51" transform="translate(753.6875 0)"/>
     <use xlink:href="#DejaVuSans-Bold-48" transform="translate(824.875 0)"/>
     <use xlink:href="#DejaVuSans-Bold-47" transform="translate(892.703125 0)"/>
     <use xlink:href="#DejaVuSans-Bold-3" transform="translate(964.28125 0)"/>
     <use xlink:href="#DejaVuSans-Bold-44" transform="translate(999.09375 0)"/>
     <use xlink:href="#DejaVuSans-Bold-49" transform="translate(1066.578125 0)"/>
     <use xlink:href="#DejaVuSans-Bold-57" transform="translate(1110.078125 0)"/>
     <use xlink:href="#DejaVuSans-Bold-48" transform="translate(1157.875 0)"/>
     <use xlink:href="#DejaVuSans-Bold-55" transform="translate(1225.703125 0)"/>
     <use xlink:href="#DejaVuSans-Bold-3" transform="translate(1275.015625 0)"/>
     <use xlink:href="#DejaVuSans-Bold-48" transform="translate(1309.828125 0)"/>
     <use xlink:href="#DejaVuSans-Bold-5b" transform="translate(1377.65625 0)"/>
     <use xlink:href="#DejaVuSans-Bold-44" transform="translate(1442.15625 0)"/>
     <use xlink:href="#DejaVuSans-Bold-46" transform="translate(1509.640625 0)"/>
     <use xlink:href="#DejaVuSans-Bold-57" transform="translate(1568.921875 0)"/>
     <use xlink:href="#DejaVuSans-Bold-3" transform="translate(1616.71875 0)"/>
     <use xlink:href="#DejaVuSans-Bold-46" transform="translate(1651.53125 0)"/>
     <use xlink:href="#DejaVuSans-Bold-52" transform="translate(1710.8125 0)"/>
     <use xlink:href="#DejaVuSans-Bold-51" transform="translate(1779.515625 0)"/>
     <use xlink:href="#DejaVuSans-Bold-57" transform="translate(1850.703125 0)"/>
     <use xlink:href="#DejaVuSans-Bold-55" transform="translate(1898.5 0)"/>
     <use xlink:href="#DejaVuSans-Bold-44" transform="translate(1947.8125 0)"/>
     <use xlink:href="#DejaVuSans-Bold-46" transform="translate(2015.296875 0)"/>
     <use xlink:href="#DejaVuSans-Bold-57" transform="translate(2074.578125 0)"/>
     <use xlink:href="#DejaVuSans-Bold-3" transform="translate(2122.375 0)"/>
     <use xlink:href="#DejaVuSans-Bold-50" transform="translate(2157.1875 0)"/>
     <use xlink:href="#DejaVuSans-Bold-44" transform="translate(2261.390625 0)"/>
     <use xlink:href="#DejaVuSans-Bold-57" transform="translate(2328.875 0)"/>
     <use xlink:href="#DejaVuSans-Bold-46" transform="translate(2376.671875 0)"/>
     <use xlink:href="#DejaVuSans-Bold-4b" transform="translate(2435.953125 0)"/>
     <use xlink:href="#DejaVuSans-Bold-4c" transform="translate(2507.140625 0)"/>
     <use xlink:href="#DejaVuSans-Bold-51" transform="translate(2541.421875 0)"/>
     <use xlink:href="#DejaVuSans-Bold-4a" transform="translate(2612.609375 0)"/>
    </g>
   </g>
   <g id="legend_1">
    <g id="line2d_75">
     <path d="M 491.485002 48.998152 
L 499.485002 48.998152 
L 507.485002 48.998152 
" style="fill: none; stroke: #a73a3a; stroke-width: 1.5; stroke-linecap: square"/>
    </g>
    <g id="text_36">
     <!-- mean 0.975 -->
     <g transform="translate(513.885002 51.798152) scale(0.08 -0.08)">
      <use xlink:href="#DejaVuSans-50"/>
      <use xlink:href="#DejaVuSans-48" transform="translate(97.40625 0)"/>
      <use xlink:href="#DejaVuSans-44" transform="translate(158.9375 0)"/>
      <use xlink:href="#DejaVuSans-51" transform="translate(220.21875 0)"/>
      <use xlink:href="#DejaVuSans-3" transform="translate(283.59375 0)"/>
      <use xlink:href="#DejaVuSans-13" transform="translate(315.375 0)"/>
      <use xlink:href="#DejaVuSans-11" transform="translate(379 0)"/>
      <use xlink:href="#DejaVuSans-1c" transform="translate(410.78125 0)"/>
      <use xlink:href="#DejaVuSans-1a" transform="translate(474.40625 0)"/>
      <use xlink:href="#DejaVuSans-18" transform="translate(538.03125 0)"/>
     </g>
    </g>
   </g>
  </g>
  <g id="text_37">
   <!-- Smoothed local-window repo branch: local wins, adverse global distribution -->
   <g transform="translate(12.26376 14.950406) scale(0.102 -0.102)">
    <defs>
     <path id="DejaVuSans-Bold-5a" d="M 225 3500 
L 1313 3500 
L 1900 1088 
L 2491 3500 
L 3425 3500 
L 4013 1113 
L 4603 3500 
L 5691 3500 
L 4769 0 
L 3547 0 
L 2956 2406 
L 2369 0 
L 1147 0 
L 225 3500 
z
" transform="scale(0.015625)"/>
     <path id="DejaVuSans-Bold-45" d="M 2400 722 
Q 2759 722 2948 984 
Q 3138 1247 3138 1747 
Q 3138 2247 2948 2509 
Q 2759 2772 2400 2772 
Q 2041 2772 1848 2508 
Q 1656 2244 1656 1747 
Q 1656 1250 1848 986 
Q 2041 722 2400 722 
z
M 1656 2988 
Q 1888 3294 2169 3439 
Q 2450 3584 2816 3584 
Q 3463 3584 3878 3070 
Q 4294 2556 4294 1747 
Q 4294 938 3878 423 
Q 3463 -91 2816 -91 
Q 2450 -91 2169 54 
Q 1888 200 1656 506 
L 1656 0 
L 538 0 
L 538 4863 
L 1656 4863 
L 1656 2988 
z
" transform="scale(0.015625)"/>
     <path id="DejaVuSans-Bold-1d" d="M 716 3500 
L 1844 3500 
L 1844 2291 
L 716 2291 
L 716 3500 
z
M 716 1209 
L 1844 1209 
L 1844 0 
L 716 0 
L 716 1209 
z
" transform="scale(0.015625)"/>
     <path id="DejaVuSans-Bold-f" d="M 653 1209 
L 1778 1209 
L 1778 256 
L 1006 -909 
L 341 -909 
L 653 256 
L 653 1209 
z
" transform="scale(0.015625)"/>
     <path id="DejaVuSans-Bold-59" d="M 97 3500 
L 1216 3500 
L 2088 1081 
L 2956 3500 
L 4078 3500 
L 2700 0 
L 1472 0 
L 97 3500 
z
" transform="scale(0.015625)"/>
    </defs>
    <use xlink:href="#DejaVuSans-Bold-36"/>
    <use xlink:href="#DejaVuSans-Bold-50" transform="translate(72.015625 0)"/>
    <use xlink:href="#DejaVuSans-Bold-52" transform="translate(176.21875 0)"/>
    <use xlink:href="#DejaVuSans-Bold-52" transform="translate(244.921875 0)"/>
    <use xlink:href="#DejaVuSans-Bold-57" transform="translate(313.625 0)"/>
    <use xlink:href="#DejaVuSans-Bold-4b" transform="translate(361.421875 0)"/>
    <use xlink:href="#DejaVuSans-Bold-48" transform="translate(432.609375 0)"/>
    <use xlink:href="#DejaVuSans-Bold-47" transform="translate(500.4375 0)"/>
    <use xlink:href="#DejaVuSans-Bold-3" transform="translate(572.015625 0)"/>
    <use xlink:href="#DejaVuSans-Bold-4f" transform="translate(606.828125 0)"/>
    <use xlink:href="#DejaVuSans-Bold-52" transform="translate(641.109375 0)"/>
    <use xlink:href="#DejaVuSans-Bold-46" transform="translate(709.8125 0)"/>
    <use xlink:href="#DejaVuSans-Bold-44" transform="translate(769.09375 0)"/>
    <use xlink:href="#DejaVuSans-Bold-4f" transform="translate(836.578125 0)"/>
    <use xlink:href="#DejaVuSans-Bold-10" transform="translate(870.859375 0)"/>
    <use xlink:href="#DejaVuSans-Bold-5a" transform="translate(912.359375 0)"/>
    <use xlink:href="#DejaVuSans-Bold-4c" transform="translate(1004.75 0)"/>
    <use xlink:href="#DejaVuSans-Bold-51" transform="translate(1039.03125 0)"/>
    <use xlink:href="#DejaVuSans-Bold-47" transform="translate(1110.21875 0)"/>
    <use xlink:href="#DejaVuSans-Bold-52" transform="translate(1181.796875 0)"/>
    <use xlink:href="#DejaVuSans-Bold-5a" transform="translate(1250.5 0)"/>
    <use xlink:href="#DejaVuSans-Bold-3" transform="translate(1342.890625 0)"/>
    <use xlink:href="#DejaVuSans-Bold-55" transform="translate(1377.703125 0)"/>
    <use xlink:href="#DejaVuSans-Bold-48" transform="translate(1427.015625 0)"/>
    <use xlink:href="#DejaVuSans-Bold-53" transform="translate(1494.84375 0)"/>
    <use xlink:href="#DejaVuSans-Bold-52" transform="translate(1566.421875 0)"/>
    <use xlink:href="#DejaVuSans-Bold-3" transform="translate(1635.125 0)"/>
    <use xlink:href="#DejaVuSans-Bold-45" transform="translate(1669.9375 0)"/>
    <use xlink:href="#DejaVuSans-Bold-55" transform="translate(1741.515625 0)"/>
    <use xlink:href="#DejaVuSans-Bold-44" transform="translate(1790.828125 0)"/>
    <use xlink:href="#DejaVuSans-Bold-51" transform="translate(1858.3125 0)"/>
    <use xlink:href="#DejaVuSans-Bold-46" transform="translate(1929.5 0)"/>
    <use xlink:href="#DejaVuSans-Bold-4b" transform="translate(1988.78125 0)"/>
    <use xlink:href="#DejaVuSans-Bold-1d" transform="translate(2059.96875 0)"/>
    <use xlink:href="#DejaVuSans-Bold-3" transform="translate(2099.953125 0)"/>
    <use xlink:href="#DejaVuSans-Bold-4f" transform="translate(2134.765625 0)"/>
    <use xlink:href="#DejaVuSans-Bold-52" transform="translate(2169.046875 0)"/>
    <use xlink:href="#DejaVuSans-Bold-46" transform="translate(2237.75 0)"/>
    <use xlink:href="#DejaVuSans-Bold-44" transform="translate(2297.03125 0)"/>
    <use xlink:href="#DejaVuSans-Bold-4f" transform="translate(2364.515625 0)"/>
    <use xlink:href="#DejaVuSans-Bold-3" transform="translate(2398.796875 0)"/>
    <use xlink:href="#DejaVuSans-Bold-5a" transform="translate(2433.609375 0)"/>
    <use xlink:href="#DejaVuSans-Bold-4c" transform="translate(2526 0)"/>
    <use xlink:href="#DejaVuSans-Bold-51" transform="translate(2560.28125 0)"/>
    <use xlink:href="#DejaVuSans-Bold-56" transform="translate(2631.46875 0)"/>
    <use xlink:href="#DejaVuSans-Bold-f" transform="translate(2690.984375 0)"/>
    <use xlink:href="#DejaVuSans-Bold-3" transform="translate(2728.96875 0)"/>
    <use xlink:href="#DejaVuSans-Bold-44" transform="translate(2763.78125 0)"/>
    <use xlink:href="#DejaVuSans-Bold-47" transform="translate(2831.265625 0)"/>
    <use xlink:href="#DejaVuSans-Bold-59" transform="translate(2902.84375 0)"/>
    <use xlink:href="#DejaVuSans-Bold-48" transform="translate(2968.03125 0)"/>
    <use xlink:href="#DejaVuSans-Bold-55" transform="translate(3035.859375 0)"/>
    <use xlink:href="#DejaVuSans-Bold-56" transform="translate(3085.171875 0)"/>
    <use xlink:href="#DejaVuSans-Bold-48" transform="translate(3144.6875 0)"/>
    <use xlink:href="#DejaVuSans-Bold-3" transform="translate(3212.515625 0)"/>
    <use xlink:href="#DejaVuSans-Bold-4a" transform="translate(3247.328125 0)"/>
    <use xlink:href="#DejaVuSans-Bold-4f" transform="translate(3318.90625 0)"/>
    <use xlink:href="#DejaVuSans-Bold-52" transform="translate(3353.1875 0)"/>
    <use xlink:href="#DejaVuSans-Bold-45" transform="translate(3421.890625 0)"/>
    <use xlink:href="#DejaVuSans-Bold-44" transform="translate(3493.46875 0)"/>
    <use xlink:href="#DejaVuSans-Bold-4f" transform="translate(3560.953125 0)"/>
    <use xlink:href="#DejaVuSans-Bold-3" transform="translate(3595.234375 0)"/>
    <use xlink:href="#DejaVuSans-Bold-47" transform="translate(3630.046875 0)"/>
    <use xlink:href="#DejaVuSans-Bold-4c" transform="translate(3701.625 0)"/>
    <use xlink:href="#DejaVuSans-Bold-56" transform="translate(3735.90625 0)"/>
    <use xlink:href="#DejaVuSans-Bold-57" transform="translate(3795.421875 0)"/>
    <use xlink:href="#DejaVuSans-Bold-55" transform="translate(3843.21875 0)"/>
    <use xlink:href="#DejaVuSans-Bold-4c" transform="translate(3892.53125 0)"/>
    <use xlink:href="#DejaVuSans-Bold-45" transform="translate(3926.8125 0)"/>
    <use xlink:href="#DejaVuSans-Bold-58" transform="translate(3998.390625 0)"/>
    <use xlink:href="#DejaVuSans-Bold-57" transform="translate(4069.578125 0)"/>
    <use xlink:href="#DejaVuSans-Bold-4c" transform="translate(4117.375 0)"/>
    <use xlink:href="#DejaVuSans-Bold-52" transform="translate(4151.65625 0)"/>
    <use xlink:href="#DejaVuSans-Bold-51" transform="translate(4220.359375 0)"/>
   </g>
  </g>
 </g>
 <defs>
  <clipPath id="pb4eb196e33">
   <rect x="116.682109" y="38.519402" width="323.314518" height="236.579415"/>
  </clipPath>
  <clipPath id="pc217f0cba3">
   <rect x="484.285002" y="38.519402" width="323.314518" height="236.579415"/>
  </clipPath>
 </defs>
</svg>
