<?xml version="1.0" encoding="utf-8" standalone="no"?>
<!DOCTYPE svg PUBLIC "-//W3C//DTD SVG 1.1//EN"
  "http://www.w3.org/Graphics/SVG/1.1/DTD/svg11.dtd">
<svg xmlns:xlink="http://www.w3.org/1999/xlink" width="814.79952pt" height="296.39952pt" viewBox="0 0 814.79952 296.39952" xmlns="http://www.w3.org/2000/svg" version="1.1">
 <metadata>
  <rdf:RDF xmlns:dc="http://purl.org/dc/elements/1.1/" xmlns:cc="http://creativecommons.org/ns#" xmlns:rdf="http://www.w3.org/1999/02/22-rdf-syntax-ns#">
   <cc:Work>
    <dc:type rdf:resource="http://purl.org/dc/dcmitype/StillImage"/>
    <dc:format>image/svg+xml</dc:format>
    <dc:creator>
     <cc:Agent>
      <dc:title>VolSurf-Pricer evidence builder</dc:title>
     </cc:Agent>
    </dc:creator>
   </cc:Work>
  </rdf:RDF>
 </metadata>
 <defs>
  <style type="text/css">*{stroke-linejoin: round; stroke-linecap: butt}</style>
 </defs>
 <g id="figure_1">
  <g id="patch_1">
   <path d="M 0 296.39952 
L 814.79952 296.39952 
L 814.79952 0 
L 0 0 
z
" style="fill: #f7f3ea"/>
  </g>
  <g id="axes_1">
   <g id="patch_2">
    <path d="M 40.718359 273.698856 
L 544.936588 273.698856 
L 544.936588 38.519402 
L 40.718359 38.519402 
z
" style="fill: #f7f3ea"/>
   </g>
   <g id="patch_3">
    <path d="M 63.63737 273.698856 
L 126.862226 273.698856 
L 126.862226 71.444525 
L 63.63737 71.444525 
z
" clip-path="url(#pb8aad362f8)" style="fill: #1e7a74"/>
   </g>
   <g id="patch_4">
    <path d="M 142.66844 273.698856 
L 205.893296 273.698856 
L 205.893296 159.636821 
L 142.66844 159.636821 
z
" clip-path="url(#pb8aad362f8)" style="fill: #1e7a74"/>
   </g>
   <g id="patch_5">
    <path d="M 221.69951 273.698856 
L 284.924367 273.698856 
L 284.924367 78.499909 
L 221.69951 78.499909 
z
" clip-path="url(#pb8aad362f8)" style="fill: #1e7a74"/>
   </g>
   <g id="patch_6">
    <path d="M 300.730581 273.698856 
L 363.955437 273.698856 
L 363.955437 107.897341 
L 300.730581 107.897341 
z
" clip-path="url(#pb8aad362f8)" style="fill: #1e7a74"/>
   </g>
   <g id="patch_7">
    <path d="M 379.761651 273.698856 
L 442.986507 273.698856 
L 442.986507 126.123749 
L 379.761651 126.123749 
z
" clip-path="url(#pb8aad362f8)" style="fill: #1e7a74"/>
   </g>
   <g id="patch_8">
    <path d="M 458.792721 273.698856 
L 522.017578 273.698856 
L 522.017578 55.569912 
L 458.792721 55.569912 
z
" clip-path="url(#pb8aad362f8)" style="fill: #1e7a74"/>
   </g>
   <g id="patch_9">
    <path d="M 63.63737 71.444525 
L 126.862226 71.444525 
L 126.862226 39.695299 
L 63.63737 39.695299 
z
" clip-path="url(#pb8aad362f8)" style="fill: #d8b46a"/>
   </g>
   <g id="patch_10">
    <path d="M 142.66844 159.636821 
L 205.893296 159.636821 
L 205.893296 38.519402 
L 142.66844 38.519402 
z
" clip-path="url(#pb8aad362f8)" style="fill: #d8b46a"/>
   </g>
   <g id="patch_11">
    <path d="M 221.69951 78.499909 
L 284.924367 78.499909 
L 284.924367 38.519402 
L 221.69951 38.519402 
z
" clip-path="url(#pb8aad362f8)" style="fill: #d8b46a"/>
   </g>
   <g id="patch_12">
    <path d="M 300.730581 107.897341 
L 363.955437 107.897341 
L 363.955437 40.871196 
L 300.730581 40.871196 
z
" clip-path="url(#pb8aad362f8)" style="fill: #d8b46a"/>
   </g>
   <g id="patch_13">
    <path d="M 379.761651 126.123749 
L 442.986507 126.123749 
L 442.986507 39.107351 
L 379.761651 39.107351 
z
" clip-path="url(#pb8aad362f8)" style="fill: #d8b46a"/>
   </g>
   <g id="patch_14">
    <path d="M 458.792721 55.569912 
L 522.017578 55.569912 
L 522.017578 38.519402 
L 458.792721 38.519402 
z
" clip-path="url(#pb8aad362f8)" style="fill: #d8b46a"/>
   </g>
   <g id="patch_15">
    <path d="M 63.63737 39.695299 
L 126.862226 39.695299 
L 126.862226 38.519402 
L 63.63737 38.519402 
z
" clip-path="url(#pb8aad362f8)" style="fill: #a73a3a"/>
   </g>
   <g id="patch_16">
    <path d="M 142.66844 38.519402 
L 205.893296 38.519402 
L 205.893296 38.519402 
L 142.66844 38.519402 
z
" clip-path="url(#pb8aad362f8)" style="fill: #a73a3a"/>
   </g>
   <g id="patch_17">
    <path d="M 221.69951 38.519402 
L 284.924367 38.519402 
L 284.924367 38.519402 
L 221.69951 38.519402 
z
" clip-path="url(#pb8aad362f8)" style="fill: #a73a3a"/>
   </g>
   <g id="patch_18">
    <path d="M 300.730581 40.871196 
L 363.955437 40.871196 
L 363.955437 38.519402 
L 300.730581 38.519402 
z
" clip-path="url(#pb8aad362f8)" style="fill: #a73a3a"/>
   </g>
   <g id="patch_19">
    <path d="M 379.761651 39.107351 
L 442.986507 39.107351 
L 442.986507 38.519402 
L 379.761651 38.519402 
z
" clip-path="url(#pb8aad362f8)" style="fill: #a73a3a"/>
   </g>
   <g id="patch_20">
    <path d="M 458.792721 38.519402 
L 522.017578 38.519402 
L 522.017578 38.519402 
L 458.792721 38.519402 
z
" clip-path="url(#pb8aad362f8)" style="fill: #a73a3a"/>
   </g>
   <g id="matplotlib.axis_1">
    <g id="xtick_1">
     <g id="line2d_1">
      <defs>
       <path id="m905506c83d" d="M 0 0 
L 0 3.5 
" style="stroke: #132238; stroke-width: 0.8"/>
      </defs>
      <g>
       <use xlink:href="#m905506c83d" x="95.249798" y="273.698856" style="fill: #132238; stroke: #132238; stroke-width: 0.8"/>
      </g>
     </g>
     <g id="text_1">
      <!-- INTC -->
      <g style="fill: #132238" transform="translate(85.502024 287.156864) scale(0.085 -0.085)">
       <defs>
        <path id="DejaVuSans-2c" d="M 628 4666 
L 1259 4666 
L 1259 0 
L 628 0 
L 628 4666 
z
" transform="scale(0.015625)"/>
        <path id="DejaVuSans-31" d="M 628 4666 
L 1478 4666 
L 3547 763 
L 3547 4666 
L 4159 4666 
L 4159 0 
L 3309 0 
L 1241 3903 
L 1241 0 
L 628 0 
L 628 4666 
z
" transform="scale(0.015625)"/>
        <path id="DejaVuSans-37" d="M -19 4666 
L 3928 4666 
L 3928 4134 
L 2272 4134 
L 2272 0 
L 1638 0 
L 1638 4134 
L -19 4134 
L -19 4666 
z
" transform="scale(0.015625)"/>
        <path id="DejaVuSans-26" d="M 4122 4306 
L 4122 3641 
Q 3803 3938 3442 4084 
Q 3081 4231 2675 4231 
Q 1875 4231 1450 3742 
Q 1025 3253 1025 2328 
Q 1025 1406 1450 917 
Q 1875 428 2675 428 
Q 3081 428 3442 575 
Q 3803 722 4122 1019 
L 4122 359 
Q 3791 134 3420 21 
Q 3050 -91 2638 -91 
Q 1578 -91 968 557 
Q 359 1206 359 2328 
Q 359 3453 968 4101 
Q 1578 4750 2638 4750 
Q 3056 4750 3426 4639 
Q 3797 4528 4122 4306 
z
" transform="scale(0.015625)"/>
       </defs>
       <use xlink:href="#DejaVuSans-2c"/>
       <use xlink:href="#DejaVuSans-31" transform="translate(29.5 0)"/>
       <use xlink:href="#DejaVuSans-37" transform="translate(104.3125 0)"/>
       <use xlink:href="#DejaVuSans-26" transform="translate(159.53125 0)"/>
      </g>
     </g>
    </g>
    <g id="xtick_2">
     <g id="line2d_2">
      <g>
       <use xlink:href="#m905506c83d" x="174.280868" y="273.698856" style="fill: #132238; stroke: #132238; stroke-width: 0.8"/>
      </g>
     </g>
     <g id="text_2">
      <!-- NDX -->
      <g style="fill: #132238" transform="translate(164.917587 287.156864) scale(0.085 -0.085)">
       <defs>
        <path id="DejaVuSans-27" d="M 1259 4147 
L 1259 519 
L 2022 519 
Q 2988 519 3436 956 
Q 3884 1394 3884 2338 
Q 3884 3275 3436 3711 
Q 2988 4147 2022 4147 
L 1259 4147 
z
M 628 4666 
L 1925 4666 
Q 3281 4666 3915 4102 
Q 4550 3538 4550 2338 
Q 4550 1131 3912 565 
Q 3275 0 1925 0 
L 628 0 
L 628 4666 
z
" transform="scale(0.015625)"/>
        <path id="DejaVuSans-3b" d="M 403 4666 
L 1081 4666 
L 2241 2931 
L 3406 4666 
L 4084 4666 
L 2584 2425 
L 4184 0 
L 3506 0 
L 2194 1984 
L 872 0 
L 191 0 
L 1856 2491 
L 403 4666 
z
" transform="scale(0.015625)"/>
       </defs>
       <use xlink:href="#DejaVuSans-31"/>
       <use xlink:href="#DejaVuSans-27" transform="translate(74.8125 0)"/>
       <use xlink:href="#DejaVuSans-3b" transform="translate(151.8125 0)"/>
      </g>
     </g>
    </g>
    <g id="xtick_3">
     <g id="line2d_3">
      <g>
       <use xlink:href="#m905506c83d" x="253.311939" y="273.698856" style="fill: #132238; stroke: #132238; stroke-width: 0.8"/>
      </g>
     </g>
     <g id="text_3">
      <!-- NVDA -->
      <g style="fill: #132238" transform="translate(241.119751 287.156864) scale(0.085 -0.085)">
       <defs>
        <path id="DejaVuSans-39" d="M 1831 0 
L 50 4666 
L 709 4666 
L 2188 738 
L 3669 4666 
L 4325 4666 
L 2547 0 
L 1831 0 
z
" transform="scale(0.015625)"/>
        <path id="DejaVuSans-24" d="M 2188 4044 
L 1331 1722 
L 3047 1722 
L 2188 4044 
z
M 1831 4666 
L 2547 4666 
L 4325 0 
L 3669 0 
L 3244 1197 
L 1141 1197 
L 716 0 
L 50 0 
L 1831 4666 
z
" transform="scale(0.015625)"/>
       </defs>
       <use xlink:href="#DejaVuSans-31"/>
       <use xlink:href="#DejaVuSans-39" transform="translate(74.8125 0)"/>
       <use xlink:href="#DejaVuSans-27" transform="translate(143.21875 0)"/>
       <use xlink:href="#DejaVuSans-24" transform="translate(218.46875 0)"/>
      </g>
     </g>
    </g>
    <g id="xtick_4">
     <g id="line2d_4">
      <g>
       <use xlink:href="#m905506c83d" x="332.343009" y="273.698856" style="fill: #132238; stroke: #132238; stroke-width: 0.8"/>
      </g>
     </g>
     <g id="text_4">
      <!-- RUT -->
      <g style="fill: #132238" transform="translate(323.683634 287.156864) scale(0.085 -0.085)">
       <defs>
        <path id="DejaVuSans-35" d="M 2841 2188 
Q 3044 2119 3236 1894 
Q 3428 1669 3622 1275 
L 4263 0 
L 3584 0 
L 2988 1197 
Q 2756 1666 2539 1819 
Q 2322 1972 1947 1972 
L 1259 1972 
L 1259 0 
L 628 0 
L 628 4666 
L 2053 4666 
Q 2853 4666 3247 4331 
Q 3641 3997 3641 3322 
Q 3641 2881 3436 2590 
Q 3231 2300 2841 2188 
z
M 1259 4147 
L 1259 2491 
L 2053 2491 
Q 2509 2491 2742 2702 
Q 2975 2913 2975 3322 
Q 2975 3731 2742 3939 
Q 2509 4147 2053 4147 
L 1259 4147 
z
" transform="scale(0.015625)"/>
        <path id="DejaVuSans-38" d="M 556 4666 
L 1191 4666 
L 1191 1831 
Q 1191 1081 1462 751 
Q 1734 422 2344 422 
Q 2950 422 3222 751 
Q 3494 1081 3494 1831 
L 3494 4666 
L 4128 4666 
L 4128 1753 
Q 4128 841 3676 375 
Q 3225 -91 2344 -91 
Q 1459 -91 1007 375 
Q 556 841 556 1753 
L 556 4666 
z
" transform="scale(0.015625)"/>
       </defs>
       <use xlink:href="#DejaVuSans-35"/>
       <use xlink:href="#DejaVuSans-38" transform="translate(69.484375 0)"/>
       <use xlink:href="#DejaVuSans-37" transform="translate(142.671875 0)"/>
      </g>
     </g>
    </g>
    <g id="xtick_5">
     <g id="line2d_5">
      <g>
       <use xlink:href="#m905506c83d" x="411.374079" y="273.698856" style="fill: #132238; stroke: #132238; stroke-width: 0.8"/>
      </g>
     </g>
     <g id="text_5">
      <!-- SPX -->
      <g style="fill: #132238" transform="translate(403.202126 287.156864) scale(0.085 -0.085)">
       <defs>
        <path id="DejaVuSans-36" d="M 3425 4513 
L 3425 3897 
Q 3066 4069 2747 4153 
Q 2428 4238 2131 4238 
Q 1616 4238 1336 4038 
Q 1056 3838 1056 3469 
Q 1056 3159 1242 3001 
Q 1428 2844 1947 2747 
L 2328 2669 
Q 3034 2534 3370 2195 
Q 3706 1856 3706 1288 
Q 3706 609 3251 259 
Q 2797 -91 1919 -91 
Q 1588 -91 1214 -16 
Q 841 59 441 206 
L 441 856 
Q 825 641 1194 531 
Q 1563 422 1919 422 
Q 2459 422 2753 634 
Q 3047 847 3047 1241 
Q 3047 1584 2836 1778 
Q 2625 1972 2144 2069 
L 1759 2144 
Q 1053 2284 737 2584 
Q 422 2884 422 3419 
Q 422 4038 858 4394 
Q 1294 4750 2059 4750 
Q 2388 4750 2728 4690 
Q 3069 4631 3425 4513 
z
" transform="scale(0.015625)"/>
        <path id="DejaVuSans-33" d="M 1259 4147 
L 1259 2394 
L 2053 2394 
Q 2494 2394 2734 2622 
Q 2975 2850 2975 3272 
Q 2975 3691 2734 3919 
Q 2494 4147 2053 4147 
L 1259 4147 
z
M 628 4666 
L 2053 4666 
Q 2838 4666 3239 4311 
Q 3641 3956 3641 3272 
Q 3641 2581 3239 2228 
Q 2838 1875 2053 1875 
L 1259 1875 
L 1259 0 
L 628 0 
L 628 4666 
z
" transform="scale(0.015625)"/>
       </defs>
       <use xlink:href="#DejaVuSans-36"/>
       <use xlink:href="#DejaVuSans-33" transform="translate(63.484375 0)"/>
       <use xlink:href="#DejaVuSans-3b" transform="translate(123.78125 0)"/>
      </g>
     </g>
    </g>
    <g id="xtick_6">
     <g id="line2d_6">
      <g>
       <use xlink:href="#m905506c83d" x="490.405149" y="273.698856" style="fill: #132238; stroke: #132238; stroke-width: 0.8"/>
      </g>
     </g>
     <g id="text_6">
      <!-- SPY -->
      <g style="fill: #132238" transform="translate(482.642259 287.156864) scale(0.085 -0.085)">
       <defs>
        <path id="DejaVuSans-3c" d="M -13 4666 
L 666 4666 
L 1959 2747 
L 3244 4666 
L 3922 4666 
L 2272 2222 
L 2272 0 
L 1638 0 
L 1638 2222 
L -13 4666 
z
" transform="scale(0.015625)"/>
       </defs>
       <use xlink:href="#DejaVuSans-36"/>
       <use xlink:href="#DejaVuSans-33" transform="translate(63.484375 0)"/>
       <use xlink:href="#DejaVuSans-3c" transform="translate(121.578125 0)"/>
      </g>
     </g>
    </g>
   </g>
   <g id="matplotlib.axis_2">
    <g id="ytick_1">
     <g id="line2d_7">
      <path d="M 40.718359 273.698856 
L 544.936588 273.698856 
" clip-path="url(#pb8aad362f8)" style="fill: none; stroke: #d5d8d4; stroke-opacity: 0.8; stroke-width: 0.7; stroke-linecap: square"/>
     </g>
     <g id="line2d_8">
      <defs>
       <path id="ma763f90058" d="M 0 0 
L -3.5 0 
" style="stroke: #132238; stroke-width: 0.8"/>
      </defs>
      <g>
       <use xlink:href="#ma763f90058" x="40.718359" y="273.698856" style="fill: #132238; stroke: #132238; stroke-width: 0.8"/>
      </g>
     </g>
     <g id="text_7">
      <!-- 0.0 -->
      <g style="fill: #132238" transform="translate(20.200703 276.92786) scale(0.085 -0.085)">
       <defs>
        <path id="DejaVuSans-13" d="M 2034 4250 
Q 1547 4250 1301 3770 
Q 1056 3291 1056 2328 
Q 1056 1369 1301 889 
Q 1547 409 2034 409 
Q 2525 409 2770 889 
Q 3016 1369 3016 2328 
Q 3016 3291 2770 3770 
Q 2525 4250 2034 4250 
z
M 2034 4750 
Q 2819 4750 3233 4129 
Q 3647 3509 3647 2328 
Q 3647 1150 3233 529 
Q 2819 -91 2034 -91 
Q 1250 -91 836 529 
Q 422 1150 422 2328 
Q 422 3509 836 4129 
Q 1250 4750 2034 4750 
z
" transform="scale(0.015625)"/>
        <path id="DejaVuSans-11" d="M 684 794 
L 1344 794 
L 1344 0 
L 684 0 
L 684 794 
z
" transform="scale(0.015625)"/>
       </defs>
       <use xlink:href="#DejaVuSans-13"/>
       <use xlink:href="#DejaVuSans-11" transform="translate(63.625 0)"/>
       <use xlink:href="#DejaVuSans-13" transform="translate(95.40625 0)"/>
      </g>
     </g>
    </g>
    <g id="ytick_2">
     <g id="line2d_9">
      <path d="M 40.718359 226.662965 
L 544.936588 226.662965 
" clip-path="url(#pb8aad362f8)" style="fill: none; stroke: #d5d8d4; stroke-opacity: 0.8; stroke-width: 0.7; stroke-linecap: square"/>
     </g>
     <g id="line2d_10">
      <g>
       <use xlink:href="#ma763f90058" x="40.718359" y="226.662965" style="fill: #132238; stroke: #132238; stroke-width: 0.8"/>
      </g>
     </g>
     <g id="text_8">
      <!-- 0.2 -->
      <g style="fill: #132238" transform="translate(20.200703 229.891969) scale(0.085 -0.085)">
       <defs>
        <path id="DejaVuSans-15" d="M 1228 531 
L 3431 531 
L 3431 0 
L 469 0 
L 469 531 
Q 828 903 1448 1529 
Q 2069 2156 2228 2338 
Q 2531 2678 2651 2914 
Q 2772 3150 2772 3378 
Q 2772 3750 2511 3984 
Q 2250 4219 1831 4219 
Q 1534 4219 1204 4116 
Q 875 4013 500 3803 
L 500 4441 
Q 881 4594 1212 4672 
Q 1544 4750 1819 4750 
Q 2544 4750 2975 4387 
Q 3406 4025 3406 3419 
Q 3406 3131 3298 2873 
Q 3191 2616 2906 2266 
Q 2828 2175 2409 1742 
Q 1991 1309 1228 531 
z
" transform="scale(0.015625)"/>
       </defs>
       <use xlink:href="#DejaVuSans-13"/>
       <use xlink:href="#DejaVuSans-11" transform="translate(63.625 0)"/>
       <use xlink:href="#DejaVuSans-15" transform="translate(95.40625 0)"/>
      </g>
     </g>
    </g>
    <g id="ytick_3">
     <g id="line2d_11">
      <path d="M 40.718359 179.627074 
L 544.936588 179.627074 
" clip-path="url(#pb8aad362f8)" style="fill: none; stroke: #d5d8d4; stroke-opacity: 0.8; stroke-width: 0.7; stroke-linecap: square"/>
     </g>
     <g id="line2d_12">
      <g>
       <use xlink:href="#ma763f90058" x="40.718359" y="179.627074" style="fill: #132238; stroke: #132238; stroke-width: 0.8"/>
      </g>
     </g>
     <g id="text_9">
      <!-- 0.4 -->
      <g style="fill: #132238" transform="translate(20.200703 182.856078) scale(0.085 -0.085)">
       <defs>
        <path id="DejaVuSans-17" d="M 2419 4116 
L 825 1625 
L 2419 1625 
L 2419 4116 
z
M 2253 4666 
L 3047 4666 
L 3047 1625 
L 3713 1625 
L 3713 1100 
L 3047 1100 
L 3047 0 
L 2419 0 
L 2419 1100 
L 313 1100 
L 313 1709 
L 2253 4666 
z
" transform="scale(0.015625)"/>
       </defs>
       <use xlink:href="#DejaVuSans-13"/>
       <use xlink:href="#DejaVuSans-11" transform="translate(63.625 0)"/>
       <use xlink:href="#DejaVuSans-17" transform="translate(95.40625 0)"/>
      </g>
     </g>
    </g>
    <g id="ytick_4">
     <g id="line2d_13">
      <path d="M 40.718359 132.591183 
L 544.936588 132.591183 
" clip-path="url(#pb8aad362f8)" style="fill: none; stroke: #d5d8d4; stroke-opacity: 0.8; stroke-width: 0.7; stroke-linecap: square"/>
     </g>
     <g id="line2d_14">
      <g>
       <use xlink:href="#ma763f90058" x="40.718359" y="132.591183" style="fill: #132238; stroke: #132238; stroke-width: 0.8"/>
      </g>
     </g>
     <g id="text_10">
      <!-- 0.6 -->
      <g style="fill: #132238" transform="translate(20.200703 135.820187) scale(0.085 -0.085)">
       <defs>
        <path id="DejaVuSans-19" d="M 2113 2584 
Q 1688 2584 1439 2293 
Q 1191 2003 1191 1497 
Q 1191 994 1439 701 
Q 1688 409 2113 409 
Q 2538 409 2786 701 
Q 3034 994 3034 1497 
Q 3034 2003 2786 2293 
Q 2538 2584 2113 2584 
z
M 3366 4563 
L 3366 3988 
Q 3128 4100 2886 4159 
Q 2644 4219 2406 4219 
Q 1781 4219 1451 3797 
Q 1122 3375 1075 2522 
Q 1259 2794 1537 2939 
Q 1816 3084 2150 3084 
Q 2853 3084 3261 2657 
Q 3669 2231 3669 1497 
Q 3669 778 3244 343 
Q 2819 -91 2113 -91 
Q 1303 -91 875 529 
Q 447 1150 447 2328 
Q 447 3434 972 4092 
Q 1497 4750 2381 4750 
Q 2619 4750 2861 4703 
Q 3103 4656 3366 4563 
z
" transform="scale(0.015625)"/>
       </defs>
       <use xlink:href="#DejaVuSans-13"/>
       <use xlink:href="#DejaVuSans-11" transform="translate(63.625 0)"/>
       <use xlink:href="#DejaVuSans-19" transform="translate(95.40625 0)"/>
      </g>
     </g>
    </g>
    <g id="ytick_5">
     <g id="line2d_15">
      <path d="M 40.718359 85.555293 
L 544.936588 85.555293 
" clip-path="url(#pb8aad362f8)" style="fill: none; stroke: #d5d8d4; stroke-opacity: 0.8; stroke-width: 0.7; stroke-linecap: square"/>
     </g>
     <g id="line2d_16">
      <g>
       <use xlink:href="#ma763f90058" x="40.718359" y="85.555293" style="fill: #132238; stroke: #132238; stroke-width: 0.8"/>
      </g>
     </g>
     <g id="text_11">
      <!-- 0.8 -->
      <g style="fill: #132238" transform="translate(20.200703 88.784297) scale(0.085 -0.085)">
       <defs>
        <path id="DejaVuSans-1b" d="M 2034 2216 
Q 1584 2216 1326 1975 
Q 1069 1734 1069 1313 
Q 1069 891 1326 650 
Q 1584 409 2034 409 
Q 2484 409 2743 651 
Q 3003 894 3003 1313 
Q 3003 1734 2745 1975 
Q 2488 2216 2034 2216 
z
M 1403 2484 
Q 997 2584 770 2862 
Q 544 3141 544 3541 
Q 544 4100 942 4425 
Q 1341 4750 2034 4750 
Q 2731 4750 3128 4425 
Q 3525 4100 3525 3541 
Q 3525 3141 3298 2862 
Q 3072 2584 2669 2484 
Q 3125 2378 3379 2068 
Q 3634 1759 3634 1313 
Q 3634 634 3220 271 
Q 2806 -91 2034 -91 
Q 1263 -91 848 271 
Q 434 634 434 1313 
Q 434 1759 690 2068 
Q 947 2378 1403 2484 
z
M 1172 3481 
Q 1172 3119 1398 2916 
Q 1625 2713 2034 2713 
Q 2441 2713 2670 2916 
Q 2900 3119 2900 3481 
Q 2900 3844 2670 4047 
Q 2441 4250 2034 4250 
Q 1625 4250 1398 4047 
Q 1172 3844 1172 3481 
z
" transform="scale(0.015625)"/>
       </defs>
       <use xlink:href="#DejaVuSans-13"/>
       <use xlink:href="#DejaVuSans-11" transform="translate(63.625 0)"/>
       <use xlink:href="#DejaVuSans-1b" transform="translate(95.40625 0)"/>
      </g>
     </g>
    </g>
    <g id="ytick_6">
     <g id="line2d_17">
      <path d="M 40.718359 38.519402 
L 544.936588 38.519402 
" clip-path="url(#pb8aad362f8)" style="fill: none; stroke: #d5d8d4; stroke-opacity: 0.8; stroke-width: 0.7; stroke-linecap: square"/>
     </g>
     <g id="line2d_18">
      <g>
       <use xlink:href="#ma763f90058" x="40.718359" y="38.519402" style="fill: #132238; stroke: #132238; stroke-width: 0.8"/>
      </g>
     </g>
     <g id="text_12">
      <!-- 1.0 -->
      <g style="fill: #132238" transform="translate(20.200703 41.748406) scale(0.085 -0.085)">
       <defs>
        <path id="DejaVuSans-14" d="M 794 531 
L 1825 531 
L 1825 4091 
L 703 3866 
L 703 4441 
L 1819 4666 
L 2450 4666 
L 2450 531 
L 3481 531 
L 3481 0 
L 794 0 
L 794 531 
z
" transform="scale(0.015625)"/>
       </defs>
       <use xlink:href="#DejaVuSans-14"/>
       <use xlink:href="#DejaVuSans-11" transform="translate(63.625 0)"/>
       <use xlink:href="#DejaVuSans-13" transform="translate(95.40625 0)"/>
      </g>
     </g>
    </g>
    <g id="text_13">
     <!-- quote-quality share -->
     <g style="fill: #132238" transform="translate(14.038594 200.025613) rotate(-90) scale(0.09 -0.09)">
      <defs>
       <path id="DejaVuSans-54" d="M 947 1747 
Q 947 1113 1208 752 
Q 1469 391 1925 391 
Q 2381 391 2643 752 
Q 2906 1113 2906 1747 
Q 2906 2381 2643 2742 
Q 2381 3103 1925 3103 
Q 1469 3103 1208 2742 
Q 947 2381 947 1747 
z
M 2906 525 
Q 2725 213 2448 61 
Q 2172 -91 1784 -91 
Q 1150 -91 751 415 
Q 353 922 353 1747 
Q 353 2572 751 3078 
Q 1150 3584 1784 3584 
Q 2172 3584 2448 3432 
Q 2725 3281 2906 2969 
L 2906 3500 
L 3481 3500 
L 3481 -1331 
L 2906 -1331 
L 2906 525 
z
" transform="scale(0.015625)"/>
       <path id="DejaVuSans-58" d="M 544 1381 
L 544 3500 
L 1119 3500 
L 1119 1403 
Q 1119 906 1312 657 
Q 1506 409 1894 409 
Q 2359 409 2629 706 
Q 2900 1003 2900 1516 
L 2900 3500 
L 3475 3500 
L 3475 0 
L 2900 0 
L 2900 538 
Q 2691 219 2414 64 
Q 2138 -91 1772 -91 
Q 1169 -91 856 284 
Q 544 659 544 1381 
z
M 1991 3584 
L 1991 3584 
z
" transform="scale(0.015625)"/>
       <path id="DejaVuSans-52" d="M 1959 3097 
Q 1497 3097 1228 2736 
Q 959 2375 959 1747 
Q 959 1119 1226 758 
Q 1494 397 1959 397 
Q 2419 397 2687 759 
Q 2956 1122 2956 1747 
Q 2956 2369 2687 2733 
Q 2419 3097 1959 3097 
z
M 1959 3584 
Q 2709 3584 3137 3096 
Q 3566 2609 3566 1747 
Q 3566 888 3137 398 
Q 2709 -91 1959 -91 
Q 1206 -91 779 398 
Q 353 888 353 1747 
Q 353 2609 779 3096 
Q 1206 3584 1959 3584 
z
" transform="scale(0.015625)"/>
       <path id="DejaVuSans-57" d="M 1172 4494 
L 1172 3500 
L 2356 3500 
L 2356 3053 
L 1172 3053 
L 1172 1153 
Q 1172 725 1289 603 
Q 1406 481 1766 481 
L 2356 481 
L 2356 0 
L 1766 0 
Q 1100 0 847 248 
Q 594 497 594 1153 
L 594 3053 
L 172 3053 
L 172 3500 
L 594 3500 
L 594 4494 
L 1172 4494 
z
" transform="scale(0.015625)"/>
       <path id="DejaVuSans-48" d="M 3597 1894 
L 3597 1613 
L 953 1613 
Q 991 1019 1311 708 
Q 1631 397 2203 397 
Q 2534 397 2845 478 
Q 3156 559 3463 722 
L 3463 178 
Q 3153 47 2828 -22 
Q 2503 -91 2169 -91 
Q 1331 -91 842 396 
Q 353 884 353 1716 
Q 353 2575 817 3079 
Q 1281 3584 2069 3584 
Q 2775 3584 3186 3129 
Q 3597 2675 3597 1894 
z
M 3022 2063 
Q 3016 2534 2758 2815 
Q 2500 3097 2075 3097 
Q 1594 3097 1305 2825 
Q 1016 2553 972 2059 
L 3022 2063 
z
" transform="scale(0.015625)"/>
       <path id="DejaVuSans-10" d="M 313 2009 
L 1997 2009 
L 1997 1497 
L 313 1497 
L 313 2009 
z
" transform="scale(0.015625)"/>
       <path id="DejaVuSans-44" d="M 2194 1759 
Q 1497 1759 1228 1600 
Q 959 1441 959 1056 
Q 959 750 1161 570 
Q 1363 391 1709 391 
Q 2188 391 2477 730 
Q 2766 1069 2766 1631 
L 2766 1759 
L 2194 1759 
z
M 3341 1997 
L 3341 0 
L 2766 0 
L 2766 531 
Q 2569 213 2275 61 
Q 1981 -91 1556 -91 
Q 1019 -91 701 211 
Q 384 513 384 1019 
Q 384 1609 779 1909 
Q 1175 2209 1959 2209 
L 2766 2209 
L 2766 2266 
Q 2766 2663 2505 2880 
Q 2244 3097 1772 3097 
Q 1472 3097 1187 3025 
Q 903 2953 641 2809 
L 641 3341 
Q 956 3463 1253 3523 
Q 1550 3584 1831 3584 
Q 2591 3584 2966 3190 
Q 3341 2797 3341 1997 
z
" transform="scale(0.015625)"/>
       <path id="DejaVuSans-4f" d="M 603 4863 
L 1178 4863 
L 1178 0 
L 603 0 
L 603 4863 
z
" transform="scale(0.015625)"/>
       <path id="DejaVuSans-4c" d="M 603 3500 
L 1178 3500 
L 1178 0 
L 603 0 
L 603 3500 
z
M 603 4863 
L 1178 4863 
L 1178 4134 
L 603 4134 
L 603 4863 
z
" transform="scale(0.015625)"/>
       <path id="DejaVuSans-5c" d="M 2059 -325 
Q 1816 -950 1584 -1140 
Q 1353 -1331 966 -1331 
L 506 -1331 
L 506 -850 
L 844 -850 
Q 1081 -850 1212 -737 
Q 1344 -625 1503 -206 
L 1606 56 
L 191 3500 
L 800 3500 
L 1894 763 
L 2988 3500 
L 3597 3500 
L 2059 -325 
z
" transform="scale(0.015625)"/>
       <path id="DejaVuSans-3" transform="scale(0.015625)"/>
       <path id="DejaVuSans-56" d="M 2834 3397 
L 2834 2853 
Q 2591 2978 2328 3040 
Q 2066 3103 1784 3103 
Q 1356 3103 1142 2972 
Q 928 2841 928 2578 
Q 928 2378 1081 2264 
Q 1234 2150 1697 2047 
L 1894 2003 
Q 2506 1872 2764 1633 
Q 3022 1394 3022 966 
Q 3022 478 2636 193 
Q 2250 -91 1575 -91 
Q 1294 -91 989 -36 
Q 684 19 347 128 
L 347 722 
Q 666 556 975 473 
Q 1284 391 1588 391 
Q 1994 391 2212 530 
Q 2431 669 2431 922 
Q 2431 1156 2273 1281 
Q 2116 1406 1581 1522 
L 1381 1569 
Q 847 1681 609 1914 
Q 372 2147 372 2553 
Q 372 3047 722 3315 
Q 1072 3584 1716 3584 
Q 2034 3584 2315 3537 
Q 2597 3491 2834 3397 
z
" transform="scale(0.015625)"/>
       <path id="DejaVuSans-4b" d="M 3513 2113 
L 3513 0 
L 2938 0 
L 2938 2094 
Q 2938 2591 2744 2837 
Q 2550 3084 2163 3084 
Q 1697 3084 1428 2787 
Q 1159 2491 1159 1978 
L 1159 0 
L 581 0 
L 581 4863 
L 1159 4863 
L 1159 2956 
Q 1366 3272 1645 3428 
Q 1925 3584 2291 3584 
Q 2894 3584 3203 3211 
Q 3513 2838 3513 2113 
z
" transform="scale(0.015625)"/>
       <path id="DejaVuSans-55" d="M 2631 2963 
Q 2534 3019 2420 3045 
Q 2306 3072 2169 3072 
Q 1681 3072 1420 2755 
Q 1159 2438 1159 1844 
L 1159 0 
L 581 0 
L 581 3500 
L 1159 3500 
L 1159 2956 
Q 1341 3275 1631 3429 
Q 1922 3584 2338 3584 
Q 2397 3584 2469 3576 
Q 2541 3569 2628 3553 
L 2631 2963 
z
" transform="scale(0.015625)"/>
      </defs>
      <use xlink:href="#DejaVuSans-54"/>
      <use xlink:href="#DejaVuSans-58" transform="translate(63.484375 0)"/>
      <use xlink:href="#DejaVuSans-52" transform="translate(126.859375 0)"/>
      <use xlink:href="#DejaVuSans-57" transform="translate(188.046875 0)"/>
      <use xlink:href="#DejaVuSans-48" transform="translate(227.25 0)"/>
      <use xlink:href="#DejaVuSans-10" transform="translate(288.78125 0)"/>
      <use xlink:href="#DejaVuSans-54" transform="translate(324.859375 0)"/>
      <use xlink:href="#DejaVuSans-58" transform="translate(388.34375 0)"/>
      <use xlink:href="#DejaVuSans-44" transform="translate(451.71875 0)"/>
      <use xlink:href="#DejaVuSans-4f" transform="translate(513 0)"/>
      <use xlink:href="#DejaVuSans-4c" transform="translate(540.78125 0)"/>
      <use xlink:href="#DejaVuSans-57" transform="translate(568.5625 0)"/>
      <use xlink:href="#DejaVuSans-5c" transform="translate(607.765625 0)"/>
      <use xlink:href="#DejaVuSans-3" transform="translate(666.953125 0)"/>
      <use xlink:href="#DejaVuSans-56" transform="translate(698.734375 0)"/>
      <use xlink:href="#DejaVuSans-4b" transform="translate(750.828125 0)"/>
      <use xlink:href="#DejaVuSans-44" transform="translate(814.203125 0)"/>
      <use xlink:href="#DejaVuSans-55" transform="translate(875.484375 0)"/>
      <use xlink:href="#DejaVuSans-48" transform="translate(914.390625 0)"/>
     </g>
    </g>
   </g>
   <g id="patch_21">
    <path d="M 40.718359 273.698856 
L 40.718359 38.519402 
" style="fill: none; stroke: #132238; stroke-width: 0.8; stroke-linejoin: miter; stroke-linecap: square"/>
   </g>
   <g id="patch_22">
    <path d="M 40.718359 273.698856 
L 544.936588 273.698856 
" style="fill: none; stroke: #132238; stroke-width: 0.8; stroke-linejoin: miter; stroke-linecap: square"/>
   </g>
   <g id="text_14">
    <!-- Local quote-quality states -->
    <g style="fill: #132238" transform="translate(204.422161 32.519402) scale(0.12 -0.12)">
     <defs>
      <path id="DejaVuSans-Bold-2f" d="M 588 4666 
L 1791 4666 
L 1791 909 
L 3903 909 
L 3903 0 
L 588 0 
L 588 4666 
z
" transform="scale(0.015625)"/>
      <path id="DejaVuSans-Bold-52" d="M 2203 2784 
Q 1831 2784 1636 2517 
Q 1441 2250 1441 1747 
Q 1441 1244 1636 976 
Q 1831 709 2203 709 
Q 2569 709 2762 976 
Q 2956 1244 2956 1747 
Q 2956 2250 2762 2517 
Q 2569 2784 2203 2784 
z
M 2203 3584 
Q 3106 3584 3614 3096 
Q 4122 2609 4122 1747 
Q 4122 884 3614 396 
Q 3106 -91 2203 -91 
Q 1297 -91 786 396 
Q 275 884 275 1747 
Q 275 2609 786 3096 
Q 1297 3584 2203 3584 
z
" transform="scale(0.015625)"/>
      <path id="DejaVuSans-Bold-46" d="M 3366 3391 
L 3366 2478 
Q 3138 2634 2908 2709 
Q 2678 2784 2431 2784 
Q 1963 2784 1702 2511 
Q 1441 2238 1441 1747 
Q 1441 1256 1702 982 
Q 1963 709 2431 709 
Q 2694 709 2930 787 
Q 3166 866 3366 1019 
L 3366 103 
Q 3103 6 2833 -42 
Q 2563 -91 2291 -91 
Q 1344 -91 809 395 
Q 275 881 275 1747 
Q 275 2613 809 3098 
Q 1344 3584 2291 3584 
Q 2566 3584 2833 3536 
Q 3100 3488 3366 3391 
z
" transform="scale(0.015625)"/>
      <path id="DejaVuSans-Bold-44" d="M 2106 1575 
Q 1756 1575 1579 1456 
Q 1403 1338 1403 1106 
Q 1403 894 1545 773 
Q 1688 653 1941 653 
Q 2256 653 2472 879 
Q 2688 1106 2688 1447 
L 2688 1575 
L 2106 1575 
z
M 3816 1997 
L 3816 0 
L 2688 0 
L 2688 519 
Q 2463 200 2181 54 
Q 1900 -91 1497 -91 
Q 953 -91 614 226 
Q 275 544 275 1050 
Q 275 1666 698 1953 
Q 1122 2241 2028 2241 
L 2688 2241 
L 2688 2328 
Q 2688 2594 2478 2717 
Q 2269 2841 1825 2841 
Q 1466 2841 1156 2769 
Q 847 2697 581 2553 
L 581 3406 
Q 941 3494 1303 3539 
Q 1666 3584 2028 3584 
Q 2975 3584 3395 3211 
Q 3816 2838 3816 1997 
z
" transform="scale(0.015625)"/>
      <path id="DejaVuSans-Bold-4f" d="M 538 4863 
L 1656 4863 
L 1656 0 
L 538 0 
L 538 4863 
z
" transform="scale(0.015625)"/>
      <path id="DejaVuSans-Bold-3" transform="scale(0.015625)"/>
      <path id="DejaVuSans-Bold-54" d="M 2181 2772 
Q 1825 2772 1636 2509 
Q 1447 2247 1447 1747 
Q 1447 1247 1636 984 
Q 1825 722 2181 722 
Q 2541 722 2730 984 
Q 2919 1247 2919 1747 
Q 2919 2247 2730 2509 
Q 2541 2772 2181 2772 
z
M 2919 506 
Q 2688 197 2409 53 
Q 2131 -91 1766 -91 
Q 1119 -91 703 423 
Q 288 938 288 1747 
Q 288 2556 703 3067 
Q 1119 3578 1766 3578 
Q 2131 3578 2409 3434 
Q 2688 3291 2919 2981 
L 2919 3500 
L 4044 3500 
L 4044 -1331 
L 2919 -1331 
L 2919 506 
z
" transform="scale(0.015625)"/>
      <path id="DejaVuSans-Bold-58" d="M 500 1363 
L 500 3500 
L 1625 3500 
L 1625 3150 
Q 1625 2866 1622 2436 
Q 1619 2006 1619 1863 
Q 1619 1441 1641 1255 
Q 1663 1069 1716 984 
Q 1784 875 1895 815 
Q 2006 756 2150 756 
Q 2500 756 2700 1025 
Q 2900 1294 2900 1772 
L 2900 3500 
L 4019 3500 
L 4019 0 
L 2900 0 
L 2900 506 
Q 2647 200 2364 54 
Q 2081 -91 1741 -91 
Q 1134 -91 817 281 
Q 500 653 500 1363 
z
" transform="scale(0.015625)"/>
      <path id="DejaVuSans-Bold-57" d="M 1759 4494 
L 1759 3500 
L 2913 3500 
L 2913 2700 
L 1759 2700 
L 1759 1216 
Q 1759 972 1856 886 
Q 1953 800 2241 800 
L 2816 800 
L 2816 0 
L 1856 0 
Q 1194 0 917 276 
Q 641 553 641 1216 
L 641 2700 
L 84 2700 
L 84 3500 
L 641 3500 
L 641 4494 
L 1759 4494 
z
" transform="scale(0.015625)"/>
      <path id="DejaVuSans-Bold-48" d="M 4031 1759 
L 4031 1441 
L 1416 1441 
Q 1456 1047 1700 850 
Q 1944 653 2381 653 
Q 2734 653 3104 758 
Q 3475 863 3866 1075 
L 3866 213 
Q 3469 63 3072 -14 
Q 2675 -91 2278 -91 
Q 1328 -91 801 392 
Q 275 875 275 1747 
Q 275 2603 792 3093 
Q 1309 3584 2216 3584 
Q 3041 3584 3536 3087 
Q 4031 2591 4031 1759 
z
M 2881 2131 
Q 2881 2450 2695 2645 
Q 2509 2841 2209 2841 
Q 1884 2841 1681 2658 
Q 1478 2475 1428 2131 
L 2881 2131 
z
" transform="scale(0.015625)"/>
      <path id="DejaVuSans-Bold-10" d="M 347 2297 
L 2309 2297 
L 2309 1388 
L 347 1388 
L 347 2297 
z
" transform="scale(0.015625)"/>
      <path id="DejaVuSans-Bold-4c" d="M 538 3500 
L 1656 3500 
L 1656 0 
L 538 0 
L 538 3500 
z
M 538 4863 
L 1656 4863 
L 1656 3950 
L 538 3950 
L 538 4863 
z
" transform="scale(0.015625)"/>
      <path id="DejaVuSans-Bold-5c" d="M 78 3500 
L 1197 3500 
L 2138 1125 
L 2938 3500 
L 4056 3500 
L 2584 -331 
Q 2363 -916 2067 -1148 
Q 1772 -1381 1288 -1381 
L 641 -1381 
L 641 -647 
L 991 -647 
Q 1275 -647 1404 -556 
Q 1534 -466 1606 -231 
L 1638 -134 
L 78 3500 
z
" transform="scale(0.015625)"/>
      <path id="DejaVuSans-Bold-56" d="M 3272 3391 
L 3272 2541 
Q 2913 2691 2578 2766 
Q 2244 2841 1947 2841 
Q 1628 2841 1473 2761 
Q 1319 2681 1319 2516 
Q 1319 2381 1436 2309 
Q 1553 2238 1856 2203 
L 2053 2175 
Q 2913 2066 3209 1816 
Q 3506 1566 3506 1031 
Q 3506 472 3093 190 
Q 2681 -91 1863 -91 
Q 1516 -91 1145 -36 
Q 775 19 384 128 
L 384 978 
Q 719 816 1070 734 
Q 1422 653 1784 653 
Q 2113 653 2278 743 
Q 2444 834 2444 1013 
Q 2444 1163 2330 1236 
Q 2216 1309 1875 1350 
L 1678 1375 
Q 931 1469 631 1722 
Q 331 1975 331 2491 
Q 331 3047 712 3315 
Q 1094 3584 1881 3584 
Q 2191 3584 2531 3537 
Q 2872 3491 3272 3391 
z
" transform="scale(0.015625)"/>
     </defs>
     <use xlink:href="#DejaVuSans-Bold-2f"/>
     <use xlink:href="#DejaVuSans-Bold-52" transform="translate(63.71875 0)"/>
     <use xlink:href="#DejaVuSans-Bold-46" transform="translate(132.421875 0)"/>
     <use xlink:href="#DejaVuSans-Bold-44" transform="translate(191.703125 0)"/>
     <use xlink:href="#DejaVuSans-Bold-4f" transform="translate(259.1875 0)"/>
     <use xlink:href="#DejaVuSans-Bold-3" transform="translate(293.46875 0)"/>
     <use xlink:href="#DejaVuSans-Bold-54" transform="translate(328.28125 0)"/>
     <use xlink:href="#DejaVuSans-Bold-58" transform="translate(399.859375 0)"/>
     <use xlink:href="#DejaVuSans-Bold-52" transform="translate(471.046875 0)"/>
     <use xlink:href="#DejaVuSans-Bold-57" transform="translate(539.75 0)"/>
     <use xlink:href="#DejaVuSans-Bold-48" transform="translate(587.546875 0)"/>
     <use xlink:href="#DejaVuSans-Bold-10" transform="translate(655.375 0)"/>
     <use xlink:href="#DejaVuSans-Bold-54" transform="translate(696.875 0)"/>
     <use xlink:href="#DejaVuSans-Bold-58" transform="translate(768.453125 0)"/>
     <use xlink:href="#DejaVuSans-Bold-44" transform="translate(839.640625 0)"/>
     <use xlink:href="#DejaVuSans-Bold-4f" transform="translate(907.125 0)"/>
     <use xlink:href="#DejaVuSans-Bold-4c" transform="translate(941.40625 0)"/>
     <use xlink:href="#DejaVuSans-Bold-57" transform="translate(975.6875 0)"/>
     <use xlink:href="#DejaVuSans-Bold-5c" transform="translate(1023.484375 0)"/>
     <use xlink:href="#DejaVuSans-Bold-3" transform="translate(1088.671875 0)"/>
     <use xlink:href="#DejaVuSans-Bold-56" transform="translate(1123.484375 0)"/>
     <use xlink:href="#DejaVuSans-Bold-57" transform="translate(1183 0)"/>
     <use xlink:href="#DejaVuSans-Bold-44" transform="translate(1230.796875 0)"/>
     <use xlink:href="#DejaVuSans-Bold-57" transform="translate(1298.28125 0)"/>
     <use xlink:href="#DejaVuSans-Bold-48" transform="translate(1346.078125 0)"/>
     <use xlink:href="#DejaVuSans-Bold-56" transform="translate(1413.90625 0)"/>
    </g>
   </g>
   <g id="legend_1">
    <g id="patch_23">
     <path d="M 47.918359 51.798152 
L 63.918359 51.798152 
L 63.918359 46.198152 
L 47.918359 46.198152 
z
" style="fill: #1e7a74"/>
    </g>
    <g id="text_15">
     <!-- pass -->
     <g transform="translate(70.318359 51.798152) scale(0.08 -0.08)">
      <defs>
       <path id="DejaVuSans-53" d="M 1159 525 
L 1159 -1331 
L 581 -1331 
L 581 3500 
L 1159 3500 
L 1159 2969 
Q 1341 3281 1617 3432 
Q 1894 3584 2278 3584 
Q 2916 3584 3314 3078 
Q 3713 2572 3713 1747 
Q 3713 922 3314 415 
Q 2916 -91 2278 -91 
Q 1894 -91 1617 61 
Q 1341 213 1159 525 
z
M 3116 1747 
Q 3116 2381 2855 2742 
Q 2594 3103 2138 3103 
Q 1681 3103 1420 2742 
Q 1159 2381 1159 1747 
Q 1159 1113 1420 752 
Q 1681 391 2138 391 
Q 2594 391 2855 752 
Q 3116 1113 3116 1747 
z
" transform="scale(0.015625)"/>
      </defs>
      <use xlink:href="#DejaVuSans-53"/>
      <use xlink:href="#DejaVuSans-44" transform="translate(63.484375 0)"/>
      <use xlink:href="#DejaVuSans-56" transform="translate(124.765625 0)"/>
      <use xlink:href="#DejaVuSans-56" transform="translate(176.859375 0)"/>
     </g>
    </g>
    <g id="patch_24">
     <path d="M 104.634609 51.798152 
L 120.634609 51.798152 
L 120.634609 46.198152 
L 104.634609 46.198152 
z
" style="fill: #d8b46a"/>
    </g>
    <g id="text_16">
     <!-- warning -->
     <g transform="translate(127.034609 51.798152) scale(0.08 -0.08)">
      <defs>
       <path id="DejaVuSans-5a" d="M 269 3500 
L 844 3500 
L 1563 769 
L 2278 3500 
L 2956 3500 
L 3675 769 
L 4391 3500 
L 4966 3500 
L 4050 0 
L 3372 0 
L 2619 2869 
L 1863 0 
L 1184 0 
L 269 3500 
z
" transform="scale(0.015625)"/>
       <path id="DejaVuSans-51" d="M 3513 2113 
L 3513 0 
L 2938 0 
L 2938 2094 
Q 2938 2591 2744 2837 
Q 2550 3084 2163 3084 
Q 1697 3084 1428 2787 
Q 1159 2491 1159 1978 
L 1159 0 
L 581 0 
L 581 3500 
L 1159 3500 
L 1159 2956 
Q 1366 3272 1645 3428 
Q 1925 3584 2291 3584 
Q 2894 3584 3203 3211 
Q 3513 2838 3513 2113 
z
" transform="scale(0.015625)"/>
       <path id="DejaVuSans-4a" d="M 2906 1791 
Q 2906 2416 2648 2759 
Q 2391 3103 1925 3103 
Q 1463 3103 1205 2759 
Q 947 2416 947 1791 
Q 947 1169 1205 825 
Q 1463 481 1925 481 
Q 2391 481 2648 825 
Q 2906 1169 2906 1791 
z
M 3481 434 
Q 3481 -459 3084 -895 
Q 2688 -1331 1869 -1331 
Q 1566 -1331 1297 -1286 
Q 1028 -1241 775 -1147 
L 775 -588 
Q 1028 -725 1275 -790 
Q 1522 -856 1778 -856 
Q 2344 -856 2625 -561 
Q 2906 -266 2906 331 
L 2906 616 
Q 2728 306 2450 153 
Q 2172 0 1784 0 
Q 1141 0 747 490 
Q 353 981 353 1791 
Q 353 2603 747 3093 
Q 1141 3584 1784 3584 
Q 2172 3584 2450 3431 
Q 2728 3278 2906 2969 
L 2906 3500 
L 3481 3500 
L 3481 434 
z
" transform="scale(0.015625)"/>
      </defs>
      <use xlink:href="#DejaVuSans-5a"/>
      <use xlink:href="#DejaVuSans-44" transform="translate(81.78125 0)"/>
      <use xlink:href="#DejaVuSans-55" transform="translate(143.0625 0)"/>
      <use xlink:href="#DejaVuSans-51" transform="translate(182.421875 0)"/>
      <use xlink:href="#DejaVuSans-4c" transform="translate(245.796875 0)"/>
      <use xlink:href="#DejaVuSans-51" transform="translate(273.578125 0)"/>
      <use xlink:href="#DejaVuSans-4a" transform="translate(336.953125 0)"/>
     </g>
    </g>
    <g id="patch_25">
     <path d="M 175.069609 51.798152 
L 191.069609 51.798152 
L 191.069609 46.198152 
L 175.069609 46.198152 
z
" style="fill: #a73a3a"/>
    </g>
    <g id="text_17">
     <!-- failure -->
     <g transform="translate(197.469609 51.798152) scale(0.08 -0.08)">
      <defs>
       <path id="DejaVuSans-49" d="M 2375 4863 
L 2375 4384 
L 1825 4384 
Q 1516 4384 1395 4259 
Q 1275 4134 1275 3809 
L 1275 3500 
L 2222 3500 
L 2222 3053 
L 1275 3053 
L 1275 0 
L 697 0 
L 697 3053 
L 147 3053 
L 147 3500 
L 697 3500 
L 697 3744 
Q 697 4328 969 4595 
Q 1241 4863 1831 4863 
L 2375 4863 
z
" transform="scale(0.015625)"/>
      </defs>
      <use xlink:href="#DejaVuSans-49"/>
      <use xlink:href="#DejaVuSans-44" transform="translate(35.203125 0)"/>
      <use xlink:href="#DejaVuSans-4c" transform="translate(96.484375 0)"/>
      <use xlink:href="#DejaVuSans-4f" transform="translate(124.265625 0)"/>
      <use xlink:href="#DejaVuSans-58" transform="translate(152.046875 0)"/>
      <use xlink:href="#DejaVuSans-55" transform="translate(215.421875 0)"/>
      <use xlink:href="#DejaVuSans-48" transform="translate(254.328125 0)"/>
     </g>
    </g>
   </g>
  </g>
  <g id="axes_2">
   <g id="patch_26">
    <path d="M 578.409416 273.698856 
L 807.59952 273.698856 
L 807.59952 38.519402 
L 578.409416 38.519402 
z
" style="fill: #f7f3ea"/>
   </g>
   <g id="patch_27">
    <path d="M 588.827148 273.698856 
L 648.357045 273.698856 
L 648.357045 49.718423 
L 588.827148 49.718423 
z
" clip-path="url(#p491da9cb06)" style="fill: #a73a3a"/>
   </g>
   <g id="patch_28">
    <path d="M 663.239519 273.698856 
L 722.769417 273.698856 
L 722.769417 273.698856 
L 663.239519 273.698856 
z
" clip-path="url(#p491da9cb06)" style="fill: #244a64"/>
   </g>
   <g id="patch_29">
    <path d="M 737.651891 273.698856 
L 797.181788 273.698856 
L 797.181788 273.698856 
L 737.651891 273.698856 
z
" clip-path="url(#p491da9cb06)" style="fill: #c96c3b"/>
   </g>
   <g id="matplotlib.axis_3">
    <g id="xtick_7">
     <g id="line2d_19">
      <g>
       <use xlink:href="#m905506c83d" x="618.592097" y="273.698856" style="fill: #132238; stroke: #132238; stroke-width: 0.8"/>
      </g>
     </g>
     <g id="text_18">
      <!-- liquidity -->
      <g style="fill: #132238" transform="translate(601.598073 287.157528) scale(0.085 -0.085)">
       <defs>
        <path id="DejaVuSans-47" d="M 2906 2969 
L 2906 4863 
L 3481 4863 
L 3481 0 
L 2906 0 
L 2906 525 
Q 2725 213 2448 61 
Q 2172 -91 1784 -91 
Q 1150 -91 751 415 
Q 353 922 353 1747 
Q 353 2572 751 3078 
Q 1150 3584 1784 3584 
Q 2172 3584 2448 3432 
Q 2725 3281 2906 2969 
z
M 947 1747 
Q 947 1113 1208 752 
Q 1469 391 1925 391 
Q 2381 391 2643 752 
Q 2906 1113 2906 1747 
Q 2906 2381 2643 2742 
Q 2381 3103 1925 3103 
Q 1469 3103 1208 2742 
Q 947 2381 947 1747 
z
" transform="scale(0.015625)"/>
       </defs>
       <use xlink:href="#DejaVuSans-4f"/>
       <use xlink:href="#DejaVuSans-4c" transform="translate(27.78125 0)"/>
       <use xlink:href="#DejaVuSans-54" transform="translate(55.5625 0)"/>
       <use xlink:href="#DejaVuSans-58" transform="translate(119.046875 0)"/>
       <use xlink:href="#DejaVuSans-4c" transform="translate(182.421875 0)"/>
       <use xlink:href="#DejaVuSans-47" transform="translate(210.203125 0)"/>
       <use xlink:href="#DejaVuSans-4c" transform="translate(273.6875 0)"/>
       <use xlink:href="#DejaVuSans-57" transform="translate(301.46875 0)"/>
       <use xlink:href="#DejaVuSans-5c" transform="translate(340.671875 0)"/>
      </g>
     </g>
    </g>
    <g id="xtick_8">
     <g id="line2d_20">
      <g>
       <use xlink:href="#m905506c83d" x="693.004468" y="273.698856" style="fill: #132238; stroke: #132238; stroke-width: 0.8"/>
      </g>
     </g>
     <g id="text_19">
      <!-- engine -->
      <g style="fill: #132238" transform="translate(678.508648 287.157528) scale(0.085 -0.085)">
       <use xlink:href="#DejaVuSans-48"/>
       <use xlink:href="#DejaVuSans-51" transform="translate(61.53125 0)"/>
       <use xlink:href="#DejaVuSans-4a" transform="translate(124.90625 0)"/>
       <use xlink:href="#DejaVuSans-4c" transform="translate(188.390625 0)"/>
       <use xlink:href="#DejaVuSans-51" transform="translate(216.171875 0)"/>
       <use xlink:href="#DejaVuSans-48" transform="translate(279.546875 0)"/>
      </g>
     </g>
    </g>
    <g id="xtick_9">
     <g id="line2d_21">
      <g>
       <use xlink:href="#m905506c83d" x="767.416839" y="273.698856" style="fill: #132238; stroke: #132238; stroke-width: 0.8"/>
      </g>
     </g>
     <g id="text_20">
      <!-- intrinsic -->
      <g style="fill: #132238" transform="translate(750.523754 287.157528) scale(0.085 -0.085)">
       <defs>
        <path id="DejaVuSans-46" d="M 3122 3366 
L 3122 2828 
Q 2878 2963 2633 3030 
Q 2388 3097 2138 3097 
Q 1578 3097 1268 2742 
Q 959 2388 959 1747 
Q 959 1106 1268 751 
Q 1578 397 2138 397 
Q 2388 397 2633 464 
Q 2878 531 3122 666 
L 3122 134 
Q 2881 22 2623 -34 
Q 2366 -91 2075 -91 
Q 1284 -91 818 406 
Q 353 903 353 1747 
Q 353 2603 823 3093 
Q 1294 3584 2113 3584 
Q 2378 3584 2631 3529 
Q 2884 3475 3122 3366 
z
" transform="scale(0.015625)"/>
       </defs>
       <use xlink:href="#DejaVuSans-4c"/>
       <use xlink:href="#DejaVuSans-51" transform="translate(27.78125 0)"/>
       <use xlink:href="#DejaVuSans-57" transform="translate(91.15625 0)"/>
       <use xlink:href="#DejaVuSans-55" transform="translate(130.359375 0)"/>
       <use xlink:href="#DejaVuSans-4c" transform="translate(171.46875 0)"/>
       <use xlink:href="#DejaVuSans-51" transform="translate(199.25 0)"/>
       <use xlink:href="#DejaVuSans-56" transform="translate(262.625 0)"/>
       <use xlink:href="#DejaVuSans-4c" transform="translate(314.71875 0)"/>
       <use xlink:href="#DejaVuSans-46" transform="translate(342.5 0)"/>
      </g>
     </g>
    </g>
   </g>
   <g id="matplotlib.axis_4">
    <g id="ytick_7">
     <g id="line2d_22">
      <path d="M 578.409416 273.698856 
L 807.59952 273.698856 
" clip-path="url(#p491da9cb06)" style="fill: none; stroke: #d5d8d4; stroke-opacity: 0.8; stroke-width: 0.7; stroke-linecap: square"/>
     </g>
     <g id="line2d_23">
      <g>
       <use xlink:href="#ma763f90058" x="578.409416" y="273.698856" style="fill: #132238; stroke: #132238; stroke-width: 0.8"/>
      </g>
     </g>
     <g id="text_21">
      <!-- 0 -->
      <g style="fill: #132238" transform="translate(566.001291 276.92786) scale(0.085 -0.085)">
       <use xlink:href="#DejaVuSans-13"/>
      </g>
     </g>
    </g>
    <g id="ytick_8">
     <g id="line2d_24">
      <path d="M 578.409416 241.701651 
L 807.59952 241.701651 
" clip-path="url(#p491da9cb06)" style="fill: none; stroke: #d5d8d4; stroke-opacity: 0.8; stroke-width: 0.7; stroke-linecap: square"/>
     </g>
     <g id="line2d_25">
      <g>
       <use xlink:href="#ma763f90058" x="578.409416" y="241.701651" style="fill: #132238; stroke: #132238; stroke-width: 0.8"/>
      </g>
     </g>
     <g id="text_22">
      <!-- 1 -->
      <g style="fill: #132238" transform="translate(566.001291 244.930655) scale(0.085 -0.085)">
       <use xlink:href="#DejaVuSans-14"/>
      </g>
     </g>
    </g>
    <g id="ytick_9">
     <g id="line2d_26">
      <path d="M 578.409416 209.704447 
L 807.59952 209.704447 
" clip-path="url(#p491da9cb06)" style="fill: none; stroke: #d5d8d4; stroke-opacity: 0.8; stroke-width: 0.7; stroke-linecap: square"/>
     </g>
     <g id="line2d_27">
      <g>
       <use xlink:href="#ma763f90058" x="578.409416" y="209.704447" style="fill: #132238; stroke: #132238; stroke-width: 0.8"/>
      </g>
     </g>
     <g id="text_23">
      <!-- 2 -->
      <g style="fill: #132238" transform="translate(566.001291 212.933451) scale(0.085 -0.085)">
       <use xlink:href="#DejaVuSans-15"/>
      </g>
     </g>
    </g>
    <g id="ytick_10">
     <g id="line2d_28">
      <path d="M 578.409416 177.707242 
L 807.59952 177.707242 
" clip-path="url(#p491da9cb06)" style="fill: none; stroke: #d5d8d4; stroke-opacity: 0.8; stroke-width: 0.7; stroke-linecap: square"/>
     </g>
     <g id="line2d_29">
      <g>
       <use xlink:href="#ma763f90058" x="578.409416" y="177.707242" style="fill: #132238; stroke: #132238; stroke-width: 0.8"/>
      </g>
     </g>
     <g id="text_24">
      <!-- 3 -->
      <g style="fill: #132238" transform="translate(566.001291 180.936246) scale(0.085 -0.085)">
       <defs>
        <path id="DejaVuSans-16" d="M 2597 2516 
Q 3050 2419 3304 2112 
Q 3559 1806 3559 1356 
Q 3559 666 3084 287 
Q 2609 -91 1734 -91 
Q 1441 -91 1130 -33 
Q 819 25 488 141 
L 488 750 
Q 750 597 1062 519 
Q 1375 441 1716 441 
Q 2309 441 2620 675 
Q 2931 909 2931 1356 
Q 2931 1769 2642 2001 
Q 2353 2234 1838 2234 
L 1294 2234 
L 1294 2753 
L 1863 2753 
Q 2328 2753 2575 2939 
Q 2822 3125 2822 3475 
Q 2822 3834 2567 4026 
Q 2313 4219 1838 4219 
Q 1578 4219 1281 4162 
Q 984 4106 628 3988 
L 628 4550 
Q 988 4650 1302 4700 
Q 1616 4750 1894 4750 
Q 2613 4750 3031 4423 
Q 3450 4097 3450 3541 
Q 3450 3153 3228 2886 
Q 3006 2619 2597 2516 
z
" transform="scale(0.015625)"/>
       </defs>
       <use xlink:href="#DejaVuSans-16"/>
      </g>
     </g>
    </g>
    <g id="ytick_11">
     <g id="line2d_30">
      <path d="M 578.409416 145.710037 
L 807.59952 145.710037 
" clip-path="url(#p491da9cb06)" style="fill: none; stroke: #d5d8d4; stroke-opacity: 0.8; stroke-width: 0.7; stroke-linecap: square"/>
     </g>
     <g id="line2d_31">
      <g>
       <use xlink:href="#ma763f90058" x="578.409416" y="145.710037" style="fill: #132238; stroke: #132238; stroke-width: 0.8"/>
      </g>
     </g>
     <g id="text_25">
      <!-- 4 -->
      <g style="fill: #132238" transform="translate(566.001291 148.939041) scale(0.085 -0.085)">
       <use xlink:href="#DejaVuSans-17"/>
      </g>
     </g>
    </g>
    <g id="ytick_12">
     <g id="line2d_32">
      <path d="M 578.409416 113.712833 
L 807.59952 113.712833 
" clip-path="url(#p491da9cb06)" style="fill: none; stroke: #d5d8d4; stroke-opacity: 0.8; stroke-width: 0.7; stroke-linecap: square"/>
     </g>
     <g id="line2d_33">
      <g>
       <use xlink:href="#ma763f90058" x="578.409416" y="113.712833" style="fill: #132238; stroke: #132238; stroke-width: 0.8"/>
      </g>
     </g>
     <g id="text_26">
      <!-- 5 -->
      <g style="fill: #132238" transform="translate(566.001291 116.941837) scale(0.085 -0.085)">
       <defs>
        <path id="DejaVuSans-18" d="M 691 4666 
L 3169 4666 
L 3169 4134 
L 1269 4134 
L 1269 2991 
Q 1406 3038 1543 3061 
Q 1681 3084 1819 3084 
Q 2600 3084 3056 2656 
Q 3513 2228 3513 1497 
Q 3513 744 3044 326 
Q 2575 -91 1722 -91 
Q 1428 -91 1123 -41 
Q 819 9 494 109 
L 494 744 
Q 775 591 1075 516 
Q 1375 441 1709 441 
Q 2250 441 2565 725 
Q 2881 1009 2881 1497 
Q 2881 1984 2565 2268 
Q 2250 2553 1709 2553 
Q 1456 2553 1204 2497 
Q 953 2441 691 2322 
L 691 4666 
z
" transform="scale(0.015625)"/>
       </defs>
       <use xlink:href="#DejaVuSans-18"/>
      </g>
     </g>
    </g>
    <g id="ytick_13">
     <g id="line2d_34">
      <path d="M 578.409416 81.715628 
L 807.59952 81.715628 
" clip-path="url(#p491da9cb06)" style="fill: none; stroke: #d5d8d4; stroke-opacity: 0.8; stroke-width: 0.7; stroke-linecap: square"/>
     </g>
     <g id="line2d_35">
      <g>
       <use xlink:href="#ma763f90058" x="578.409416" y="81.715628" style="fill: #132238; stroke: #132238; stroke-width: 0.8"/>
      </g>
     </g>
     <g id="text_27">
      <!-- 6 -->
      <g style="fill: #132238" transform="translate(566.001291 84.944632) scale(0.085 -0.085)">
       <use xlink:href="#DejaVuSans-19"/>
      </g>
     </g>
    </g>
    <g id="ytick_14">
     <g id="line2d_36">
      <path d="M 578.409416 49.718423 
L 807.59952 49.718423 
" clip-path="url(#p491da9cb06)" style="fill: none; stroke: #d5d8d4; stroke-opacity: 0.8; stroke-width: 0.7; stroke-linecap: square"/>
     </g>
     <g id="line2d_37">
      <g>
       <use xlink:href="#ma763f90058" x="578.409416" y="49.718423" style="fill: #132238; stroke: #132238; stroke-width: 0.8"/>
      </g>
     </g>
     <g id="text_28">
      <!-- 7 -->
      <g style="fill: #132238" transform="translate(566.001291 52.947427) scale(0.085 -0.085)">
       <defs>
        <path id="DejaVuSans-1a" d="M 525 4666 
L 3525 4666 
L 3525 4397 
L 1831 0 
L 1172 0 
L 2766 4134 
L 525 4134 
L 525 4666 
z
" transform="scale(0.015625)"/>
       </defs>
       <use xlink:href="#DejaVuSans-1a"/>
      </g>
     </g>
    </g>
    <g id="text_29">
     <!-- failure rows -->
     <g style="fill: #132238" transform="translate(559.839182 182.281551) rotate(-90) scale(0.09 -0.09)">
      <use xlink:href="#DejaVuSans-49"/>
      <use xlink:href="#DejaVuSans-44" transform="translate(35.203125 0)"/>
      <use xlink:href="#DejaVuSans-4c" transform="translate(96.484375 0)"/>
      <use xlink:href="#DejaVuSans-4f" transform="translate(124.265625 0)"/>
      <use xlink:href="#DejaVuSans-58" transform="translate(152.046875 0)"/>
      <use xlink:href="#DejaVuSans-55" transform="translate(215.421875 0)"/>
      <use xlink:href="#DejaVuSans-48" transform="translate(254.328125 0)"/>
      <use xlink:href="#DejaVuSans-3" transform="translate(315.859375 0)"/>
      <use xlink:href="#DejaVuSans-55" transform="translate(347.640625 0)"/>
      <use xlink:href="#DejaVuSans-52" transform="translate(386.546875 0)"/>
      <use xlink:href="#DejaVuSans-5a" transform="translate(447.734375 0)"/>
      <use xlink:href="#DejaVuSans-56" transform="translate(529.515625 0)"/>
     </g>
    </g>
   </g>
   <g id="patch_30">
    <path d="M 578.409416 273.698856 
L 578.409416 38.519402 
" style="fill: none; stroke: #132238; stroke-width: 0.8; stroke-linejoin: miter; stroke-linecap: square"/>
   </g>
   <g id="patch_31">
    <path d="M 578.409416 273.698856 
L 807.59952 273.698856 
" style="fill: none; stroke: #132238; stroke-width: 0.8; stroke-linejoin: miter; stroke-linecap: square"/>
   </g>
   <g id="text_30">
    <!-- 7 -->
    <g transform="translate(615.635026 45.878759) scale(0.085 -0.085)">
     <defs>
      <path id="DejaVuSans-Bold-1a" d="M 428 4666 
L 3944 4666 
L 3944 3988 
L 2125 0 
L 953 0 
L 2675 3781 
L 428 3781 
L 428 4666 
z
" transform="scale(0.015625)"/>
     </defs>
     <use xlink:href="#DejaVuSans-Bold-1a"/>
    </g>
   </g>
   <g id="text_31">
    <!-- 0 -->
    <g transform="translate(690.047398 269.859191) scale(0.085 -0.085)">
     <defs>
      <path id="DejaVuSans-Bold-13" d="M 2944 2338 
Q 2944 3213 2780 3570 
Q 2616 3928 2228 3928 
Q 1841 3928 1675 3570 
Q 1509 3213 1509 2338 
Q 1509 1453 1675 1090 
Q 1841 728 2228 728 
Q 2613 728 2778 1090 
Q 2944 1453 2944 2338 
z
M 4147 2328 
Q 4147 1169 3647 539 
Q 3147 -91 2228 -91 
Q 1306 -91 806 539 
Q 306 1169 306 2328 
Q 306 3491 806 4120 
Q 1306 4750 2228 4750 
Q 3147 4750 3647 4120 
Q 4147 3491 4147 2328 
z
" transform="scale(0.015625)"/>
     </defs>
     <use xlink:href="#DejaVuSans-Bold-13"/>
    </g>
   </g>
   <g id="text_32">
    <!-- 0 -->
    <g transform="translate(764.459769 269.859191) scale(0.085 -0.085)">
     <use xlink:href="#DejaVuSans-Bold-13"/>
    </g>
   </g>
   <g id="text_33">
    <!-- Strict failure attribution -->
    <g style="fill: #132238" transform="translate(611.441031 32.519402) scale(0.12 -0.12)">
     <defs>
      <path id="DejaVuSans-Bold-36" d="M 3834 4519 
L 3834 3531 
Q 3450 3703 3084 3790 
Q 2719 3878 2394 3878 
Q 1963 3878 1756 3759 
Q 1550 3641 1550 3391 
Q 1550 3203 1689 3098 
Q 1828 2994 2194 2919 
L 2706 2816 
Q 3484 2659 3812 2340 
Q 4141 2022 4141 1434 
Q 4141 663 3683 286 
Q 3225 -91 2284 -91 
Q 1841 -91 1394 -6 
Q 947 78 500 244 
L 500 1259 
Q 947 1022 1364 901 
Q 1781 781 2169 781 
Q 2563 781 2772 912 
Q 2981 1044 2981 1288 
Q 2981 1506 2839 1625 
Q 2697 1744 2272 1838 
L 1806 1941 
Q 1106 2091 782 2419 
Q 459 2747 459 3303 
Q 459 4000 909 4375 
Q 1359 4750 2203 4750 
Q 2588 4750 2994 4692 
Q 3400 4634 3834 4519 
z
" transform="scale(0.015625)"/>
      <path id="DejaVuSans-Bold-55" d="M 3138 2547 
Q 2991 2616 2845 2648 
Q 2700 2681 2553 2681 
Q 2122 2681 1889 2404 
Q 1656 2128 1656 1613 
L 1656 0 
L 538 0 
L 538 3500 
L 1656 3500 
L 1656 2925 
Q 1872 3269 2151 3426 
Q 2431 3584 2822 3584 
Q 2878 3584 2943 3579 
Q 3009 3575 3134 3559 
L 3138 2547 
z
" transform="scale(0.015625)"/>
      <path id="DejaVuSans-Bold-49" d="M 2841 4863 
L 2841 4128 
L 2222 4128 
Q 1984 4128 1890 4042 
Q 1797 3956 1797 3744 
L 1797 3500 
L 2753 3500 
L 2753 2700 
L 1797 2700 
L 1797 0 
L 678 0 
L 678 2700 
L 122 2700 
L 122 3500 
L 678 3500 
L 678 3744 
Q 678 4316 997 4589 
Q 1316 4863 1984 4863 
L 2841 4863 
z
" transform="scale(0.015625)"/>
      <path id="DejaVuSans-Bold-45" d="M 2400 722 
Q 2759 722 2948 984 
Q 3138 1247 3138 1747 
Q 3138 2247 2948 2509 
Q 2759 2772 2400 2772 
Q 2041 2772 1848 2508 
Q 1656 2244 1656 1747 
Q 1656 1250 1848 986 
Q 2041 722 2400 722 
z
M 1656 2988 
Q 1888 3294 2169 3439 
Q 2450 3584 2816 3584 
Q 3463 3584 3878 3070 
Q 4294 2556 4294 1747 
Q 4294 938 3878 423 
Q 3463 -91 2816 -91 
Q 2450 -91 2169 54 
Q 1888 200 1656 506 
L 1656 0 
L 538 0 
L 538 4863 
L 1656 4863 
L 1656 2988 
z
" transform="scale(0.015625)"/>
      <path id="DejaVuSans-Bold-51" d="M 4056 2131 
L 4056 0 
L 2931 0 
L 2931 347 
L 2931 1631 
Q 2931 2084 2911 2256 
Q 2891 2428 2841 2509 
Q 2775 2619 2662 2680 
Q 2550 2741 2406 2741 
Q 2056 2741 1856 2470 
Q 1656 2200 1656 1722 
L 1656 0 
L 538 0 
L 538 3500 
L 1656 3500 
L 1656 2988 
Q 1909 3294 2193 3439 
Q 2478 3584 2822 3584 
Q 3428 3584 3742 3212 
Q 4056 2841 4056 2131 
z
" transform="scale(0.015625)"/>
     </defs>
     <use xlink:href="#DejaVuSans-Bold-36"/>
     <use xlink:href="#DejaVuSans-Bold-57" transform="translate(72.015625 0)"/>
     <use xlink:href="#DejaVuSans-Bold-55" transform="translate(119.8125 0)"/>
     <use xlink:href="#DejaVuSans-Bold-4c" transform="translate(169.125 0)"/>
     <use xlink:href="#DejaVuSans-Bold-46" transform="translate(203.40625 0)"/>
     <use xlink:href="#DejaVuSans-Bold-57" transform="translate(262.6875 0)"/>
     <use xlink:href="#DejaVuSans-Bold-3" transform="translate(310.484375 0)"/>
     <use xlink:href="#DejaVuSans-Bold-49" transform="translate(345.296875 0)"/>
     <use xlink:href="#DejaVuSans-Bold-44" transform="translate(388.796875 0)"/>
     <use xlink:href="#DejaVuSans-Bold-4c" transform="translate(456.28125 0)"/>
     <use xlink:href="#DejaVuSans-Bold-4f" transform="translate(490.5625 0)"/>
     <use xlink:href="#DejaVuSans-Bold-58" transform="translate(524.84375 0)"/>
     <use xlink:href="#DejaVuSans-Bold-55" transform="translate(596.03125 0)"/>
     <use xlink:href="#DejaVuSans-Bold-48" transform="translate(645.34375 0)"/>
     <use xlink:href="#DejaVuSans-Bold-3" transform="translate(713.171875 0)"/>
     <use xlink:href="#DejaVuSans-Bold-44" transform="translate(747.984375 0)"/>
     <use xlink:href="#DejaVuSans-Bold-57" transform="translate(815.46875 0)"/>
     <use xlink:href="#DejaVuSans-Bold-57" transform="translate(863.265625 0)"/>
     <use xlink:href="#DejaVuSans-Bold-55" transform="translate(911.0625 0)"/>
     <use xlink:href="#DejaVuSans-Bold-4c" transform="translate(960.375 0)"/>
     <use xlink:href="#DejaVuSans-Bold-45" transform="translate(994.65625 0)"/>
     <use xlink:href="#DejaVuSans-Bold-58" transform="translate(1066.234375 0)"/>
     <use xlink:href="#DejaVuSans-Bold-57" transform="translate(1137.421875 0)"/>
     <use xlink:href="#DejaVuSans-Bold-4c" transform="translate(1185.21875 0)"/>
     <use xlink:href="#DejaVuSans-Bold-52" transform="translate(1219.5 0)"/>
     <use xlink:href="#DejaVuSans-Bold-51" transform="translate(1288.203125 0)"/>
    </g>
   </g>
  </g>
  <g id="text_34">
   <!-- Closing quality: seven threshold-equality liquidity failures -->
   <g transform="translate(12.26376 14.950406) scale(0.102 -0.102)">
    <defs>
     <path id="DejaVuSans-Bold-26" d="M 4288 256 
Q 3956 84 3597 -3 
Q 3238 -91 2847 -91 
Q 1681 -91 1000 561 
Q 319 1213 319 2328 
Q 319 3447 1000 4098 
Q 1681 4750 2847 4750 
Q 3238 4750 3597 4662 
Q 3956 4575 4288 4403 
L 4288 3438 
Q 3953 3666 3628 3772 
Q 3303 3878 2944 3878 
Q 2300 3878 1931 3465 
Q 1563 3053 1563 2328 
Q 1563 1606 1931 1193 
Q 2300 781 2944 781 
Q 3303 781 3628 887 
Q 3953 994 4288 1222 
L 4288 256 
z
" transform="scale(0.015625)"/>
     <path id="DejaVuSans-Bold-4a" d="M 2919 594 
Q 2688 288 2409 144 
Q 2131 0 1766 0 
Q 1125 0 706 504 
Q 288 1009 288 1791 
Q 288 2575 706 3076 
Q 1125 3578 1766 3578 
Q 2131 3578 2409 3434 
Q 2688 3291 2919 2981 
L 2919 3500 
L 4044 3500 
L 4044 353 
Q 4044 -491 3511 -936 
Q 2978 -1381 1966 -1381 
Q 1638 -1381 1331 -1331 
Q 1025 -1281 716 -1178 
L 716 -306 
Q 1009 -475 1290 -558 
Q 1572 -641 1856 -641 
Q 2406 -641 2662 -400 
Q 2919 -159 2919 353 
L 2919 594 
z
M 2181 2772 
Q 1834 2772 1640 2515 
Q 1447 2259 1447 1791 
Q 1447 1309 1634 1061 
Q 1822 813 2181 813 
Q 2531 813 2725 1069 
Q 2919 1325 2919 1791 
Q 2919 2259 2725 2515 
Q 2531 2772 2181 2772 
z
" transform="scale(0.015625)"/>
     <path id="DejaVuSans-Bold-1d" d="M 716 3500 
L 1844 3500 
L 1844 2291 
L 716 2291 
L 716 3500 
z
M 716 1209 
L 1844 1209 
L 1844 0 
L 716 0 
L 716 1209 
z
" transform="scale(0.015625)"/>
     <path id="DejaVuSans-Bold-59" d="M 97 3500 
L 1216 3500 
L 2088 1081 
L 2956 3500 
L 4078 3500 
L 2700 0 
L 1472 0 
L 97 3500 
z
" transform="scale(0.015625)"/>
     <path id="DejaVuSans-Bold-4b" d="M 4056 2131 
L 4056 0 
L 2931 0 
L 2931 347 
L 2931 1625 
Q 2931 2084 2911 2256 
Q 2891 2428 2841 2509 
Q 2775 2619 2662 2680 
Q 2550 2741 2406 2741 
Q 2056 2741 1856 2470 
Q 1656 2200 1656 1722 
L 1656 0 
L 538 0 
L 538 4863 
L 1656 4863 
L 1656 2988 
Q 1909 3294 2193 3439 
Q 2478 3584 2822 3584 
Q 3428 3584 3742 3212 
Q 4056 2841 4056 2131 
z
" transform="scale(0.015625)"/>
     <path id="DejaVuSans-Bold-47" d="M 2919 2988 
L 2919 4863 
L 4044 4863 
L 4044 0 
L 2919 0 
L 2919 506 
Q 2688 197 2409 53 
Q 2131 -91 1766 -91 
Q 1119 -91 703 423 
Q 288 938 288 1747 
Q 288 2556 703 3070 
Q 1119 3584 1766 3584 
Q 2128 3584 2408 3439 
Q 2688 3294 2919 2988 
z
M 2181 722 
Q 2541 722 2730 984 
Q 2919 1247 2919 1747 
Q 2919 2247 2730 2509 
Q 2541 2772 2181 2772 
Q 1825 2772 1636 2509 
Q 1447 2247 1447 1747 
Q 1447 1247 1636 984 
Q 1825 722 2181 722 
z
" transform="scale(0.015625)"/>
    </defs>
    <use xlink:href="#DejaVuSans-Bold-26"/>
    <use xlink:href="#DejaVuSans-Bold-4f" transform="translate(73.390625 0)"/>
    <use xlink:href="#DejaVuSans-Bold-52" transform="translate(107.671875 0)"/>
    <use xlink:href="#DejaVuSans-Bold-56" transform="translate(176.375 0)"/>
    <use xlink:href="#DejaVuSans-Bold-4c" transform="translate(235.890625 0)"/>
    <use xlink:href="#DejaVuSans-Bold-51" transform="translate(270.171875 0)"/>
    <use xlink:href="#DejaVuSans-Bold-4a" transform="translate(341.359375 0)"/>
    <use xlink:href="#DejaVuSans-Bold-3" transform="translate(412.9375 0)"/>
    <use xlink:href="#DejaVuSans-Bold-54" transform="translate(447.75 0)"/>
    <use xlink:href="#DejaVuSans-Bold-58" transform="translate(519.328125 0)"/>
    <use xlink:href="#DejaVuSans-Bold-44" transform="translate(590.515625 0)"/>
    <use xlink:href="#DejaVuSans-Bold-4f" transform="translate(658 0)"/>
    <use xlink:href="#DejaVuSans-Bold-4c" transform="translate(692.28125 0)"/>
    <use xlink:href="#DejaVuSans-Bold-57" transform="translate(726.5625 0)"/>
    <use xlink:href="#DejaVuSans-Bold-5c" transform="translate(774.359375 0)"/>
    <use xlink:href="#DejaVuSans-Bold-1d" transform="translate(839.546875 0)"/>
    <use xlink:href="#DejaVuSans-Bold-3" transform="translate(879.53125 0)"/>
    <use xlink:href="#DejaVuSans-Bold-56" transform="translate(914.34375 0)"/>
    <use xlink:href="#DejaVuSans-Bold-48" transform="translate(973.859375 0)"/>
    <use xlink:href="#DejaVuSans-Bold-59" transform="translate(1041.6875 0)"/>
    <use xlink:href="#DejaVuSans-Bold-48" transform="translate(1106.875 0)"/>
    <use xlink:href="#DejaVuSans-Bold-51" transform="translate(1174.703125 0)"/>
    <use xlink:href="#DejaVuSans-Bold-3" transform="translate(1245.890625 0)"/>
    <use xlink:href="#DejaVuSans-Bold-57" transform="translate(1280.703125 0)"/>
    <use xlink:href="#DejaVuSans-Bold-4b" transform="translate(1328.5 0)"/>
    <use xlink:href="#DejaVuSans-Bold-55" transform="translate(1399.6875 0)"/>
    <use xlink:href="#DejaVuSans-Bold-48" transform="translate(1449 0)"/>
    <use xlink:href="#DejaVuSans-Bold-56" transform="translate(1516.828125 0)"/>
    <use xlink:href="#DejaVuSans-Bold-4b" transform="translate(1576.34375 0)"/>
    <use xlink:href="#DejaVuSans-Bold-52" transform="translate(1647.53125 0)"/>
    <use xlink:href="#DejaVuSans-Bold-4f" transform="translate(1716.234375 0)"/>
    <use xlink:href="#DejaVuSans-Bold-47" transform="translate(1750.515625 0)"/>
    <use xlink:href="#DejaVuSans-Bold-10" transform="translate(1822.09375 0)"/>
    <use xlink:href="#DejaVuSans-Bold-48" transform="translate(1863.59375 0)"/>
    <use xlink:href="#DejaVuSans-Bold-54" transform="translate(1931.421875 0)"/>
    <use xlink:href="#DejaVuSans-Bold-58" transform="translate(2003 0)"/>
    <use xlink:href="#DejaVuSans-Bold-44" transform="translate(2074.1875 0)"/>
    <use xlink:href="#DejaVuSans-Bold-4f" transform="translate(2141.671875 0)"/>
    <use xlink:href="#DejaVuSans-Bold-4c" transform="translate(2175.953125 0)"/>
    <use xlink:href="#DejaVuSans-Bold-57" transform="translate(2210.234375 0)"/>
    <use xlink:href="#DejaVuSans-Bold-5c" transform="translate(2258.03125 0)"/>
    <use xlink:href="#DejaVuSans-Bold-3" transform="translate(2323.21875 0)"/>
    <use xlink:href="#DejaVuSans-Bold-4f" transform="translate(2358.03125 0)"/>
    <use xlink:href="#DejaVuSans-Bold-4c" transform="translate(2392.3125 0)"/>
    <use xlink:href="#DejaVuSans-Bold-54" transform="translate(2426.59375 0)"/>
    <use xlink:href="#DejaVuSans-Bold-58" transform="translate(2498.171875 0)"/>
    <use xlink:href="#DejaVuSans-Bold-4c" transform="translate(2569.359375 0)"/>
    <use xlink:href="#DejaVuSans-Bold-47" transform="translate(2603.640625 0)"/>
    <use xlink:href="#DejaVuSans-Bold-4c" transform="translate(2675.21875 0)"/>
    <use xlink:href="#DejaVuSans-Bold-57" transform="translate(2709.5 0)"/>
    <use xlink:href="#DejaVuSans-Bold-5c" transform="translate(2757.296875 0)"/>
    <use xlink:href="#DejaVuSans-Bold-3" transform="translate(2822.484375 0)"/>
    <use xlink:href="#DejaVuSans-Bold-49" transform="translate(2857.296875 0)"/>
    <use xlink:href="#DejaVuSans-Bold-44" transform="translate(2900.796875 0)"/>
    <use xlink:href="#DejaVuSans-Bold-4c" transform="translate(2968.28125 0)"/>
    <use xlink:href="#DejaVuSans-Bold-4f" transform="translate(3002.5625 0)"/>
    <use xlink:href="#DejaVuSans-Bold-58" transform="translate(3036.84375 0)"/>
    <use xlink:href="#DejaVuSans-Bold-55" transform="translate(3108.03125 0)"/>
    <use xlink:href="#DejaVuSans-Bold-48" transform="translate(3157.34375 0)"/>
    <use xlink:href="#DejaVuSans-Bold-56" transform="translate(3225.171875 0)"/>
   </g>
  </g>
 </g>
 <defs>
  <clipPath id="pb8aad362f8">
   <rect x="40.718359" y="38.519402" width="504.218229" height="235.179454"/>
  </clipPath>
  <clipPath id="p491da9cb06">
   <rect x="578.409416" y="38.519402" width="229.190104" height="235.179454"/>
  </clipPath>
 </defs>
</svg>
